G04 #@! TF.GenerationSoftware,KiCad,Pcbnew,7.0.10*
G04 #@! TF.CreationDate,2024-04-20T00:48:07+02:00*
G04 #@! TF.ProjectId,ledDisplay,6c656444-6973-4706-9c61-792e6b696361,rev?*
G04 #@! TF.SameCoordinates,Original*
G04 #@! TF.FileFunction,Soldermask,Bot*
G04 #@! TF.FilePolarity,Negative*
%FSLAX46Y46*%
G04 Gerber Fmt 4.6, Leading zero omitted, Abs format (unit mm)*
G04 Created by KiCad (PCBNEW 7.0.10) date 2024-04-20 00:48:07*
%MOMM*%
%LPD*%
G01*
G04 APERTURE LIST*
G04 Aperture macros list*
%AMRoundRect*
0 Rectangle with rounded corners*
0 $1 Rounding radius*
0 $2 $3 $4 $5 $6 $7 $8 $9 X,Y pos of 4 corners*
0 Add a 4 corners polygon primitive as box body*
4,1,4,$2,$3,$4,$5,$6,$7,$8,$9,$2,$3,0*
0 Add four circle primitives for the rounded corners*
1,1,$1+$1,$2,$3*
1,1,$1+$1,$4,$5*
1,1,$1+$1,$6,$7*
1,1,$1+$1,$8,$9*
0 Add four rect primitives between the rounded corners*
20,1,$1+$1,$2,$3,$4,$5,0*
20,1,$1+$1,$4,$5,$6,$7,0*
20,1,$1+$1,$6,$7,$8,$9,0*
20,1,$1+$1,$8,$9,$2,$3,0*%
%AMHorizOval*
0 Thick line with rounded ends*
0 $1 width*
0 $2 $3 position (X,Y) of the first rounded end (center of the circle)*
0 $4 $5 position (X,Y) of the second rounded end (center of the circle)*
0 Add line between two ends*
20,1,$1,$2,$3,$4,$5,0*
0 Add two circle primitives to create the rounded ends*
1,1,$1,$2,$3*
1,1,$1,$4,$5*%
%AMRotRect*
0 Rectangle, with rotation*
0 The origin of the aperture is its center*
0 $1 length*
0 $2 width*
0 $3 Rotation angle, in degrees counterclockwise*
0 Add horizontal line*
21,1,$1,$2,0,0,$3*%
G04 Aperture macros list end*
%ADD10C,3.200000*%
%ADD11C,1.500000*%
%ADD12RoundRect,0.237500X0.300000X0.237500X-0.300000X0.237500X-0.300000X-0.237500X0.300000X-0.237500X0*%
%ADD13RoundRect,0.237500X-0.250000X-0.237500X0.250000X-0.237500X0.250000X0.237500X-0.250000X0.237500X0*%
%ADD14R,1.150000X1.000000*%
%ADD15RoundRect,0.250000X-0.097227X0.574524X-0.574524X0.097227X0.097227X-0.574524X0.574524X-0.097227X0*%
%ADD16R,1.400000X0.300000*%
%ADD17RoundRect,0.237500X-0.237500X0.300000X-0.237500X-0.300000X0.237500X-0.300000X0.237500X0.300000X0*%
%ADD18RoundRect,0.237500X-0.300000X-0.237500X0.300000X-0.237500X0.300000X0.237500X-0.300000X0.237500X0*%
%ADD19RoundRect,0.150000X-0.150000X0.650000X-0.150000X-0.650000X0.150000X-0.650000X0.150000X0.650000X0*%
%ADD20RoundRect,0.237500X-0.287500X-0.237500X0.287500X-0.237500X0.287500X0.237500X-0.287500X0.237500X0*%
%ADD21RoundRect,0.225000X-0.375000X0.225000X-0.375000X-0.225000X0.375000X-0.225000X0.375000X0.225000X0*%
%ADD22RoundRect,0.237500X0.237500X-0.300000X0.237500X0.300000X-0.237500X0.300000X-0.237500X-0.300000X0*%
%ADD23RoundRect,0.237500X0.237500X-0.250000X0.237500X0.250000X-0.237500X0.250000X-0.237500X-0.250000X0*%
%ADD24RotRect,1.700000X1.700000X225.000000*%
%ADD25HorizOval,1.700000X0.000000X0.000000X0.000000X0.000000X0*%
%ADD26RoundRect,0.250000X0.475000X-0.337500X0.475000X0.337500X-0.475000X0.337500X-0.475000X-0.337500X0*%
%ADD27RoundRect,0.250000X0.574524X0.097227X0.097227X0.574524X-0.574524X-0.097227X-0.097227X-0.574524X0*%
%ADD28RoundRect,0.237500X0.250000X0.237500X-0.250000X0.237500X-0.250000X-0.237500X0.250000X-0.237500X0*%
%ADD29RoundRect,0.250000X0.097227X-0.574524X0.574524X-0.097227X-0.097227X0.574524X-0.574524X0.097227X0*%
%ADD30RoundRect,0.375000X0.176777X0.707107X-0.707107X-0.176777X-0.176777X-0.707107X0.707107X0.176777X0*%
%ADD31RoundRect,0.500000X-0.636396X1.343503X-1.343503X0.636396X0.636396X-1.343503X1.343503X-0.636396X0*%
%ADD32C,0.650000*%
%ADD33R,0.600000X1.240000*%
%ADD34R,0.300000X1.240000*%
%ADD35O,1.000000X1.800000*%
%ADD36O,1.000000X2.100000*%
%ADD37RoundRect,0.050000X-0.050000X0.387500X-0.050000X-0.387500X0.050000X-0.387500X0.050000X0.387500X0*%
%ADD38RoundRect,0.050000X-0.387500X0.050000X-0.387500X-0.050000X0.387500X-0.050000X0.387500X0.050000X0*%
%ADD39R,3.200000X3.200000*%
G04 APERTURE END LIST*
D10*
X173000000Y-66000000D03*
D11*
X189611000Y-71755000D03*
D12*
X175715000Y-86741000D03*
X173990000Y-86741000D03*
D13*
X190857500Y-86360000D03*
X192682500Y-86360000D03*
D11*
X166878000Y-76581000D03*
D14*
X192772000Y-84647000D03*
X191022000Y-84647000D03*
X191022000Y-83247000D03*
X192772000Y-83247000D03*
D15*
X162531623Y-104803377D03*
X161064377Y-106270623D03*
D16*
X173101000Y-101203000D03*
X173101000Y-100703000D03*
X173101000Y-100203000D03*
X173101000Y-99703000D03*
X173101000Y-99203000D03*
X177501000Y-99203000D03*
X177501000Y-99703000D03*
X177501000Y-100203000D03*
X177501000Y-100703000D03*
X177501000Y-101203000D03*
D17*
X191008000Y-88418500D03*
X191008000Y-90143500D03*
D11*
X184658000Y-74041000D03*
D18*
X179985500Y-92837000D03*
X181710500Y-92837000D03*
D19*
X166243000Y-82887000D03*
X167513000Y-82887000D03*
X168783000Y-82887000D03*
X170053000Y-82887000D03*
X170053000Y-90087000D03*
X168783000Y-90087000D03*
X167513000Y-90087000D03*
X166243000Y-90087000D03*
D20*
X178068000Y-97409000D03*
X179818000Y-97409000D03*
D12*
X175741500Y-89789000D03*
X174016500Y-89789000D03*
D11*
X169418000Y-76581000D03*
X191676459Y-73820459D03*
D21*
X168275000Y-97029000D03*
X168275000Y-100329000D03*
D12*
X175741500Y-88265000D03*
X174016500Y-88265000D03*
D13*
X178030500Y-95250000D03*
X179855500Y-95250000D03*
D22*
X182499000Y-80618500D03*
X182499000Y-78893500D03*
D12*
X192759500Y-81661000D03*
X191034500Y-81661000D03*
D23*
X184150000Y-80668500D03*
X184150000Y-78843500D03*
D11*
X182118000Y-74041000D03*
D24*
X186544949Y-100057949D03*
D25*
X188341000Y-101854000D03*
D17*
X164338000Y-90323500D03*
X164338000Y-92048500D03*
D26*
X170815000Y-99462500D03*
X170815000Y-97387500D03*
D13*
X174347500Y-103251000D03*
X176172500Y-103251000D03*
D17*
X194437000Y-82957500D03*
X194437000Y-84682500D03*
D11*
X182245000Y-99314000D03*
D27*
X163039623Y-96745623D03*
X161572377Y-95278377D03*
D12*
X185393500Y-92837000D03*
X183668500Y-92837000D03*
D22*
X180848000Y-80618500D03*
X180848000Y-78893500D03*
D28*
X168425500Y-79502000D03*
X166600500Y-79502000D03*
D11*
X187545541Y-69689541D03*
D12*
X175715000Y-85217000D03*
X173990000Y-85217000D03*
D29*
X163985377Y-103349623D03*
X165452623Y-101882377D03*
D30*
X159605041Y-96984268D03*
X161231386Y-98610614D03*
D31*
X156776614Y-103065386D03*
D30*
X162857732Y-100236959D03*
D32*
X175890000Y-106395000D03*
X170110000Y-106395000D03*
D33*
X176200000Y-105275000D03*
X175400000Y-105275000D03*
D34*
X174250000Y-105275000D03*
X173250000Y-105275000D03*
X172750000Y-105275000D03*
X171750000Y-105275000D03*
D33*
X170600000Y-105275000D03*
X169800000Y-105275000D03*
X169800000Y-105275000D03*
X170600000Y-105275000D03*
D34*
X171250000Y-105275000D03*
X172250000Y-105275000D03*
X173750000Y-105275000D03*
X174750000Y-105275000D03*
D33*
X175400000Y-105275000D03*
X176200000Y-105275000D03*
D35*
X177320000Y-110075000D03*
D36*
X177320000Y-105875000D03*
D35*
X168680000Y-110075000D03*
D36*
X168680000Y-105875000D03*
D23*
X185801000Y-80668500D03*
X185801000Y-78843500D03*
D37*
X180623000Y-83138500D03*
X181023000Y-83138500D03*
X181423000Y-83138500D03*
X181823000Y-83138500D03*
X182223000Y-83138500D03*
X182623000Y-83138500D03*
X183023000Y-83138500D03*
X183423000Y-83138500D03*
X183823000Y-83138500D03*
X184223000Y-83138500D03*
X184623000Y-83138500D03*
X185023000Y-83138500D03*
X185423000Y-83138500D03*
X185823000Y-83138500D03*
D38*
X186660500Y-83976000D03*
X186660500Y-84376000D03*
X186660500Y-84776000D03*
X186660500Y-85176000D03*
X186660500Y-85576000D03*
X186660500Y-85976000D03*
X186660500Y-86376000D03*
X186660500Y-86776000D03*
X186660500Y-87176000D03*
X186660500Y-87576000D03*
X186660500Y-87976000D03*
X186660500Y-88376000D03*
X186660500Y-88776000D03*
X186660500Y-89176000D03*
D37*
X185823000Y-90013500D03*
X185423000Y-90013500D03*
X185023000Y-90013500D03*
X184623000Y-90013500D03*
X184223000Y-90013500D03*
X183823000Y-90013500D03*
X183423000Y-90013500D03*
X183023000Y-90013500D03*
X182623000Y-90013500D03*
X182223000Y-90013500D03*
X181823000Y-90013500D03*
X181423000Y-90013500D03*
X181023000Y-90013500D03*
X180623000Y-90013500D03*
D38*
X179785500Y-89176000D03*
X179785500Y-88776000D03*
X179785500Y-88376000D03*
X179785500Y-87976000D03*
X179785500Y-87576000D03*
X179785500Y-87176000D03*
X179785500Y-86776000D03*
X179785500Y-86376000D03*
X179785500Y-85976000D03*
X179785500Y-85576000D03*
X179785500Y-85176000D03*
X179785500Y-84776000D03*
X179785500Y-84376000D03*
X179785500Y-83976000D03*
D39*
X183223000Y-86576000D03*
D12*
X175715000Y-83693000D03*
X173990000Y-83693000D03*
D28*
X176213500Y-97329318D03*
X174388500Y-97329318D03*
D13*
X173331500Y-94615000D03*
X175156500Y-94615000D03*
D17*
X189357000Y-88418500D03*
X189357000Y-90143500D03*
D13*
X173331500Y-93091000D03*
X175156500Y-93091000D03*
M02*
