M48
; DRILL file {KiCad 7.0.10} date sob, 20 kwi 2024, 00:48:09
; FORMAT={-:-/ absolute / metric / decimal}
; #@! TF.CreationDate,2024-04-20T00:48:09+02:00
; #@! TF.GenerationSoftware,Kicad,Pcbnew,7.0.10
; #@! TF.FileFunction,Plated,1,2,PTH
FMAT,2
METRIC
; #@! TA.AperFunction,Plated,PTH,ViaDrill
T1C0.300
; #@! TA.AperFunction,Plated,PTH,ViaDrill
T2C0.400
; #@! TA.AperFunction,Plated,PTH,ComponentDrill
T3C0.600
; #@! TA.AperFunction,Plated,PTH,ComponentDrill
T4C1.000
%
G90
G05
T1
X148.962Y-86.233
X148.962Y-86.995
X148.962Y-87.757
X149.86Y-86.233
X149.86Y-86.995
X149.86Y-87.757
X156.337Y-98.679
X158.369Y-98.679
X160.528Y-103.054
X166.751Y-106.045
X169.545Y-103.046
X171.958Y-102.296
X171.958Y-109.855
X171.958Y-110.753
X172.212Y-94.869
X172.212Y-93.345
X172.466Y-91.059
X172.72Y-109.855
X172.72Y-110.753
X172.974Y-102.296
X173.228Y-91.059
X173.482Y-109.855
X173.482Y-110.753
X173.99Y-91.059
X175.133Y-100.203
X176.42Y-92.346
X177.021Y-92.947
X177.038Y-96.266
X177.673Y-87.122
X178.435Y-87.757
X181.043Y-86.106
X181.483Y-91.044
X182.596Y-94.458
X184.404Y-97.663
X184.824Y-84.328
X184.943Y-97.124
X185.039Y-98.298
X185.348Y-88.981
X185.482Y-96.585
X185.578Y-97.759
X185.743Y-84.315
X186.117Y-97.22
X186.69Y-82.931
X186.817Y-104.521
X187.452Y-76.962
X187.706Y-87.757
X187.718Y-84.541
X187.833Y-90.424
X187.833Y-91.186
X187.833Y-91.948
X188.214Y-81.661
X188.595Y-96.52
X195.952Y-86.233
X195.952Y-86.995
X195.952Y-87.757
X196.85Y-86.233
X196.85Y-86.995
X196.85Y-87.757
T2
X153.543Y-84.963
X155.448Y-86.868
X159.512Y-86.106
X159.512Y-87.249
X159.512Y-88.265
X159.512Y-89.281
X160.191Y-94.063
X160.909Y-93.345
X161.036Y-82.423
X161.627Y-92.627
X162.436Y-91.818
X163.449Y-87.376
X165.144Y-97.492
X165.862Y-96.774
X165.989Y-84.836
X166.58Y-96.056
X167.005Y-84.836
X167.389Y-95.247
X167.513Y-72.39
X168.021Y-84.836
X168.656Y-72.39
X169.164Y-84.836
X169.672Y-72.39
X170.434Y-70.154
X170.688Y-72.39
X174.244Y-68.834
X176.019Y-74.292
X176.828Y-75.101
X177.546Y-75.819
X178.264Y-76.537
X182.223Y-85.576
X182.223Y-86.576
X182.223Y-87.576
X183.223Y-85.576
X183.223Y-86.576
X183.223Y-87.576
X184.223Y-85.576
X184.223Y-86.576
X184.223Y-87.576
X186.817Y-75.819
X188.25Y-88.655
X188.48Y-83.974
X190.119Y-75.819
X192.278Y-87.884
X194.183Y-89.789
T4
X186.545Y-100.058
X188.341Y-101.854
T3
X168.68Y-106.425G85X168.68Y-105.325
G05
X168.68Y-110.475G85X168.68Y-109.675
G05
X177.32Y-106.425G85X177.32Y-105.325
G05
X177.32Y-110.475G85X177.32Y-109.675
G05
M30
