G04 #@! TF.GenerationSoftware,KiCad,Pcbnew,7.0.10*
G04 #@! TF.CreationDate,2024-04-20T00:48:07+02:00*
G04 #@! TF.ProjectId,ledDisplay,6c656444-6973-4706-9c61-792e6b696361,rev?*
G04 #@! TF.SameCoordinates,Original*
G04 #@! TF.FileFunction,Paste,Top*
G04 #@! TF.FilePolarity,Positive*
%FSLAX46Y46*%
G04 Gerber Fmt 4.6, Leading zero omitted, Abs format (unit mm)*
G04 Created by KiCad (PCBNEW 7.0.10) date 2024-04-20 00:48:07*
%MOMM*%
%LPD*%
G01*
G04 APERTURE LIST*
G04 Aperture macros list*
%AMRoundRect*
0 Rectangle with rounded corners*
0 $1 Rounding radius*
0 $2 $3 $4 $5 $6 $7 $8 $9 X,Y pos of 4 corners*
0 Add a 4 corners polygon primitive as box body*
4,1,4,$2,$3,$4,$5,$6,$7,$8,$9,$2,$3,0*
0 Add four circle primitives for the rounded corners*
1,1,$1+$1,$2,$3*
1,1,$1+$1,$4,$5*
1,1,$1+$1,$6,$7*
1,1,$1+$1,$8,$9*
0 Add four rect primitives between the rounded corners*
20,1,$1+$1,$2,$3,$4,$5,0*
20,1,$1+$1,$4,$5,$6,$7,0*
20,1,$1+$1,$6,$7,$8,$9,0*
20,1,$1+$1,$8,$9,$2,$3,0*%
%AMRotRect*
0 Rectangle, with rotation*
0 The origin of the aperture is its center*
0 $1 length*
0 $2 width*
0 $3 Rotation angle, in degrees counterclockwise*
0 Add horizontal line*
21,1,$1,$2,0,0,$3*%
G04 Aperture macros list end*
%ADD10RoundRect,0.250000X-0.493584X-0.309687X0.130035X-0.567998X0.493584X0.309687X-0.130035X0.567998X0*%
%ADD11RotRect,1.500000X0.900000X157.500000*%
%ADD12RotRect,1.500000X0.900000X247.500000*%
%ADD13RotRect,1.500000X0.900000X202.500000*%
%ADD14RoundRect,0.250000X0.567998X-0.130035X0.309687X0.493584X-0.567998X0.130035X-0.309687X-0.493584X0*%
%ADD15RoundRect,0.250000X0.493584X0.309687X-0.130035X0.567998X-0.493584X-0.309687X0.130035X-0.567998X0*%
%ADD16RoundRect,0.250000X0.130035X0.567998X-0.493584X0.309687X-0.130035X-0.567998X0.493584X-0.309687X0*%
%ADD17RoundRect,0.250000X-0.309687X0.493584X-0.567998X-0.130035X0.309687X-0.493584X0.567998X0.130035X0*%
%ADD18RoundRect,0.250000X-0.567998X0.130035X-0.309687X-0.493584X0.567998X-0.130035X0.309687X0.493584X0*%
%ADD19R,1.300000X1.550000*%
%ADD20RotRect,1.500000X0.900000X22.500000*%
%ADD21RotRect,1.500000X0.900000X112.500000*%
%ADD22RotRect,1.500000X0.900000X292.500000*%
%ADD23RoundRect,0.250000X0.309687X-0.493584X0.567998X0.130035X-0.309687X0.493584X-0.567998X-0.130035X0*%
%ADD24RoundRect,0.250000X-0.130035X-0.567998X0.493584X-0.309687X0.130035X0.567998X-0.493584X0.309687X0*%
%ADD25RotRect,1.500000X0.900000X337.500000*%
%ADD26RotRect,1.500000X0.900000X67.500000*%
%ADD27RoundRect,0.237500X-0.008839X-0.344715X0.344715X0.008839X0.008839X0.344715X-0.344715X-0.008839X0*%
G04 APERTURE END LIST*
D10*
X188953687Y-97937803D03*
X190870737Y-98731871D03*
D11*
X156154486Y-81808307D03*
X157417342Y-78759504D03*
X152890332Y-76884355D03*
X151627476Y-79933158D03*
D12*
X167808307Y-103845514D03*
X164759504Y-102582658D03*
X162884355Y-107109668D03*
X165933158Y-108372524D03*
D13*
X157417342Y-95240496D03*
X156154486Y-92191693D03*
X151627476Y-94066842D03*
X152890332Y-97115645D03*
D14*
X169453233Y-67984845D03*
X168659165Y-66067795D03*
D15*
X157046313Y-76062197D03*
X155129263Y-75268129D03*
D16*
X153984845Y-90546767D03*
X152067795Y-91340835D03*
D17*
X162195034Y-103054475D03*
X161400966Y-104971525D03*
D18*
X183966503Y-103022977D03*
X184760571Y-104940027D03*
D19*
X170750000Y-90975000D03*
X170750000Y-83025000D03*
X175250000Y-90975000D03*
X175250000Y-83025000D03*
D20*
X188582658Y-78759504D03*
X189845514Y-81808307D03*
X194372524Y-79933158D03*
X193109668Y-76884355D03*
D21*
X164759504Y-71417342D03*
X167808307Y-70154486D03*
X165933158Y-65627476D03*
X162884355Y-66890332D03*
D22*
X181240496Y-102582658D03*
X178191693Y-103845514D03*
X180066842Y-108372524D03*
X183115645Y-107109668D03*
D23*
X183937803Y-71046313D03*
X184731871Y-69129263D03*
D24*
X192015155Y-83453233D03*
X193932205Y-82659165D03*
D25*
X189845514Y-92191693D03*
X188582658Y-95240496D03*
X193109668Y-97115645D03*
X194372524Y-94066842D03*
D26*
X178191693Y-70154486D03*
X181240496Y-71417342D03*
X183115645Y-66890332D03*
X180066842Y-65627476D03*
D27*
X179430530Y-99588470D03*
X180721000Y-98298000D03*
M02*
