G04 #@! TF.GenerationSoftware,KiCad,Pcbnew,7.0.10*
G04 #@! TF.CreationDate,2024-04-20T00:48:07+02:00*
G04 #@! TF.ProjectId,ledDisplay,6c656444-6973-4706-9c61-792e6b696361,rev?*
G04 #@! TF.SameCoordinates,Original*
G04 #@! TF.FileFunction,Copper,L1,Top*
G04 #@! TF.FilePolarity,Positive*
%FSLAX46Y46*%
G04 Gerber Fmt 4.6, Leading zero omitted, Abs format (unit mm)*
G04 Created by KiCad (PCBNEW 7.0.10) date 2024-04-20 00:48:07*
%MOMM*%
%LPD*%
G01*
G04 APERTURE LIST*
G04 Aperture macros list*
%AMRoundRect*
0 Rectangle with rounded corners*
0 $1 Rounding radius*
0 $2 $3 $4 $5 $6 $7 $8 $9 X,Y pos of 4 corners*
0 Add a 4 corners polygon primitive as box body*
4,1,4,$2,$3,$4,$5,$6,$7,$8,$9,$2,$3,0*
0 Add four circle primitives for the rounded corners*
1,1,$1+$1,$2,$3*
1,1,$1+$1,$4,$5*
1,1,$1+$1,$6,$7*
1,1,$1+$1,$8,$9*
0 Add four rect primitives between the rounded corners*
20,1,$1+$1,$2,$3,$4,$5,0*
20,1,$1+$1,$4,$5,$6,$7,0*
20,1,$1+$1,$6,$7,$8,$9,0*
20,1,$1+$1,$8,$9,$2,$3,0*%
%AMHorizOval*
0 Thick line with rounded ends*
0 $1 width*
0 $2 $3 position (X,Y) of the first rounded end (center of the circle)*
0 $4 $5 position (X,Y) of the second rounded end (center of the circle)*
0 Add line between two ends*
20,1,$1,$2,$3,$4,$5,0*
0 Add two circle primitives to create the rounded ends*
1,1,$1,$2,$3*
1,1,$1,$4,$5*%
%AMRotRect*
0 Rectangle, with rotation*
0 The origin of the aperture is its center*
0 $1 length*
0 $2 width*
0 $3 Rotation angle, in degrees counterclockwise*
0 Add horizontal line*
21,1,$1,$2,0,0,$3*%
G04 Aperture macros list end*
G04 #@! TA.AperFunction,SMDPad,CuDef*
%ADD10RoundRect,0.250000X-0.493584X-0.309687X0.130035X-0.567998X0.493584X0.309687X-0.130035X0.567998X0*%
G04 #@! TD*
G04 #@! TA.AperFunction,SMDPad,CuDef*
%ADD11RotRect,1.500000X0.900000X157.500000*%
G04 #@! TD*
G04 #@! TA.AperFunction,SMDPad,CuDef*
%ADD12RotRect,1.500000X0.900000X247.500000*%
G04 #@! TD*
G04 #@! TA.AperFunction,SMDPad,CuDef*
%ADD13RotRect,1.500000X0.900000X202.500000*%
G04 #@! TD*
G04 #@! TA.AperFunction,SMDPad,CuDef*
%ADD14RoundRect,0.250000X0.567998X-0.130035X0.309687X0.493584X-0.567998X0.130035X-0.309687X-0.493584X0*%
G04 #@! TD*
G04 #@! TA.AperFunction,SMDPad,CuDef*
%ADD15RoundRect,0.250000X0.493584X0.309687X-0.130035X0.567998X-0.493584X-0.309687X0.130035X-0.567998X0*%
G04 #@! TD*
G04 #@! TA.AperFunction,SMDPad,CuDef*
%ADD16RoundRect,0.250000X0.130035X0.567998X-0.493584X0.309687X-0.130035X-0.567998X0.493584X-0.309687X0*%
G04 #@! TD*
G04 #@! TA.AperFunction,SMDPad,CuDef*
%ADD17RoundRect,0.250000X-0.309687X0.493584X-0.567998X-0.130035X0.309687X-0.493584X0.567998X0.130035X0*%
G04 #@! TD*
G04 #@! TA.AperFunction,SMDPad,CuDef*
%ADD18RoundRect,0.250000X-0.567998X0.130035X-0.309687X-0.493584X0.567998X-0.130035X0.309687X0.493584X0*%
G04 #@! TD*
G04 #@! TA.AperFunction,SMDPad,CuDef*
%ADD19R,1.300000X1.550000*%
G04 #@! TD*
G04 #@! TA.AperFunction,SMDPad,CuDef*
%ADD20RotRect,1.500000X0.900000X22.500000*%
G04 #@! TD*
G04 #@! TA.AperFunction,SMDPad,CuDef*
%ADD21RotRect,1.500000X0.900000X112.500000*%
G04 #@! TD*
G04 #@! TA.AperFunction,SMDPad,CuDef*
%ADD22RotRect,1.500000X0.900000X292.500000*%
G04 #@! TD*
G04 #@! TA.AperFunction,SMDPad,CuDef*
%ADD23RoundRect,0.250000X0.309687X-0.493584X0.567998X0.130035X-0.309687X0.493584X-0.567998X-0.130035X0*%
G04 #@! TD*
G04 #@! TA.AperFunction,SMDPad,CuDef*
%ADD24RoundRect,0.250000X-0.130035X-0.567998X0.493584X-0.309687X0.130035X0.567998X-0.493584X0.309687X0*%
G04 #@! TD*
G04 #@! TA.AperFunction,SMDPad,CuDef*
%ADD25RotRect,1.500000X0.900000X337.500000*%
G04 #@! TD*
G04 #@! TA.AperFunction,SMDPad,CuDef*
%ADD26RotRect,1.500000X0.900000X67.500000*%
G04 #@! TD*
G04 #@! TA.AperFunction,SMDPad,CuDef*
%ADD27RoundRect,0.237500X-0.008839X-0.344715X0.344715X0.008839X0.008839X0.344715X-0.344715X-0.008839X0*%
G04 #@! TD*
G04 #@! TA.AperFunction,ComponentPad*
%ADD28RotRect,1.700000X1.700000X225.000000*%
G04 #@! TD*
G04 #@! TA.AperFunction,ComponentPad*
%ADD29HorizOval,1.700000X0.000000X0.000000X0.000000X0.000000X0*%
G04 #@! TD*
G04 #@! TA.AperFunction,ComponentPad*
%ADD30O,1.000000X1.800000*%
G04 #@! TD*
G04 #@! TA.AperFunction,ComponentPad*
%ADD31O,1.000000X2.100000*%
G04 #@! TD*
G04 #@! TA.AperFunction,ViaPad*
%ADD32C,0.600000*%
G04 #@! TD*
G04 #@! TA.AperFunction,ViaPad*
%ADD33C,0.800000*%
G04 #@! TD*
G04 #@! TA.AperFunction,Conductor*
%ADD34C,0.500000*%
G04 #@! TD*
G04 #@! TA.AperFunction,Conductor*
%ADD35C,0.200000*%
G04 #@! TD*
G04 #@! TA.AperFunction,Conductor*
%ADD36C,0.800000*%
G04 #@! TD*
G04 APERTURE END LIST*
D10*
X188953687Y-97937803D03*
X190870737Y-98731871D03*
D11*
X156154486Y-81808307D03*
X157417342Y-78759504D03*
X152890332Y-76884355D03*
X151627476Y-79933158D03*
D12*
X167808307Y-103845514D03*
X164759504Y-102582658D03*
X162884355Y-107109668D03*
X165933158Y-108372524D03*
D13*
X157417342Y-95240496D03*
X156154486Y-92191693D03*
X151627476Y-94066842D03*
X152890332Y-97115645D03*
D14*
X169453233Y-67984845D03*
X168659165Y-66067795D03*
D15*
X157046313Y-76062197D03*
X155129263Y-75268129D03*
D16*
X153984845Y-90546767D03*
X152067795Y-91340835D03*
D17*
X162195034Y-103054475D03*
X161400966Y-104971525D03*
D18*
X183966503Y-103022977D03*
X184760571Y-104940027D03*
D19*
X170750000Y-90975000D03*
X170750000Y-83025000D03*
X175250000Y-90975000D03*
X175250000Y-83025000D03*
D20*
X188582658Y-78759504D03*
X189845514Y-81808307D03*
X194372524Y-79933158D03*
X193109668Y-76884355D03*
D21*
X164759504Y-71417342D03*
X167808307Y-70154486D03*
X165933158Y-65627476D03*
X162884355Y-66890332D03*
D22*
X181240496Y-102582658D03*
X178191693Y-103845514D03*
X180066842Y-108372524D03*
X183115645Y-107109668D03*
D23*
X183937803Y-71046313D03*
X184731871Y-69129263D03*
D24*
X192015155Y-83453233D03*
X193932205Y-82659165D03*
D25*
X189845514Y-92191693D03*
X188582658Y-95240496D03*
X193109668Y-97115645D03*
X194372524Y-94066842D03*
D26*
X178191693Y-70154486D03*
X181240496Y-71417342D03*
X183115645Y-66890332D03*
X180066842Y-65627476D03*
D27*
X179430530Y-99588470D03*
X180721000Y-98298000D03*
D28*
X186544949Y-100057949D03*
D29*
X188341000Y-101854000D03*
D30*
X177320000Y-110075000D03*
D31*
X177320000Y-105875000D03*
D30*
X168680000Y-110075000D03*
D31*
X168680000Y-105875000D03*
D32*
X160528000Y-103054475D03*
D33*
X159512000Y-86105999D03*
D32*
X149860000Y-86995001D03*
D33*
X183223000Y-87576000D03*
D32*
X173482000Y-109855000D03*
X187833000Y-91948000D03*
D33*
X184223000Y-87576000D03*
D32*
X171958000Y-109855000D03*
X172720001Y-109855000D03*
D33*
X165989000Y-84836000D03*
D32*
X196850000Y-86233000D03*
D33*
X170687999Y-72390000D03*
X163449000Y-87376000D03*
D32*
X196850000Y-86995001D03*
D33*
X159512000Y-88265000D03*
X165143580Y-97492420D03*
X166580420Y-96055580D03*
D32*
X173228000Y-91059000D03*
X195951974Y-87757000D03*
D33*
X182223000Y-85576000D03*
X159512000Y-89280999D03*
D32*
X187833000Y-91186000D03*
X148961974Y-86995001D03*
D33*
X183223000Y-86576000D03*
D32*
X173482000Y-110753026D03*
X184942815Y-97124185D03*
D33*
X176827580Y-75100580D03*
X169164000Y-84836000D03*
D32*
X186116631Y-97220369D03*
X148961974Y-86233000D03*
D33*
X161036000Y-82423000D03*
D32*
X149860000Y-87757000D03*
X195951974Y-86233000D03*
X173990000Y-91059000D03*
D33*
X160909000Y-93345000D03*
X159512000Y-87249001D03*
X161627420Y-92626580D03*
D32*
X149860000Y-86233000D03*
D33*
X176019356Y-74292356D03*
D32*
X185039000Y-98298000D03*
D33*
X184223000Y-85576000D03*
X177546000Y-75819000D03*
X160190580Y-94063420D03*
X178264420Y-76537420D03*
X182223000Y-86576000D03*
X167005000Y-84836000D03*
X167388644Y-95247356D03*
X168656001Y-72390000D03*
D32*
X172720001Y-110753026D03*
X171958000Y-110753026D03*
X185481631Y-96585369D03*
X184404000Y-97663000D03*
D33*
X167512999Y-72390000D03*
D32*
X195951974Y-86995001D03*
X148961974Y-87757000D03*
D33*
X168021000Y-84836000D03*
D32*
X196850000Y-87757000D03*
D33*
X184223000Y-86576000D03*
X162435644Y-91818356D03*
X183223000Y-85576000D03*
X169672000Y-72390000D03*
X165862000Y-96774000D03*
D32*
X172466000Y-91059000D03*
D33*
X182223000Y-87576000D03*
D32*
X187833000Y-90424000D03*
X185577815Y-97759185D03*
X187717852Y-84540684D03*
X156337000Y-98679000D03*
X158368990Y-98679000D03*
D33*
X153543000Y-84963000D03*
X155448000Y-86868000D03*
X170434000Y-70154486D03*
X174244000Y-68834000D03*
X190119000Y-75819000D03*
X186817000Y-75819000D03*
X192278000Y-87884000D03*
X194183000Y-89789000D03*
D32*
X175133000Y-100202994D03*
X186690000Y-82931000D03*
X185743037Y-84315080D03*
X177038000Y-96266000D03*
X184823997Y-84328000D03*
X182596181Y-94458177D03*
X186817000Y-104521000D03*
X188595000Y-96520000D03*
X172212000Y-93345000D03*
X171958000Y-102295514D03*
X172974000Y-102295514D03*
X172211992Y-94869000D03*
X188214000Y-81661000D03*
X187706000Y-87757000D03*
X185348000Y-88980638D03*
X187452000Y-76962000D03*
X177673000Y-87122000D03*
X176419979Y-92345979D03*
X178435000Y-87757000D03*
X177021021Y-92947021D03*
X181483000Y-91044000D03*
X181042998Y-86106000D03*
D33*
X188480000Y-83973556D03*
X188249957Y-88654705D03*
D32*
X166751000Y-106045000D03*
X169545000Y-103045514D03*
D34*
X169453233Y-67984845D02*
X166612304Y-69161597D01*
X188582658Y-75691168D02*
X188582658Y-78759504D01*
X182995867Y-101855560D02*
X181240495Y-102582658D01*
X192015155Y-83453233D02*
X190838403Y-80612304D01*
X188341000Y-98550490D02*
X188953687Y-97937803D01*
X183583820Y-102099098D02*
X182995867Y-101855560D01*
X167808307Y-103845514D02*
X167234282Y-104419539D01*
X163560098Y-104419539D02*
X162195034Y-103054475D01*
X166612304Y-69161597D02*
X165868159Y-70958121D01*
X155161597Y-93387696D02*
X156958121Y-94131841D01*
X188341000Y-101854000D02*
X187172023Y-103022977D01*
X169453233Y-67984845D02*
X170473845Y-67984845D01*
X157417342Y-101156342D02*
X157417342Y-95240496D01*
X192015155Y-83453233D02*
X193167000Y-84605078D01*
X183937803Y-71046313D02*
X181096874Y-69869562D01*
X155869561Y-78903127D02*
X156613706Y-80699652D01*
X153984845Y-90546767D02*
X155161597Y-93387696D01*
X167234282Y-104419539D02*
X163560098Y-104419539D01*
X189041879Y-79868159D02*
X188582659Y-78759504D01*
X188953687Y-97937803D02*
X190130438Y-95096874D01*
X170473845Y-67984845D02*
X172643486Y-70154486D01*
X190838403Y-80612304D02*
X189041879Y-79868159D01*
X193167000Y-89662000D02*
X190637307Y-92191693D01*
X183966503Y-103022977D02*
X183583820Y-102099098D01*
X167808307Y-103845514D02*
X175681486Y-103845514D01*
X193167000Y-84605078D02*
X193167000Y-89662000D01*
X180666471Y-102008633D02*
X181240496Y-102582658D01*
X156958121Y-94131841D02*
X157417341Y-95240496D01*
X190637307Y-92191693D02*
X189845514Y-92191693D01*
X179300349Y-70613706D02*
X178191694Y-70154486D01*
X156154486Y-84048411D02*
X156154486Y-81808307D01*
X153984845Y-86218052D02*
X156154486Y-84048411D01*
X183937803Y-71046313D02*
X188582658Y-75691168D01*
X162195034Y-103054475D02*
X159315475Y-103054475D01*
X189386294Y-93300349D02*
X189845514Y-92191694D01*
X177518367Y-102008633D02*
X180666471Y-102008633D01*
X190130439Y-95096873D02*
X189386294Y-93300348D01*
X181096873Y-69869561D02*
X179300348Y-70613706D01*
X153984845Y-90546767D02*
X153984845Y-86218052D01*
X172643486Y-70154486D02*
X178191693Y-70154486D01*
X188341000Y-101854000D02*
X188341000Y-98550490D01*
X159315475Y-103054475D02*
X157417342Y-101156342D01*
X156613706Y-80699651D02*
X156154486Y-81808306D01*
X175681486Y-103845514D02*
X177518367Y-102008633D01*
X157046313Y-76062197D02*
X155869562Y-78903126D01*
X165868159Y-70958121D02*
X164759504Y-71417341D01*
X187172023Y-103022977D02*
X183966503Y-103022977D01*
D35*
X168659165Y-66067795D02*
X168276482Y-65143916D01*
X194856084Y-82276482D02*
X195099622Y-81688529D01*
X184731871Y-69129263D02*
X185114554Y-68205383D01*
X161354342Y-104948060D02*
X160971659Y-105871939D01*
X168276482Y-65143916D02*
X167688529Y-64900378D01*
X185114554Y-68205383D02*
X184871016Y-67617430D01*
X161215197Y-106459893D02*
X162970568Y-107186993D01*
X153617430Y-75128984D02*
X152890331Y-76884355D01*
X192382570Y-98871016D02*
X193109669Y-97115645D01*
X181919642Y-106116779D02*
X181175497Y-107913303D01*
X154205383Y-74885446D02*
X153617430Y-75128984D01*
X155129263Y-75268129D02*
X154205383Y-74885446D01*
X150900378Y-92311471D02*
X151627476Y-94066843D01*
X184760571Y-104940027D02*
X181919642Y-106116779D01*
X160971659Y-105871939D02*
X161215197Y-106459893D01*
X151143916Y-91723518D02*
X150900378Y-92311471D01*
X152067795Y-91340835D02*
X151143916Y-91723518D01*
X195099622Y-81688529D02*
X194372524Y-79933157D01*
X181175497Y-107913303D02*
X180066842Y-108372523D01*
X167688529Y-64900378D02*
X165933157Y-65627476D01*
X190870737Y-98731871D02*
X191794617Y-99114554D01*
X184871016Y-67617430D02*
X183115645Y-66890331D01*
X193932205Y-82659165D02*
X194856084Y-82276482D01*
X191794617Y-99114554D02*
X192382570Y-98871016D01*
X187068000Y-85190536D02*
X187717852Y-84540684D01*
X180721000Y-98298000D02*
X187068000Y-91951000D01*
X187068000Y-91951000D02*
X187068000Y-85190536D01*
X154773645Y-97115645D02*
X156337000Y-98679000D01*
X164759504Y-102582658D02*
X160855846Y-98679000D01*
X160855846Y-98679000D02*
X158368990Y-98679000D01*
X152890332Y-97115645D02*
X154773645Y-97115645D01*
X156154486Y-87574486D02*
X155448000Y-86868000D01*
X153543000Y-84963000D02*
X151627476Y-83047476D01*
X151627476Y-83047476D02*
X151627476Y-79933158D01*
X156154486Y-92191693D02*
X156154486Y-87574486D01*
X160274000Y-69500687D02*
X162884355Y-66890332D01*
X160274000Y-75902846D02*
X160274000Y-69500687D01*
X157417342Y-78759504D02*
X160274000Y-75902846D01*
X180066842Y-65627476D02*
X176860318Y-68834000D01*
X176860318Y-68834000D02*
X174244000Y-68834000D01*
X167808307Y-70154486D02*
X170434000Y-70154486D01*
X185642154Y-75819000D02*
X186817000Y-75819000D01*
X190119000Y-75819000D02*
X192044313Y-75819000D01*
X192044313Y-75819000D02*
X193109668Y-76884355D01*
X181240496Y-71417342D02*
X185642154Y-75819000D01*
X194564000Y-90170000D02*
X194564000Y-93875366D01*
X194564000Y-93875366D02*
X194372524Y-94066842D01*
X189845514Y-81808307D02*
X189845514Y-85451514D01*
X194183000Y-89789000D02*
X194564000Y-90170000D01*
X189845514Y-85451514D02*
X192278000Y-87884000D01*
X186690000Y-85115200D02*
X186688000Y-85117200D01*
X182527401Y-95886000D02*
X179449994Y-95886000D01*
X186690000Y-82931000D02*
X186690000Y-85115200D01*
X186688000Y-85117200D02*
X186688000Y-91725401D01*
X179449994Y-95886000D02*
X175133000Y-100202994D01*
X186688000Y-91725401D02*
X182527401Y-95886000D01*
X186308000Y-85274601D02*
X185743037Y-84709638D01*
X177927000Y-95377000D02*
X182499000Y-95377000D01*
X177038000Y-96266000D02*
X177927000Y-95377000D01*
X186308000Y-91567999D02*
X186308000Y-85274601D01*
X185743037Y-84709638D02*
X185743037Y-84315080D01*
X182499000Y-95377000D02*
X186308000Y-91567999D01*
X182880421Y-94458177D02*
X182596181Y-94458177D01*
X185928000Y-91410598D02*
X182880421Y-94458177D01*
X184823997Y-84328000D02*
X185928000Y-85432003D01*
X185928000Y-85432003D02*
X185928000Y-91410598D01*
X188582658Y-95240496D02*
X188582658Y-96507658D01*
X183115645Y-107109668D02*
X184482332Y-107109668D01*
X184482332Y-107109668D02*
X186817000Y-104775000D01*
X188582658Y-96507658D02*
X188595000Y-96520000D01*
X186817000Y-104775000D02*
X186817000Y-104521000D01*
D36*
X171196000Y-94361000D02*
X171196000Y-95377000D01*
X171958000Y-96139000D02*
X171958000Y-102295514D01*
X172212000Y-93345000D02*
X171196000Y-94361000D01*
X171196000Y-95377000D02*
X171958000Y-96139000D01*
X172974000Y-95631008D02*
X172974000Y-102295514D01*
X172211992Y-94869000D02*
X172974000Y-95631008D01*
D35*
X187569957Y-89017957D02*
X187569957Y-87893043D01*
X187569957Y-87893043D02*
X187706000Y-87757000D01*
X188214000Y-82296000D02*
X189230000Y-83312000D01*
X189230000Y-83312000D02*
X189230000Y-88900000D01*
X188087000Y-89535000D02*
X187960000Y-89408000D01*
X187960000Y-89408000D02*
X187569957Y-89017957D01*
X188595000Y-89535000D02*
X188087000Y-89535000D01*
X189230000Y-88900000D02*
X188595000Y-89535000D01*
X188214000Y-81661000D02*
X188214000Y-82296000D01*
X184243997Y-84568244D02*
X184243997Y-80170003D01*
X185348000Y-88980638D02*
X185348000Y-85653000D01*
X184658000Y-84963000D02*
X184638753Y-84963000D01*
X185348000Y-85653000D02*
X184658000Y-84963000D01*
X184243997Y-80170003D02*
X187452000Y-76962000D01*
X184638753Y-84963000D02*
X184243997Y-84568244D01*
X177673000Y-91375800D02*
X176702822Y-92345979D01*
X177673000Y-87122000D02*
X177673000Y-91375800D01*
X176702822Y-92345979D02*
X176419979Y-92345979D01*
X178435000Y-87757000D02*
X178123001Y-88068999D01*
X177021021Y-92664178D02*
X177021021Y-92947021D01*
X178123001Y-91562199D02*
X177021021Y-92664178D01*
X178123001Y-88068999D02*
X178123001Y-91562199D01*
X170750000Y-90975000D02*
X170750000Y-83025000D01*
X181483000Y-89916000D02*
X181483000Y-91044000D01*
X173450000Y-85725000D02*
X177292000Y-85725000D01*
X177292000Y-85725000D02*
X181483000Y-89916000D01*
X170750000Y-83025000D02*
X173450000Y-85725000D01*
X188249957Y-88654705D02*
X188651972Y-88252690D01*
X188651972Y-88252690D02*
X188651972Y-84145528D01*
X188651972Y-84145528D02*
X188480000Y-83973556D01*
X177214890Y-101219000D02*
X175388376Y-103045514D01*
X165933158Y-106862842D02*
X166497000Y-106299000D01*
X166497000Y-106299000D02*
X166751000Y-106045000D01*
X165933158Y-108372524D02*
X165933158Y-106862842D01*
X175388376Y-103045514D02*
X169545000Y-103045514D01*
X177800000Y-101219000D02*
X177214890Y-101219000D01*
X179430530Y-99588470D02*
X177800000Y-101219000D01*
G04 #@! TA.AperFunction,Conductor*
G36*
X190035703Y-86491384D02*
G01*
X190042181Y-86497416D01*
X191336221Y-87791456D01*
X191369706Y-87852779D01*
X191372540Y-87879137D01*
X191372540Y-87883997D01*
X191372540Y-87884000D01*
X191392326Y-88072256D01*
X191392327Y-88072259D01*
X191450818Y-88252277D01*
X191450821Y-88252284D01*
X191545467Y-88416216D01*
X191672129Y-88556888D01*
X191825265Y-88668148D01*
X191825270Y-88668151D01*
X191998192Y-88745142D01*
X191998197Y-88745144D01*
X192183354Y-88784500D01*
X192183355Y-88784500D01*
X192292500Y-88784500D01*
X192359539Y-88804185D01*
X192405294Y-88856989D01*
X192416500Y-88908500D01*
X192416500Y-89299769D01*
X192396815Y-89366808D01*
X192380181Y-89387450D01*
X190440962Y-91326668D01*
X190379639Y-91360153D01*
X190309947Y-91355169D01*
X190305828Y-91353548D01*
X190277113Y-91341654D01*
X189603122Y-91062478D01*
X189472122Y-91008216D01*
X189472121Y-91008215D01*
X189472117Y-91008214D01*
X189414591Y-90991322D01*
X189405599Y-90991000D01*
X189270763Y-90986184D01*
X189270756Y-90986185D01*
X189131310Y-91021777D01*
X189007535Y-91095216D01*
X189007530Y-91095220D01*
X188909466Y-91200548D01*
X188909463Y-91200552D01*
X188880732Y-91253166D01*
X188499678Y-92173116D01*
X188482783Y-92230649D01*
X188477646Y-92374474D01*
X188477647Y-92374481D01*
X188509603Y-92499680D01*
X188513240Y-92513929D01*
X188586679Y-92637704D01*
X188586681Y-92637706D01*
X188586682Y-92637707D01*
X188692010Y-92735771D01*
X188692013Y-92735773D01*
X188692015Y-92735775D01*
X188692017Y-92735776D01*
X188698300Y-92740306D01*
X188696933Y-92742200D01*
X188738099Y-92783365D01*
X188752951Y-92851638D01*
X188743828Y-92890246D01*
X188717302Y-92954285D01*
X188709217Y-92970384D01*
X188696907Y-92991008D01*
X188696906Y-92991009D01*
X188682006Y-93038265D01*
X188678314Y-93048412D01*
X188676195Y-93053527D01*
X188676193Y-93053533D01*
X188667740Y-93083336D01*
X188666708Y-93086783D01*
X188644152Y-93158323D01*
X188642795Y-93165417D01*
X188642737Y-93165406D01*
X188641426Y-93172839D01*
X188641485Y-93172849D01*
X188640334Y-93179975D01*
X188637061Y-93254928D01*
X188636851Y-93258524D01*
X188631404Y-93333304D01*
X188631720Y-93340523D01*
X188631660Y-93340525D01*
X188632098Y-93348047D01*
X188632157Y-93348043D01*
X188632682Y-93355253D01*
X188646782Y-93428938D01*
X188647408Y-93432487D01*
X188659352Y-93506504D01*
X188661324Y-93513458D01*
X188661267Y-93513473D01*
X188663429Y-93520695D01*
X188663485Y-93520678D01*
X188665656Y-93527564D01*
X188680271Y-93560134D01*
X188696370Y-93596011D01*
X188697786Y-93599294D01*
X188913262Y-94119501D01*
X188920731Y-94188971D01*
X188889456Y-94251450D01*
X188829367Y-94287102D01*
X188759542Y-94284608D01*
X188751253Y-94281517D01*
X188277815Y-94085413D01*
X188209266Y-94057019D01*
X188209265Y-94057018D01*
X188209261Y-94057017D01*
X188151735Y-94040125D01*
X188142743Y-94039803D01*
X188007907Y-94034987D01*
X188007900Y-94034988D01*
X187868454Y-94070580D01*
X187744679Y-94144019D01*
X187744674Y-94144023D01*
X187646610Y-94249351D01*
X187646607Y-94249355D01*
X187617876Y-94301969D01*
X187236822Y-95221919D01*
X187219927Y-95279452D01*
X187214790Y-95423277D01*
X187214791Y-95423284D01*
X187248942Y-95557083D01*
X187250384Y-95562732D01*
X187323823Y-95686507D01*
X187323825Y-95686509D01*
X187323826Y-95686510D01*
X187429154Y-95784574D01*
X187429157Y-95784576D01*
X187429159Y-95784578D01*
X187447871Y-95794796D01*
X187481772Y-95813308D01*
X187481778Y-95813310D01*
X187481779Y-95813311D01*
X187831608Y-95958214D01*
X187886010Y-96002055D01*
X187908075Y-96068349D01*
X187890796Y-96136048D01*
X187889149Y-96138746D01*
X187869211Y-96170477D01*
X187809631Y-96340745D01*
X187809630Y-96340750D01*
X187789435Y-96519996D01*
X187789435Y-96520003D01*
X187809630Y-96699249D01*
X187809631Y-96699254D01*
X187869211Y-96869523D01*
X187965184Y-97022262D01*
X188041010Y-97098088D01*
X188074495Y-97159411D01*
X188069511Y-97229103D01*
X188067890Y-97233221D01*
X187747595Y-98006485D01*
X187747592Y-98006493D01*
X187716018Y-98111956D01*
X187715457Y-98111788D01*
X187701616Y-98147769D01*
X187697888Y-98153813D01*
X187666192Y-98221784D01*
X187664623Y-98225026D01*
X187630957Y-98292062D01*
X187628488Y-98298847D01*
X187628432Y-98298826D01*
X187625960Y-98305940D01*
X187626015Y-98305959D01*
X187623743Y-98312815D01*
X187608573Y-98386278D01*
X187607793Y-98389794D01*
X187590499Y-98462769D01*
X187589661Y-98469944D01*
X187589601Y-98469937D01*
X187588835Y-98477435D01*
X187588895Y-98477441D01*
X187588265Y-98484630D01*
X187590448Y-98559618D01*
X187590500Y-98563225D01*
X187590500Y-99226842D01*
X187570815Y-99293881D01*
X187518011Y-99339636D01*
X187466500Y-99350842D01*
X187464186Y-99350842D01*
X186989763Y-99825265D01*
X186926710Y-99727151D01*
X186818049Y-99632997D01*
X186776667Y-99614098D01*
X187252055Y-99138710D01*
X187252055Y-99138709D01*
X186725412Y-98612067D01*
X186725401Y-98612057D01*
X186705612Y-98596382D01*
X186601030Y-98555867D01*
X186488869Y-98555867D01*
X186384283Y-98596384D01*
X186364492Y-98612059D01*
X186364488Y-98612063D01*
X185837842Y-99138710D01*
X186313230Y-99614098D01*
X186271849Y-99632997D01*
X186163188Y-99727151D01*
X186100133Y-99825265D01*
X185625710Y-99350842D01*
X185625709Y-99350842D01*
X185099065Y-99877486D01*
X185083382Y-99897285D01*
X185042867Y-100001868D01*
X185042867Y-100114028D01*
X185083384Y-100218614D01*
X185099059Y-100238405D01*
X185099063Y-100238409D01*
X185625710Y-100765055D01*
X186100133Y-100290632D01*
X186163188Y-100388747D01*
X186271849Y-100482901D01*
X186313230Y-100501799D01*
X185837842Y-100977186D01*
X185837842Y-100977187D01*
X186364485Y-101503830D01*
X186364496Y-101503840D01*
X186384285Y-101519515D01*
X186488868Y-101560031D01*
X186601029Y-101560031D01*
X186705614Y-101519513D01*
X186725402Y-101503840D01*
X186823389Y-101405853D01*
X186884712Y-101372368D01*
X186954404Y-101377352D01*
X187010338Y-101419223D01*
X187034755Y-101484687D01*
X187030846Y-101525626D01*
X187005939Y-101618583D01*
X187005936Y-101618596D01*
X186985341Y-101853999D01*
X186985341Y-101854001D01*
X187003977Y-102067011D01*
X186990210Y-102135511D01*
X186968131Y-102165498D01*
X186897474Y-102236157D01*
X186836152Y-102269643D01*
X186809792Y-102272477D01*
X185064961Y-102272477D01*
X184997922Y-102252792D01*
X184952167Y-102199988D01*
X184950440Y-102196024D01*
X184950430Y-102196004D01*
X184950424Y-102195988D01*
X184933984Y-102165498D01*
X184901388Y-102105043D01*
X184901386Y-102105040D01*
X184786671Y-101972299D01*
X184644440Y-101869591D01*
X184644438Y-101869590D01*
X184482351Y-101802452D01*
X184482349Y-101802451D01*
X184482344Y-101802450D01*
X184318006Y-101775932D01*
X184254959Y-101745820D01*
X184227771Y-101710774D01*
X184209017Y-101674747D01*
X184209015Y-101674745D01*
X184209015Y-101674744D01*
X184204962Y-101668773D01*
X184205012Y-101668738D01*
X184200688Y-101662563D01*
X184200639Y-101662599D01*
X184196413Y-101656747D01*
X184196411Y-101656744D01*
X184196410Y-101656743D01*
X184145717Y-101601421D01*
X184143355Y-101598767D01*
X184094302Y-101542005D01*
X184094301Y-101542004D01*
X184088980Y-101537128D01*
X184089020Y-101537083D01*
X184083392Y-101532074D01*
X184083353Y-101532120D01*
X184077880Y-101527390D01*
X184015820Y-101485266D01*
X184012867Y-101483199D01*
X183952065Y-101439294D01*
X183945762Y-101435776D01*
X183945790Y-101435724D01*
X183939159Y-101432148D01*
X183939132Y-101432201D01*
X183932726Y-101428866D01*
X183862610Y-101402184D01*
X183859260Y-101400853D01*
X183341930Y-101186569D01*
X183325828Y-101178482D01*
X183305207Y-101166173D01*
X183305203Y-101166171D01*
X183257959Y-101151275D01*
X183247814Y-101147584D01*
X183242690Y-101145462D01*
X183212905Y-101137015D01*
X183209453Y-101135981D01*
X183137887Y-101113416D01*
X183130801Y-101112061D01*
X183130811Y-101112003D01*
X183123379Y-101110692D01*
X183123370Y-101110751D01*
X183116243Y-101109601D01*
X183041311Y-101106329D01*
X183037710Y-101106119D01*
X182962906Y-101100669D01*
X182955692Y-101100984D01*
X182955689Y-101100926D01*
X182948165Y-101101364D01*
X182948170Y-101101423D01*
X182940967Y-101101948D01*
X182940966Y-101101948D01*
X182921775Y-101105620D01*
X182867308Y-101116042D01*
X182863762Y-101116667D01*
X182789702Y-101128619D01*
X182782761Y-101130588D01*
X182782745Y-101130533D01*
X182775518Y-101132697D01*
X182775536Y-101132752D01*
X182768650Y-101134923D01*
X182700240Y-101165619D01*
X182696930Y-101167047D01*
X181939050Y-101480971D01*
X181869580Y-101488440D01*
X181807101Y-101457165D01*
X181789834Y-101434938D01*
X181789119Y-101435455D01*
X181784578Y-101429159D01*
X181686513Y-101323828D01*
X181686508Y-101323824D01*
X181686507Y-101323823D01*
X181562732Y-101250384D01*
X181562731Y-101250383D01*
X181562730Y-101250383D01*
X181423284Y-101214791D01*
X181423277Y-101214790D01*
X181279453Y-101219927D01*
X181279449Y-101219928D01*
X181221915Y-101236822D01*
X181044154Y-101310453D01*
X180974685Y-101317922D01*
X180941055Y-101306704D01*
X180924904Y-101298593D01*
X180924902Y-101298592D01*
X180924897Y-101298590D01*
X180918116Y-101296122D01*
X180918136Y-101296066D01*
X180911020Y-101293592D01*
X180911002Y-101293648D01*
X180904145Y-101291376D01*
X180830681Y-101276206D01*
X180827164Y-101275426D01*
X180754189Y-101258132D01*
X180747018Y-101257294D01*
X180747024Y-101257234D01*
X180739526Y-101256468D01*
X180739521Y-101256528D01*
X180732331Y-101255898D01*
X180657341Y-101258081D01*
X180653734Y-101258133D01*
X178909464Y-101258133D01*
X178842425Y-101238448D01*
X178796670Y-101185644D01*
X178786726Y-101116486D01*
X178815751Y-101052930D01*
X178821783Y-101046452D01*
X179077516Y-100790718D01*
X179174628Y-100693605D01*
X179235949Y-100660122D01*
X179290901Y-100660630D01*
X179335431Y-100671185D01*
X179335432Y-100671185D01*
X179507948Y-100671185D01*
X179507951Y-100671185D01*
X179675820Y-100631399D01*
X179829989Y-100553973D01*
X179908763Y-100489803D01*
X180331861Y-100066703D01*
X180396033Y-99987929D01*
X180473459Y-99833760D01*
X180513245Y-99665891D01*
X180513245Y-99504715D01*
X180532930Y-99437676D01*
X180585734Y-99391921D01*
X180637245Y-99380715D01*
X180798418Y-99380715D01*
X180798421Y-99380715D01*
X180966290Y-99340929D01*
X181120459Y-99263503D01*
X181199233Y-99199333D01*
X181622331Y-98776233D01*
X181686503Y-98697459D01*
X181763929Y-98543290D01*
X181803715Y-98375421D01*
X181803715Y-98202901D01*
X181793161Y-98158372D01*
X181796853Y-98088604D01*
X181826135Y-98042098D01*
X187459044Y-92409190D01*
X187471230Y-92398503D01*
X187496282Y-92379282D01*
X187499969Y-92374477D01*
X187521836Y-92345981D01*
X187546466Y-92313881D01*
X187592536Y-92253841D01*
X187653044Y-92107762D01*
X187673682Y-91951000D01*
X187672136Y-91939260D01*
X187669561Y-91919697D01*
X187668500Y-91903512D01*
X187668500Y-90197207D01*
X187688185Y-90130168D01*
X187740989Y-90084413D01*
X187810147Y-90074469D01*
X187839948Y-90082644D01*
X187930238Y-90120044D01*
X187993830Y-90128416D01*
X188086999Y-90140682D01*
X188087000Y-90140682D01*
X188118302Y-90136560D01*
X188134487Y-90135500D01*
X188547513Y-90135500D01*
X188563697Y-90136560D01*
X188595000Y-90140682D01*
X188595001Y-90140682D01*
X188674862Y-90130168D01*
X188751762Y-90120044D01*
X188897841Y-90059536D01*
X188898927Y-90058701D01*
X188898967Y-90058686D01*
X188898960Y-90058677D01*
X188958176Y-90013239D01*
X189023282Y-89963282D01*
X189042509Y-89938223D01*
X189053190Y-89926043D01*
X189621043Y-89358190D01*
X189633223Y-89347509D01*
X189658282Y-89328282D01*
X189754536Y-89202841D01*
X189815044Y-89056762D01*
X189822923Y-88996912D01*
X189835682Y-88900000D01*
X189831561Y-88868697D01*
X189830500Y-88852512D01*
X189830500Y-86585097D01*
X189850185Y-86518058D01*
X189902989Y-86472303D01*
X189972147Y-86462359D01*
X190035703Y-86491384D01*
G37*
G04 #@! TD.AperFunction*
G04 #@! TA.AperFunction,Conductor*
G36*
X173419443Y-62005447D02*
G01*
X173521542Y-62006469D01*
X173525103Y-62006558D01*
X174407597Y-62041670D01*
X174408602Y-62041715D01*
X174517154Y-62047150D01*
X174520600Y-62047374D01*
X175395009Y-62117066D01*
X175396005Y-62117151D01*
X175510217Y-62127463D01*
X175513762Y-62127835D01*
X176379181Y-62231574D01*
X176379960Y-62231671D01*
X176499382Y-62247292D01*
X176502781Y-62247787D01*
X177357964Y-62384978D01*
X177359003Y-62385150D01*
X177482967Y-62406441D01*
X177486320Y-62407067D01*
X178330277Y-62577122D01*
X178331399Y-62577355D01*
X178459361Y-62604643D01*
X178462690Y-62605402D01*
X179294534Y-62807737D01*
X179295725Y-62808034D01*
X179427083Y-62841593D01*
X179430314Y-62842467D01*
X180249042Y-63076450D01*
X180250289Y-63076815D01*
X180384626Y-63116924D01*
X180387778Y-63117913D01*
X181192574Y-63382950D01*
X181193621Y-63383302D01*
X181330274Y-63430135D01*
X181333490Y-63431287D01*
X181737542Y-63582406D01*
X182123208Y-63726650D01*
X182124455Y-63727125D01*
X182262816Y-63780820D01*
X182265863Y-63782050D01*
X182934489Y-64062906D01*
X183039596Y-64107057D01*
X183041025Y-64107668D01*
X183180614Y-64168372D01*
X183183594Y-64169716D01*
X183940521Y-64523695D01*
X183941734Y-64524272D01*
X184082196Y-64592163D01*
X184085097Y-64593613D01*
X184824251Y-64975802D01*
X184825528Y-64976473D01*
X184966157Y-65051528D01*
X184968966Y-65053076D01*
X185660252Y-65446104D01*
X185689488Y-65462726D01*
X185690896Y-65463539D01*
X185831064Y-65545717D01*
X185833839Y-65547393D01*
X186525128Y-65977661D01*
X186534826Y-65983697D01*
X186536187Y-65984557D01*
X186675650Y-66074005D01*
X186678273Y-66075736D01*
X187359060Y-66538002D01*
X187360386Y-66538917D01*
X187362143Y-66540146D01*
X187498419Y-66635455D01*
X187501033Y-66637334D01*
X187620613Y-66725675D01*
X188160567Y-67124574D01*
X188161865Y-67125547D01*
X188298239Y-67229290D01*
X188300711Y-67231222D01*
X188938395Y-67742728D01*
X188939678Y-67743772D01*
X189050952Y-67835676D01*
X189073649Y-67854422D01*
X189076047Y-67856454D01*
X189537994Y-68258198D01*
X189691032Y-68391291D01*
X189692386Y-68392486D01*
X189823566Y-68509969D01*
X189825868Y-68512083D01*
X190417440Y-69069380D01*
X190418767Y-69070650D01*
X190546774Y-69194871D01*
X190548968Y-69197053D01*
X190707272Y-69358536D01*
X191116436Y-69775918D01*
X191117633Y-69777158D01*
X191242106Y-69908018D01*
X191244177Y-69910250D01*
X191692754Y-70405797D01*
X191786765Y-70509651D01*
X191788029Y-70511070D01*
X191908461Y-70648282D01*
X191910432Y-70650583D01*
X192196027Y-70992472D01*
X192421103Y-71261914D01*
X192427520Y-71269595D01*
X192428747Y-71271088D01*
X192544775Y-71414469D01*
X192546634Y-71416823D01*
X193037649Y-72054536D01*
X193038834Y-72056101D01*
X193150050Y-72205375D01*
X193151794Y-72207775D01*
X193616161Y-72863226D01*
X193617174Y-72864679D01*
X193723334Y-73019750D01*
X193724940Y-73022159D01*
X194162000Y-73694197D01*
X194163091Y-73695904D01*
X194263677Y-73856239D01*
X194265192Y-73858718D01*
X194674496Y-74546438D01*
X194675533Y-74548214D01*
X194770264Y-74713564D01*
X194771664Y-74716074D01*
X195152727Y-75418460D01*
X195153707Y-75420304D01*
X195242288Y-75590350D01*
X195243573Y-75592886D01*
X195595900Y-76308829D01*
X195596819Y-76310739D01*
X195679045Y-76485296D01*
X195680214Y-76487853D01*
X196003308Y-77216133D01*
X196004164Y-77218107D01*
X196079778Y-77396850D01*
X196080832Y-77399422D01*
X196374370Y-78139094D01*
X196375157Y-78141130D01*
X196443874Y-78323592D01*
X196444814Y-78326174D01*
X196708427Y-79076117D01*
X196709143Y-79078213D01*
X196770762Y-79264055D01*
X196771589Y-79266643D01*
X197004957Y-80025755D01*
X197005597Y-80027906D01*
X197059955Y-80216837D01*
X197060656Y-80219378D01*
X197263472Y-80986453D01*
X197264033Y-80988659D01*
X197310941Y-81180242D01*
X197311545Y-81182827D01*
X197483582Y-81956816D01*
X197484062Y-81959073D01*
X197523369Y-82152876D01*
X197523863Y-82155452D01*
X197664911Y-82935213D01*
X197665306Y-82937520D01*
X197696893Y-83133150D01*
X197697279Y-83135712D01*
X197807171Y-83920155D01*
X197807477Y-83922506D01*
X197831238Y-84119457D01*
X197831519Y-84122001D01*
X197910111Y-84909911D01*
X197910326Y-84912305D01*
X197926220Y-85110457D01*
X197926396Y-85112979D01*
X197973579Y-85903029D01*
X197973701Y-85905460D01*
X197981662Y-86104267D01*
X197981736Y-86106763D01*
X197999450Y-86997534D01*
X197999450Y-87002464D01*
X197981736Y-87893235D01*
X197981662Y-87895731D01*
X197973703Y-88094496D01*
X197973581Y-88096927D01*
X197926396Y-88887019D01*
X197926220Y-88889541D01*
X197910326Y-89087693D01*
X197910111Y-89090087D01*
X197831519Y-89877997D01*
X197831238Y-89880541D01*
X197807477Y-90077492D01*
X197807171Y-90079843D01*
X197697279Y-90864286D01*
X197696893Y-90866848D01*
X197665306Y-91062478D01*
X197664911Y-91064785D01*
X197523863Y-91844546D01*
X197523369Y-91847122D01*
X197484062Y-92040925D01*
X197483582Y-92043182D01*
X197311545Y-92817171D01*
X197310941Y-92819756D01*
X197264033Y-93011339D01*
X197263472Y-93013545D01*
X197060670Y-93780571D01*
X197059955Y-93783161D01*
X197005597Y-93972092D01*
X197004957Y-93974243D01*
X196771589Y-94733355D01*
X196770762Y-94735943D01*
X196709143Y-94921785D01*
X196708427Y-94923881D01*
X196444814Y-95673824D01*
X196443874Y-95676406D01*
X196375157Y-95858868D01*
X196374370Y-95860904D01*
X196080832Y-96600576D01*
X196079778Y-96603148D01*
X196004164Y-96781891D01*
X196003308Y-96783865D01*
X195680214Y-97512145D01*
X195679045Y-97514702D01*
X195596819Y-97689259D01*
X195595900Y-97691169D01*
X195243573Y-98407112D01*
X195242288Y-98409648D01*
X195153707Y-98579694D01*
X195152727Y-98581538D01*
X194771664Y-99283924D01*
X194770264Y-99286434D01*
X194675533Y-99451784D01*
X194674496Y-99453560D01*
X194265192Y-100141280D01*
X194263677Y-100143759D01*
X194163091Y-100304094D01*
X194162000Y-100305801D01*
X193724940Y-100977839D01*
X193723311Y-100980282D01*
X193617245Y-101135218D01*
X193616104Y-101136855D01*
X193151794Y-101792223D01*
X193150050Y-101794623D01*
X193038834Y-101943897D01*
X193037649Y-101945462D01*
X192546634Y-102583175D01*
X192544775Y-102585529D01*
X192428747Y-102728910D01*
X192427520Y-102730403D01*
X191910432Y-103349415D01*
X191908461Y-103351716D01*
X191788029Y-103488928D01*
X191786765Y-103490347D01*
X191244189Y-104089735D01*
X191242106Y-104091980D01*
X191117684Y-104222788D01*
X191116386Y-104224132D01*
X190548968Y-104802945D01*
X190546774Y-104805127D01*
X190418767Y-104929348D01*
X190417440Y-104930618D01*
X189825868Y-105487915D01*
X189823566Y-105490029D01*
X189692386Y-105607512D01*
X189691032Y-105608707D01*
X189076057Y-106143535D01*
X189073649Y-106145576D01*
X188939723Y-106256189D01*
X188938347Y-106257309D01*
X188300731Y-106768761D01*
X188298219Y-106770724D01*
X188161911Y-106874417D01*
X188160516Y-106875462D01*
X187501033Y-107362664D01*
X187498419Y-107364543D01*
X187360429Y-107461051D01*
X187359020Y-107462023D01*
X186678308Y-107924239D01*
X186675594Y-107926030D01*
X186536246Y-108015404D01*
X186534826Y-108016301D01*
X185833855Y-108452595D01*
X185831046Y-108454292D01*
X185690916Y-108536447D01*
X185689488Y-108537272D01*
X184969012Y-108946897D01*
X184966110Y-108948496D01*
X184825602Y-109023486D01*
X184824170Y-109024238D01*
X184085142Y-109406362D01*
X184082150Y-109407858D01*
X183941840Y-109475675D01*
X183940408Y-109476356D01*
X183183643Y-109830259D01*
X183180565Y-109831648D01*
X183041025Y-109892330D01*
X183039596Y-109892941D01*
X182265918Y-110217925D01*
X182262758Y-110219201D01*
X182124572Y-110272828D01*
X182123148Y-110273371D01*
X181333490Y-110568711D01*
X181330254Y-110569870D01*
X181193833Y-110616624D01*
X181192418Y-110617100D01*
X180387857Y-110882060D01*
X180384545Y-110883099D01*
X180250371Y-110923159D01*
X180248970Y-110923569D01*
X179430388Y-111157511D01*
X179427007Y-111158425D01*
X179295823Y-111191939D01*
X179294437Y-111192285D01*
X178462748Y-111394582D01*
X178459303Y-111395368D01*
X178331525Y-111422617D01*
X178330156Y-111422901D01*
X177486395Y-111592917D01*
X177482891Y-111593571D01*
X177359148Y-111614823D01*
X177357800Y-111615047D01*
X176502860Y-111752199D01*
X176499302Y-111752717D01*
X176380209Y-111768295D01*
X176378884Y-111768461D01*
X175513792Y-111872159D01*
X175510185Y-111872538D01*
X175396145Y-111882835D01*
X175394846Y-111882945D01*
X174520705Y-111952617D01*
X174517052Y-111952854D01*
X174408718Y-111958277D01*
X174407449Y-111958334D01*
X173525168Y-111993438D01*
X173521480Y-111993530D01*
X173420022Y-111994546D01*
X173419443Y-111994552D01*
X173418203Y-111994558D01*
X172528756Y-111994558D01*
X172525035Y-111994502D01*
X172521585Y-111994398D01*
X172429940Y-111991646D01*
X172428733Y-111991604D01*
X171533123Y-111955970D01*
X171529375Y-111955764D01*
X171441585Y-111949605D01*
X171440411Y-111949517D01*
X170539784Y-111877736D01*
X170536021Y-111877378D01*
X170529536Y-111876662D01*
X170456200Y-111868557D01*
X170455063Y-111868426D01*
X169550323Y-111759975D01*
X169546540Y-111759462D01*
X169475240Y-111748680D01*
X169474140Y-111748509D01*
X168566352Y-111602880D01*
X168562561Y-111602211D01*
X168500191Y-111590209D01*
X168499130Y-111590000D01*
X167589394Y-111406691D01*
X167585604Y-111405865D01*
X167532839Y-111393504D01*
X167531815Y-111393260D01*
X166621030Y-111171725D01*
X166617242Y-111170740D01*
X166574543Y-111158915D01*
X166573564Y-111158640D01*
X165662780Y-110898349D01*
X165659008Y-110897205D01*
X165626812Y-110886886D01*
X165625871Y-110886581D01*
X164716158Y-110586992D01*
X164712410Y-110585690D01*
X164691281Y-110577974D01*
X164690377Y-110577640D01*
X164536077Y-110519930D01*
X167880000Y-110519930D01*
X167895122Y-110654141D01*
X167954663Y-110824301D01*
X168050577Y-110976948D01*
X168178051Y-111104422D01*
X168330698Y-111200336D01*
X168500855Y-111259876D01*
X168530000Y-111263159D01*
X168530000Y-110737657D01*
X168543962Y-110748201D01*
X168651840Y-110778895D01*
X168763521Y-110768546D01*
X168830000Y-110735443D01*
X168830000Y-111263159D01*
X168859144Y-111259876D01*
X169029301Y-111200336D01*
X169181948Y-111104422D01*
X169309422Y-110976948D01*
X169405336Y-110824301D01*
X169464877Y-110654141D01*
X169479999Y-110519930D01*
X169480000Y-110519930D01*
X176520000Y-110519930D01*
X176535122Y-110654141D01*
X176594663Y-110824301D01*
X176690577Y-110976948D01*
X176818051Y-111104422D01*
X176970698Y-111200336D01*
X177140855Y-111259876D01*
X177170000Y-111263159D01*
X177170000Y-110737657D01*
X177183962Y-110748201D01*
X177291840Y-110778895D01*
X177403521Y-110768546D01*
X177470000Y-110735443D01*
X177470000Y-111263159D01*
X177499144Y-111259876D01*
X177669301Y-111200336D01*
X177821948Y-111104422D01*
X177949422Y-110976948D01*
X178045336Y-110824301D01*
X178104877Y-110654141D01*
X178119999Y-110519930D01*
X178120000Y-110519930D01*
X178120000Y-110225000D01*
X177620000Y-110225000D01*
X177620000Y-109925000D01*
X178120000Y-109925000D01*
X178120000Y-109630070D01*
X178119999Y-109630069D01*
X178104877Y-109495858D01*
X178045336Y-109325698D01*
X177949422Y-109173051D01*
X177821948Y-109045577D01*
X177669302Y-108949663D01*
X177499143Y-108890123D01*
X177499139Y-108890122D01*
X177470000Y-108886839D01*
X177470000Y-109412342D01*
X177456038Y-109401799D01*
X177348160Y-109371105D01*
X177236479Y-109381454D01*
X177170000Y-109414556D01*
X177170000Y-108886839D01*
X177140860Y-108890122D01*
X177140856Y-108890123D01*
X176970697Y-108949663D01*
X176818051Y-109045577D01*
X176690577Y-109173051D01*
X176594663Y-109325698D01*
X176535122Y-109495858D01*
X176520000Y-109630069D01*
X176520000Y-109925000D01*
X177020000Y-109925000D01*
X177020000Y-110225000D01*
X176520000Y-110225000D01*
X176520000Y-110519930D01*
X169480000Y-110519930D01*
X169480000Y-110225000D01*
X168980000Y-110225000D01*
X168980000Y-109925000D01*
X169480000Y-109925000D01*
X169480000Y-109630070D01*
X169479999Y-109630069D01*
X169464877Y-109495858D01*
X169405336Y-109325698D01*
X169309422Y-109173051D01*
X169181948Y-109045577D01*
X169029302Y-108949663D01*
X168859143Y-108890123D01*
X168859139Y-108890122D01*
X168830000Y-108886839D01*
X168830000Y-109412342D01*
X168816038Y-109401799D01*
X168708160Y-109371105D01*
X168596479Y-109381454D01*
X168530000Y-109414556D01*
X168530000Y-108886839D01*
X168500860Y-108890122D01*
X168500856Y-108890123D01*
X168330697Y-108949663D01*
X168178051Y-109045577D01*
X168050577Y-109173051D01*
X167954663Y-109325698D01*
X167895122Y-109495858D01*
X167880000Y-109630069D01*
X167880000Y-109925000D01*
X168380000Y-109925000D01*
X168380000Y-110225000D01*
X167880000Y-110225000D01*
X167880000Y-110519930D01*
X164536077Y-110519930D01*
X163782712Y-110238162D01*
X163778990Y-110236702D01*
X163769533Y-110232813D01*
X163768672Y-110232455D01*
X162864332Y-109852588D01*
X162859825Y-109850588D01*
X161963819Y-109431568D01*
X161959395Y-109429391D01*
X161080747Y-108975075D01*
X161076413Y-108972724D01*
X160216506Y-108483827D01*
X160212269Y-108481305D01*
X160149026Y-108441942D01*
X159659320Y-108137142D01*
X162621119Y-108137142D01*
X162621120Y-108137143D01*
X162939667Y-108269089D01*
X162963944Y-108275999D01*
X162963953Y-108276000D01*
X163076080Y-108273411D01*
X163179707Y-108230487D01*
X163260823Y-108153034D01*
X163260823Y-108153033D01*
X163273104Y-108130986D01*
X163273111Y-108130973D01*
X163519862Y-107535261D01*
X163519861Y-107535260D01*
X162965534Y-107305650D01*
X162965533Y-107305651D01*
X162621119Y-108137142D01*
X159659320Y-108137142D01*
X159372503Y-107958623D01*
X159368372Y-107955937D01*
X158816544Y-107581235D01*
X161880381Y-107581235D01*
X161882970Y-107693362D01*
X161925892Y-107796984D01*
X161925895Y-107796989D01*
X162003348Y-107878104D01*
X162025395Y-107890385D01*
X162025409Y-107890392D01*
X162343955Y-108022338D01*
X162343956Y-108022337D01*
X162688371Y-107190847D01*
X162688370Y-107190846D01*
X162296401Y-107028487D01*
X163080337Y-107028487D01*
X163080338Y-107028488D01*
X163634665Y-107258098D01*
X163634666Y-107258097D01*
X163881417Y-106662386D01*
X163888327Y-106638109D01*
X163888328Y-106638100D01*
X163885739Y-106525973D01*
X163842817Y-106422351D01*
X163842814Y-106422346D01*
X163765361Y-106341231D01*
X163743314Y-106328950D01*
X163743300Y-106328943D01*
X163424754Y-106196997D01*
X163424753Y-106196997D01*
X163080337Y-107028487D01*
X162296401Y-107028487D01*
X162134043Y-106961236D01*
X162134042Y-106961237D01*
X161887293Y-107556945D01*
X161887293Y-107556946D01*
X161880382Y-107581226D01*
X161880381Y-107581235D01*
X158816544Y-107581235D01*
X158550015Y-107400257D01*
X158545992Y-107397406D01*
X157750413Y-106809661D01*
X157746506Y-106806653D01*
X157593688Y-106684073D01*
X162248846Y-106684073D01*
X162248847Y-106684074D01*
X162803174Y-106913684D01*
X162803175Y-106913683D01*
X163147589Y-106082192D01*
X163147588Y-106082191D01*
X162829042Y-105950246D01*
X162804765Y-105943336D01*
X162804756Y-105943335D01*
X162692629Y-105945924D01*
X162589002Y-105988848D01*
X162507886Y-106066301D01*
X162507886Y-106066302D01*
X162495605Y-106088349D01*
X162495598Y-106088363D01*
X162248846Y-106684073D01*
X157593688Y-106684073D01*
X156974892Y-106187717D01*
X156971118Y-106184564D01*
X156926287Y-106145576D01*
X156585118Y-105848869D01*
X161199915Y-105848869D01*
X161539958Y-105989720D01*
X161625677Y-106013737D01*
X161776848Y-106016320D01*
X161923102Y-105978021D01*
X161923106Y-105978020D01*
X162053613Y-105901679D01*
X162158677Y-105792963D01*
X162158678Y-105792962D01*
X162202310Y-105715362D01*
X162202315Y-105715352D01*
X162290540Y-105502357D01*
X162290539Y-105502355D01*
X161482145Y-105167507D01*
X161482144Y-105167508D01*
X161199915Y-105848869D01*
X156585118Y-105848869D01*
X156224733Y-105535451D01*
X156221086Y-105532151D01*
X156189457Y-105502355D01*
X155834278Y-105167754D01*
X160281756Y-105167754D01*
X160320055Y-105314008D01*
X160320056Y-105314012D01*
X160396397Y-105444519D01*
X160505114Y-105549585D01*
X160582699Y-105593210D01*
X160582712Y-105593216D01*
X160922752Y-105734065D01*
X160922753Y-105734064D01*
X161204982Y-105052704D01*
X161204981Y-105052703D01*
X160396586Y-104717855D01*
X160396585Y-104717856D01*
X160308358Y-104930858D01*
X160308353Y-104930873D01*
X160284338Y-105016584D01*
X160281756Y-105167754D01*
X155834278Y-105167754D01*
X155742664Y-105081448D01*
X155501088Y-104853869D01*
X155497567Y-104850417D01*
X155093491Y-104438226D01*
X154805110Y-104144052D01*
X154801738Y-104140473D01*
X154781927Y-104118588D01*
X154137913Y-103407140D01*
X154134679Y-103403421D01*
X153908650Y-103132839D01*
X153500540Y-102644284D01*
X153497454Y-102640437D01*
X153372111Y-102477646D01*
X152893975Y-101856661D01*
X152891051Y-101852701D01*
X152887992Y-101848383D01*
X152319234Y-101045586D01*
X152316471Y-101041517D01*
X152281902Y-100988363D01*
X151831186Y-100295327D01*
X151777191Y-100212302D01*
X151774585Y-100208116D01*
X151268691Y-99358105D01*
X151266254Y-99353819D01*
X151036404Y-98930153D01*
X150794549Y-98484360D01*
X150792292Y-98479995D01*
X150791035Y-98477441D01*
X150355516Y-97592448D01*
X150353433Y-97587991D01*
X150279771Y-97421952D01*
X149952319Y-96683849D01*
X149950409Y-96679303D01*
X149909114Y-96575245D01*
X149585528Y-95759857D01*
X149583821Y-95755293D01*
X149255791Y-94822089D01*
X149254250Y-94817412D01*
X149189638Y-94607241D01*
X150714804Y-94607241D01*
X150846750Y-94925784D01*
X150859039Y-94947848D01*
X150859041Y-94947850D01*
X150940154Y-95025301D01*
X150940159Y-95025304D01*
X151043782Y-95068226D01*
X151043780Y-95068226D01*
X151155910Y-95070815D01*
X151180195Y-95063906D01*
X151775906Y-94817153D01*
X151546296Y-94262825D01*
X151546295Y-94262824D01*
X150714804Y-94607241D01*
X149189638Y-94607241D01*
X148999037Y-93987245D01*
X150461143Y-93987245D01*
X150468054Y-94011535D01*
X150600000Y-94330077D01*
X151039522Y-94148021D01*
X151823458Y-94148021D01*
X152053069Y-94702347D01*
X152053070Y-94702347D01*
X152648783Y-94455595D01*
X152670841Y-94443310D01*
X152670842Y-94443309D01*
X152748295Y-94362194D01*
X152791219Y-94258567D01*
X152793808Y-94146438D01*
X152786897Y-94122148D01*
X152654950Y-93803605D01*
X151823459Y-94148020D01*
X151823458Y-94148021D01*
X151039522Y-94148021D01*
X151431491Y-93985662D01*
X151431492Y-93985661D01*
X151201881Y-93431334D01*
X150606168Y-93678088D01*
X150584110Y-93690373D01*
X150584109Y-93690374D01*
X150506656Y-93771489D01*
X150463732Y-93875116D01*
X150461143Y-93987245D01*
X148999037Y-93987245D01*
X148963559Y-93871840D01*
X148962244Y-93867237D01*
X148816637Y-93316529D01*
X151479044Y-93316529D01*
X151708654Y-93870857D01*
X151708655Y-93870858D01*
X152540146Y-93526441D01*
X152408201Y-93207899D01*
X152395912Y-93185835D01*
X152395910Y-93185833D01*
X152314797Y-93108382D01*
X152314792Y-93108379D01*
X152211169Y-93065457D01*
X152211171Y-93065457D01*
X152099041Y-93062868D01*
X152074756Y-93069777D01*
X151479045Y-93316528D01*
X151479044Y-93316529D01*
X148816637Y-93316529D01*
X148709370Y-92910830D01*
X148708220Y-92906101D01*
X148705164Y-92892352D01*
X148493584Y-91940463D01*
X148492623Y-91935697D01*
X148471523Y-91819048D01*
X151305254Y-91819048D01*
X151446104Y-92159092D01*
X151489734Y-92236686D01*
X151594800Y-92345403D01*
X151725307Y-92421744D01*
X151725311Y-92421745D01*
X151871564Y-92460043D01*
X152022735Y-92457462D01*
X152108454Y-92433445D01*
X152321463Y-92345213D01*
X151986615Y-91536818D01*
X151986614Y-91536817D01*
X151305254Y-91819047D01*
X151305254Y-91819048D01*
X148471523Y-91819048D01*
X148317029Y-90964952D01*
X151022999Y-90964952D01*
X151025582Y-91116123D01*
X151049599Y-91201842D01*
X151190449Y-91541883D01*
X151190450Y-91541883D01*
X151871810Y-91259655D01*
X151871811Y-91259654D01*
X151536962Y-90451259D01*
X151323952Y-90539491D01*
X151323945Y-90539495D01*
X151246362Y-90583118D01*
X151246356Y-90583123D01*
X151137640Y-90688187D01*
X151061299Y-90818694D01*
X151061298Y-90818698D01*
X151022999Y-90964952D01*
X148317029Y-90964952D01*
X148316544Y-90962272D01*
X148315767Y-90957426D01*
X148178532Y-89977802D01*
X148177954Y-89972987D01*
X148079766Y-88988613D01*
X148079380Y-88983767D01*
X148020409Y-87996307D01*
X148020216Y-87991473D01*
X148000549Y-87002463D01*
X148000549Y-86997535D01*
X148003383Y-86855031D01*
X148020216Y-86008524D01*
X148020409Y-86003694D01*
X148079381Y-85016228D01*
X148079765Y-85011390D01*
X148177955Y-84027006D01*
X148178531Y-84022203D01*
X148315771Y-83042542D01*
X148316542Y-83037735D01*
X148492625Y-82064292D01*
X148493582Y-82059546D01*
X148708226Y-81093871D01*
X148709367Y-81089180D01*
X148962248Y-80132748D01*
X148963555Y-80128172D01*
X148967316Y-80115939D01*
X150259608Y-80115939D01*
X150259609Y-80115946D01*
X150295201Y-80255392D01*
X150295202Y-80255394D01*
X150368641Y-80379169D01*
X150368643Y-80379171D01*
X150368644Y-80379172D01*
X150473972Y-80477236D01*
X150473975Y-80477238D01*
X150473977Y-80477240D01*
X150486480Y-80484067D01*
X150526590Y-80505970D01*
X150526596Y-80505972D01*
X150526597Y-80505973D01*
X150950429Y-80681529D01*
X151004832Y-80725370D01*
X151026897Y-80791664D01*
X151026976Y-80796090D01*
X151026976Y-82999988D01*
X151025915Y-83016173D01*
X151021794Y-83047474D01*
X151021794Y-83047476D01*
X151026976Y-83086836D01*
X151026976Y-83086837D01*
X151042431Y-83204236D01*
X151042432Y-83204238D01*
X151102940Y-83350317D01*
X151199194Y-83475758D01*
X151199195Y-83475759D01*
X151224245Y-83494980D01*
X151236440Y-83505675D01*
X152601221Y-84870456D01*
X152634706Y-84931779D01*
X152637540Y-84958137D01*
X152637540Y-84962997D01*
X152637540Y-84963000D01*
X152657326Y-85151256D01*
X152657327Y-85151259D01*
X152715818Y-85331277D01*
X152715821Y-85331284D01*
X152810467Y-85495216D01*
X152908180Y-85603737D01*
X152937129Y-85635888D01*
X153090265Y-85747148D01*
X153090270Y-85747151D01*
X153209984Y-85800452D01*
X153263221Y-85845702D01*
X153283542Y-85912551D01*
X153276071Y-85956138D01*
X153272337Y-85966398D01*
X153272281Y-85966377D01*
X153269805Y-85973502D01*
X153269860Y-85973521D01*
X153267588Y-85980377D01*
X153252418Y-86053840D01*
X153251638Y-86057356D01*
X153234344Y-86130331D01*
X153233506Y-86137506D01*
X153233446Y-86137499D01*
X153232680Y-86144997D01*
X153232740Y-86145003D01*
X153232110Y-86152192D01*
X153234293Y-86227180D01*
X153234345Y-86230787D01*
X153234345Y-89448309D01*
X153214660Y-89515348D01*
X153161856Y-89561103D01*
X153157892Y-89562829D01*
X153157841Y-89562853D01*
X153066911Y-89611881D01*
X153066908Y-89611883D01*
X152934167Y-89726598D01*
X152831459Y-89868829D01*
X152831458Y-89868832D01*
X152764321Y-90030916D01*
X152764320Y-90030917D01*
X152736371Y-90204123D01*
X152738067Y-90227393D01*
X152723305Y-90295685D01*
X152673965Y-90345156D01*
X152605712Y-90360098D01*
X152548997Y-90339029D01*
X152548109Y-90340548D01*
X152410282Y-90259925D01*
X152410278Y-90259924D01*
X152264024Y-90221625D01*
X152112854Y-90224207D01*
X152027143Y-90248222D01*
X152027128Y-90248227D01*
X151814126Y-90336454D01*
X151814125Y-90336455D01*
X152263779Y-91422014D01*
X152598625Y-92230408D01*
X152598627Y-92230409D01*
X152811622Y-92142184D01*
X152811632Y-92142179D01*
X152889232Y-92098547D01*
X152889233Y-92098546D01*
X152997949Y-91993482D01*
X153074290Y-91862975D01*
X153074291Y-91862971D01*
X153114739Y-91708511D01*
X153117021Y-91709108D01*
X153139669Y-91656288D01*
X153197550Y-91617153D01*
X153267401Y-91615523D01*
X153327044Y-91651916D01*
X153329051Y-91654181D01*
X153330872Y-91656288D01*
X153344327Y-91671858D01*
X153344329Y-91671860D01*
X153486561Y-91774567D01*
X153486562Y-91774567D01*
X153486563Y-91774568D01*
X153648650Y-91841707D01*
X153648653Y-91841708D01*
X153655596Y-91843677D01*
X153654961Y-91845915D01*
X153707921Y-91871203D01*
X153739690Y-91916062D01*
X154443847Y-93616049D01*
X154449514Y-93633149D01*
X154455390Y-93656427D01*
X154478261Y-93700362D01*
X154482828Y-93710155D01*
X154484952Y-93715282D01*
X154494500Y-93732390D01*
X154500052Y-93742336D01*
X154501764Y-93745512D01*
X154536399Y-93812045D01*
X154540458Y-93818025D01*
X154540409Y-93818058D01*
X154544731Y-93824230D01*
X154544779Y-93824196D01*
X154549005Y-93830048D01*
X154549006Y-93830050D01*
X154549008Y-93830052D01*
X154599704Y-93885378D01*
X154602070Y-93888037D01*
X154651114Y-93944788D01*
X154656442Y-93949670D01*
X154656400Y-93949714D01*
X154662031Y-93954725D01*
X154662071Y-93954680D01*
X154667530Y-93959398D01*
X154667534Y-93959402D01*
X154729640Y-94001555D01*
X154732516Y-94003569D01*
X154793349Y-94047498D01*
X154793356Y-94047501D01*
X154799655Y-94051017D01*
X154799625Y-94051069D01*
X154806266Y-94054649D01*
X154806294Y-94054597D01*
X154812692Y-94057927D01*
X154812696Y-94057930D01*
X154882848Y-94084624D01*
X154886109Y-94085920D01*
X156092631Y-94585677D01*
X156115180Y-94595018D01*
X156169583Y-94638859D01*
X156191648Y-94705153D01*
X156174369Y-94772853D01*
X156163144Y-94786828D01*
X156164074Y-94787577D01*
X156158506Y-94794486D01*
X156085067Y-94918261D01*
X156049475Y-95057707D01*
X156049474Y-95057714D01*
X156054611Y-95201538D01*
X156054612Y-95201542D01*
X156071503Y-95259067D01*
X156071504Y-95259071D01*
X156071505Y-95259072D01*
X156452559Y-96179015D01*
X156481291Y-96231636D01*
X156579355Y-96336966D01*
X156579359Y-96336969D01*
X156579362Y-96336972D01*
X156585730Y-96340750D01*
X156606115Y-96352845D01*
X156653726Y-96403982D01*
X156666842Y-96459487D01*
X156666842Y-97772511D01*
X156647157Y-97839550D01*
X156594353Y-97885305D01*
X156525195Y-97895249D01*
X156516835Y-97893696D01*
X156429330Y-97883837D01*
X156364916Y-97856770D01*
X156355533Y-97848298D01*
X155231844Y-96724609D01*
X155221149Y-96712414D01*
X155201928Y-96687364D01*
X155178813Y-96669627D01*
X155076486Y-96591109D01*
X154930407Y-96530601D01*
X154930405Y-96530600D01*
X154813006Y-96515145D01*
X154773645Y-96509963D01*
X154742342Y-96514084D01*
X154726158Y-96515145D01*
X154077981Y-96515145D01*
X154010942Y-96495460D01*
X153965187Y-96442656D01*
X153963420Y-96438598D01*
X153949082Y-96403982D01*
X153855115Y-96177126D01*
X153826383Y-96124505D01*
X153791232Y-96086750D01*
X153728318Y-96019174D01*
X153728313Y-96019170D01*
X153728312Y-96019169D01*
X153604537Y-95945730D01*
X153604536Y-95945729D01*
X153604535Y-95945729D01*
X153465089Y-95910137D01*
X153465082Y-95910136D01*
X153321258Y-95915273D01*
X153321254Y-95915274D01*
X153289492Y-95924600D01*
X153263730Y-95932165D01*
X153263728Y-95932165D01*
X153263724Y-95932167D01*
X151789453Y-96542831D01*
X151736832Y-96571563D01*
X151631502Y-96669627D01*
X151631496Y-96669635D01*
X151558057Y-96793410D01*
X151522465Y-96932856D01*
X151522464Y-96932863D01*
X151527601Y-97076687D01*
X151527602Y-97076691D01*
X151544493Y-97134216D01*
X151544494Y-97134220D01*
X151544495Y-97134221D01*
X151925549Y-98054164D01*
X151954281Y-98106785D01*
X152052345Y-98212115D01*
X152052349Y-98212118D01*
X152052352Y-98212121D01*
X152176127Y-98285560D01*
X152229274Y-98299125D01*
X152315574Y-98321152D01*
X152315576Y-98321152D01*
X152315579Y-98321153D01*
X152315580Y-98321152D01*
X152315581Y-98321153D01*
X152363522Y-98319440D01*
X152459409Y-98316016D01*
X152516934Y-98299125D01*
X153901582Y-97725583D01*
X153949035Y-97716145D01*
X154473548Y-97716145D01*
X154540587Y-97735830D01*
X154561229Y-97752464D01*
X155506298Y-98697533D01*
X155539783Y-98758856D01*
X155541837Y-98771330D01*
X155551630Y-98858249D01*
X155611210Y-99028521D01*
X155662551Y-99110229D01*
X155707184Y-99181262D01*
X155834738Y-99308816D01*
X155901622Y-99350842D01*
X155966998Y-99391921D01*
X155987478Y-99404789D01*
X156081464Y-99437676D01*
X156157745Y-99464368D01*
X156157750Y-99464369D01*
X156336996Y-99484565D01*
X156337000Y-99484565D01*
X156337004Y-99484565D01*
X156523175Y-99463589D01*
X156523344Y-99465096D01*
X156584972Y-99468864D01*
X156641336Y-99510155D01*
X156666428Y-99575364D01*
X156666842Y-99585488D01*
X156666842Y-101092636D01*
X156665533Y-101110605D01*
X156662052Y-101134367D01*
X156666370Y-101183710D01*
X156666842Y-101194518D01*
X156666842Y-101200053D01*
X156670440Y-101230837D01*
X156670806Y-101234425D01*
X156677342Y-101309133D01*
X156678803Y-101316209D01*
X156678745Y-101316220D01*
X156680376Y-101323579D01*
X156680434Y-101323566D01*
X156682099Y-101330591D01*
X156682100Y-101330596D01*
X156682101Y-101330597D01*
X156703846Y-101390344D01*
X156707742Y-101401047D01*
X156708924Y-101404449D01*
X156732524Y-101475668D01*
X156735578Y-101482216D01*
X156735524Y-101482240D01*
X156738812Y-101489030D01*
X156738863Y-101489005D01*
X156742103Y-101495456D01*
X156783321Y-101558126D01*
X156785231Y-101561124D01*
X156816314Y-101611516D01*
X156824631Y-101625000D01*
X156829108Y-101630661D01*
X156829061Y-101630698D01*
X156833824Y-101636544D01*
X156833870Y-101636506D01*
X156838515Y-101642041D01*
X156893050Y-101693492D01*
X156895638Y-101696006D01*
X158739742Y-103540109D01*
X158751523Y-103553741D01*
X158765865Y-103573005D01*
X158803818Y-103604851D01*
X158811794Y-103612161D01*
X158815697Y-103616065D01*
X158815698Y-103616066D01*
X158840013Y-103635291D01*
X158842768Y-103637534D01*
X158900261Y-103685777D01*
X158900265Y-103685779D01*
X158906298Y-103689747D01*
X158906264Y-103689797D01*
X158912619Y-103693845D01*
X158912652Y-103693793D01*
X158918790Y-103697579D01*
X158918798Y-103697585D01*
X158934256Y-103704793D01*
X158986766Y-103729279D01*
X158989927Y-103730808D01*
X159057042Y-103764515D01*
X159057047Y-103764516D01*
X159063830Y-103766985D01*
X159063809Y-103767042D01*
X159070926Y-103769515D01*
X159070945Y-103769459D01*
X159077799Y-103771730D01*
X159077800Y-103771730D01*
X159077802Y-103771731D01*
X159151323Y-103786911D01*
X159154684Y-103787656D01*
X159227754Y-103804975D01*
X159227760Y-103804975D01*
X159234927Y-103805813D01*
X159234920Y-103805872D01*
X159242421Y-103806638D01*
X159242427Y-103806579D01*
X159249616Y-103807208D01*
X159249618Y-103807207D01*
X159249619Y-103807208D01*
X159324586Y-103805027D01*
X159328192Y-103804975D01*
X160228028Y-103804975D01*
X160268983Y-103811933D01*
X160348745Y-103839843D01*
X160348750Y-103839844D01*
X160527996Y-103860040D01*
X160528000Y-103860040D01*
X160528002Y-103860040D01*
X160557478Y-103856718D01*
X160629166Y-103848641D01*
X160697987Y-103860695D01*
X160749366Y-103908044D01*
X160766991Y-103975654D01*
X160745265Y-104042060D01*
X160732216Y-104058031D01*
X160643254Y-104150086D01*
X160643249Y-104150092D01*
X160599626Y-104227675D01*
X160599622Y-104227682D01*
X160511390Y-104440692D01*
X161331068Y-104780214D01*
X161331072Y-104780215D01*
X162405344Y-105225193D01*
X162493576Y-105012184D01*
X162517593Y-104926465D01*
X162520175Y-104775297D01*
X162517485Y-104765025D01*
X162519544Y-104695185D01*
X162559034Y-104637546D01*
X162623417Y-104610406D01*
X162692253Y-104622384D01*
X162725121Y-104645930D01*
X162984368Y-104905177D01*
X162996149Y-104918809D01*
X163010486Y-104938067D01*
X163048435Y-104969911D01*
X163056408Y-104977218D01*
X163060315Y-104981125D01*
X163060321Y-104981130D01*
X163084635Y-105000355D01*
X163087416Y-105002619D01*
X163109446Y-105021105D01*
X163144887Y-105050844D01*
X163150916Y-105054809D01*
X163150883Y-105054858D01*
X163157245Y-105058911D01*
X163157277Y-105058860D01*
X163163417Y-105062647D01*
X163163421Y-105062650D01*
X163202075Y-105080674D01*
X163231418Y-105094358D01*
X163234664Y-105095930D01*
X163301660Y-105129577D01*
X163308455Y-105132050D01*
X163308434Y-105132106D01*
X163315555Y-105134582D01*
X163315574Y-105134525D01*
X163322417Y-105136792D01*
X163322425Y-105136796D01*
X163395993Y-105151986D01*
X163399326Y-105152725D01*
X163472377Y-105170039D01*
X163472379Y-105170039D01*
X163472383Y-105170040D01*
X163479551Y-105170878D01*
X163479544Y-105170937D01*
X163487042Y-105171703D01*
X163487048Y-105171644D01*
X163494237Y-105172273D01*
X163494241Y-105172272D01*
X163494242Y-105172273D01*
X163569228Y-105170091D01*
X163572835Y-105170039D01*
X166208470Y-105170039D01*
X166275509Y-105189724D01*
X166321264Y-105242528D01*
X166331208Y-105311686D01*
X166302183Y-105375242D01*
X166274443Y-105399032D01*
X166248740Y-105415182D01*
X166248737Y-105415184D01*
X166121184Y-105542737D01*
X166025210Y-105695478D01*
X165965630Y-105865750D01*
X165955837Y-105952668D01*
X165928770Y-106017082D01*
X165920298Y-106026465D01*
X165542123Y-106404640D01*
X165529933Y-106415331D01*
X165504875Y-106434560D01*
X165435770Y-106524622D01*
X165435768Y-106524624D01*
X165408622Y-106559999D01*
X165408619Y-106560005D01*
X165348115Y-106706076D01*
X165348113Y-106706081D01*
X165329822Y-106845019D01*
X165327476Y-106862842D01*
X165329137Y-106875462D01*
X165331597Y-106894143D01*
X165332658Y-106910329D01*
X165332658Y-107313816D01*
X165323219Y-107361269D01*
X164749681Y-108745915D01*
X164732787Y-108803448D01*
X164727649Y-108947274D01*
X164727650Y-108947281D01*
X164756381Y-109059845D01*
X164763243Y-109086729D01*
X164836682Y-109210504D01*
X164836684Y-109210506D01*
X164836685Y-109210507D01*
X164942013Y-109308571D01*
X164942016Y-109308573D01*
X164942018Y-109308575D01*
X164960730Y-109318793D01*
X164994631Y-109337305D01*
X164994637Y-109337307D01*
X164994638Y-109337308D01*
X165914587Y-109718362D01*
X165972112Y-109735254D01*
X166029644Y-109737308D01*
X166115939Y-109740391D01*
X166115939Y-109740390D01*
X166115942Y-109740391D01*
X166255394Y-109704798D01*
X166379169Y-109631359D01*
X166477240Y-109526023D01*
X166504361Y-109476356D01*
X166505970Y-109473409D01*
X166505970Y-109473406D01*
X166505973Y-109473403D01*
X166785685Y-108798117D01*
X179431334Y-108798117D01*
X179678088Y-109393831D01*
X179690373Y-109415889D01*
X179690374Y-109415890D01*
X179771489Y-109493343D01*
X179875117Y-109536267D01*
X179875115Y-109536267D01*
X179987245Y-109538856D01*
X180011527Y-109531947D01*
X180330077Y-109399998D01*
X179985662Y-108568507D01*
X179985661Y-108568506D01*
X179431334Y-108798117D01*
X166785685Y-108798117D01*
X167116637Y-107999127D01*
X167133529Y-107941601D01*
X167134981Y-107900958D01*
X179062868Y-107900958D01*
X179069777Y-107925243D01*
X179316528Y-108520953D01*
X179316529Y-108520954D01*
X179478887Y-108453703D01*
X180262824Y-108453703D01*
X180607241Y-109285194D01*
X180925784Y-109153249D01*
X180947848Y-109140960D01*
X180947850Y-109140958D01*
X181025301Y-109059845D01*
X181025304Y-109059840D01*
X181068226Y-108956218D01*
X181070815Y-108844089D01*
X181063906Y-108819804D01*
X180817153Y-108224093D01*
X180817152Y-108224093D01*
X180262825Y-108453702D01*
X180262824Y-108453703D01*
X179478887Y-108453703D01*
X179870857Y-108291344D01*
X179870858Y-108291343D01*
X179526441Y-107459852D01*
X179207899Y-107591798D01*
X179185835Y-107604087D01*
X179185833Y-107604089D01*
X179108382Y-107685202D01*
X179108379Y-107685207D01*
X179065457Y-107788829D01*
X179062868Y-107900958D01*
X167134981Y-107900958D01*
X167138666Y-107797771D01*
X167138466Y-107796989D01*
X167112362Y-107694712D01*
X167103073Y-107658319D01*
X167029634Y-107534544D01*
X166999460Y-107506451D01*
X166924302Y-107436476D01*
X166924298Y-107436473D01*
X166871684Y-107407742D01*
X166720330Y-107345049D01*
X179803606Y-107345049D01*
X180148020Y-108176539D01*
X180148021Y-108176540D01*
X180702348Y-107946929D01*
X180455595Y-107351216D01*
X180443310Y-107329158D01*
X180443309Y-107329157D01*
X180362194Y-107251704D01*
X180258566Y-107208780D01*
X180258568Y-107208780D01*
X180146438Y-107206191D01*
X180122148Y-107213102D01*
X179803606Y-107345048D01*
X179803606Y-107345049D01*
X166720330Y-107345049D01*
X166610205Y-107299434D01*
X166555802Y-107255593D01*
X166533737Y-107189299D01*
X166533658Y-107184873D01*
X166533658Y-107162938D01*
X166553343Y-107095899D01*
X166569973Y-107075261D01*
X166769535Y-106875698D01*
X166830856Y-106842215D01*
X166843311Y-106840163D01*
X166930255Y-106830368D01*
X167100522Y-106770789D01*
X167253262Y-106674816D01*
X167380816Y-106547262D01*
X167476789Y-106394522D01*
X167536368Y-106224255D01*
X167536369Y-106224249D01*
X167556565Y-106045003D01*
X167556565Y-106044996D01*
X167536369Y-105865750D01*
X167536368Y-105865745D01*
X167510900Y-105792962D01*
X167476789Y-105695478D01*
X167380816Y-105542738D01*
X167253262Y-105415184D01*
X167253259Y-105415181D01*
X167226253Y-105398213D01*
X167179961Y-105345879D01*
X167169312Y-105276825D01*
X167197687Y-105212977D01*
X167256077Y-105174605D01*
X167277824Y-105170058D01*
X167277987Y-105170039D01*
X167277991Y-105170039D01*
X167308832Y-105166433D01*
X167312313Y-105166078D01*
X167387079Y-105159538D01*
X167387087Y-105159535D01*
X167394148Y-105158078D01*
X167394160Y-105158137D01*
X167401525Y-105156504D01*
X167401511Y-105156445D01*
X167408531Y-105154780D01*
X167408537Y-105154780D01*
X167479061Y-105129111D01*
X167482397Y-105127952D01*
X167524295Y-105114068D01*
X167594120Y-105111666D01*
X167610741Y-105117210D01*
X167709548Y-105158137D01*
X167789735Y-105191352D01*
X167790931Y-105191703D01*
X167791176Y-105191860D01*
X167792864Y-105192456D01*
X167792723Y-105192854D01*
X167849711Y-105229476D01*
X167878737Y-105293030D01*
X167880000Y-105310681D01*
X167880000Y-105725000D01*
X168380000Y-105725000D01*
X168380000Y-106025000D01*
X167880000Y-106025000D01*
X167880000Y-106469930D01*
X167895122Y-106604141D01*
X167954663Y-106774301D01*
X168050577Y-106926948D01*
X168178051Y-107054422D01*
X168330698Y-107150336D01*
X168500855Y-107209876D01*
X168530000Y-107213159D01*
X168530000Y-106687657D01*
X168543962Y-106698201D01*
X168651840Y-106728895D01*
X168763521Y-106718546D01*
X168830000Y-106685443D01*
X168830000Y-107213159D01*
X168859144Y-107209876D01*
X169029301Y-107150336D01*
X169181948Y-107054422D01*
X169309422Y-106926948D01*
X169405337Y-106774299D01*
X169414229Y-106748888D01*
X169454949Y-106692111D01*
X169519901Y-106666362D01*
X169588463Y-106679817D01*
X169629646Y-106714353D01*
X169640805Y-106728895D01*
X169699549Y-106805451D01*
X169819767Y-106897698D01*
X169959764Y-106955687D01*
X170072280Y-106970500D01*
X170072287Y-106970500D01*
X170147713Y-106970500D01*
X170147720Y-106970500D01*
X170260236Y-106955687D01*
X170400233Y-106897698D01*
X170520451Y-106805451D01*
X170612698Y-106685233D01*
X170670687Y-106545236D01*
X170690466Y-106395000D01*
X170670687Y-106244764D01*
X170612698Y-106104767D01*
X170520451Y-105984549D01*
X170400233Y-105892302D01*
X170400229Y-105892300D01*
X170336119Y-105865745D01*
X170260236Y-105834313D01*
X170246171Y-105832461D01*
X170147727Y-105819500D01*
X170147720Y-105819500D01*
X170072280Y-105819500D01*
X170072272Y-105819500D01*
X169959764Y-105834313D01*
X169959763Y-105834313D01*
X169819770Y-105892300D01*
X169699547Y-105984550D01*
X169672737Y-106019490D01*
X169616308Y-106060691D01*
X169546562Y-106064844D01*
X169486682Y-106031682D01*
X169480000Y-106025000D01*
X168980000Y-106025000D01*
X168980000Y-105725000D01*
X169480000Y-105725000D01*
X169480000Y-105280070D01*
X169479999Y-105280069D01*
X169464877Y-105145858D01*
X169405336Y-104975698D01*
X169309422Y-104823051D01*
X169294066Y-104807695D01*
X169260581Y-104746372D01*
X169265565Y-104676680D01*
X169307437Y-104620747D01*
X169372901Y-104596330D01*
X169381747Y-104596014D01*
X175617781Y-104596014D01*
X175635751Y-104597323D01*
X175659509Y-104600803D01*
X175708855Y-104596485D01*
X175719662Y-104596014D01*
X175725190Y-104596014D01*
X175725195Y-104596014D01*
X175756042Y-104592407D01*
X175759516Y-104592053D01*
X175834283Y-104585513D01*
X175834291Y-104585510D01*
X175841352Y-104584053D01*
X175841364Y-104584112D01*
X175848729Y-104582479D01*
X175848715Y-104582420D01*
X175855735Y-104580755D01*
X175855741Y-104580755D01*
X175926265Y-104555086D01*
X175929603Y-104553926D01*
X176000820Y-104530328D01*
X176000828Y-104530322D01*
X176007368Y-104527274D01*
X176007394Y-104527330D01*
X176014176Y-104524046D01*
X176014149Y-104523992D01*
X176020599Y-104520752D01*
X176020603Y-104520751D01*
X176083323Y-104479498D01*
X176086218Y-104477654D01*
X176150142Y-104438226D01*
X176150148Y-104438219D01*
X176155811Y-104433743D01*
X176155849Y-104433791D01*
X176161686Y-104429036D01*
X176161647Y-104428989D01*
X176167177Y-104424347D01*
X176167182Y-104424344D01*
X176218670Y-104369768D01*
X176221117Y-104367249D01*
X176908633Y-103679733D01*
X176969954Y-103646250D01*
X177039646Y-103651234D01*
X177095579Y-103693106D01*
X177110873Y-103719963D01*
X177405442Y-104431112D01*
X177405846Y-104434875D01*
X177408560Y-104438638D01*
X177460561Y-104564179D01*
X177470000Y-104611632D01*
X177470000Y-105062342D01*
X177456038Y-105051799D01*
X177348160Y-105021105D01*
X177236479Y-105031454D01*
X177170000Y-105064556D01*
X177170000Y-104536839D01*
X177140860Y-104540122D01*
X177140856Y-104540123D01*
X176970697Y-104599663D01*
X176818051Y-104695577D01*
X176690577Y-104823051D01*
X176594663Y-104975698D01*
X176535122Y-105145858D01*
X176520000Y-105280069D01*
X176520000Y-105725000D01*
X177020000Y-105725000D01*
X177020000Y-106025000D01*
X176519999Y-106025000D01*
X176513316Y-106031683D01*
X176451993Y-106065168D01*
X176382301Y-106060182D01*
X176327261Y-106019488D01*
X176309072Y-105995784D01*
X176300451Y-105984549D01*
X176180233Y-105892302D01*
X176180229Y-105892300D01*
X176116119Y-105865745D01*
X176040236Y-105834313D01*
X176026171Y-105832461D01*
X175927727Y-105819500D01*
X175927720Y-105819500D01*
X175852280Y-105819500D01*
X175852272Y-105819500D01*
X175739764Y-105834313D01*
X175739763Y-105834313D01*
X175599770Y-105892300D01*
X175599767Y-105892301D01*
X175599767Y-105892302D01*
X175479549Y-105984549D01*
X175399890Y-106088363D01*
X175387300Y-106104770D01*
X175329313Y-106244763D01*
X175329312Y-106244765D01*
X175309534Y-106394999D01*
X175309534Y-106395000D01*
X175329312Y-106545234D01*
X175329313Y-106545236D01*
X175386821Y-106684073D01*
X175387302Y-106685233D01*
X175479549Y-106805451D01*
X175599767Y-106897698D01*
X175739764Y-106955687D01*
X175852280Y-106970500D01*
X175852287Y-106970500D01*
X175927713Y-106970500D01*
X175927720Y-106970500D01*
X176040236Y-106955687D01*
X176180233Y-106897698D01*
X176300451Y-106805451D01*
X176370353Y-106714353D01*
X176426780Y-106673151D01*
X176496526Y-106668996D01*
X176557446Y-106703208D01*
X176585769Y-106748885D01*
X176594662Y-106774299D01*
X176690577Y-106926948D01*
X176818051Y-107054422D01*
X176970698Y-107150336D01*
X177140855Y-107209876D01*
X177170000Y-107213159D01*
X177170000Y-106687657D01*
X177183962Y-106698201D01*
X177291840Y-106728895D01*
X177403521Y-106718546D01*
X177470000Y-106685443D01*
X177470000Y-107213159D01*
X177499144Y-107209876D01*
X177669301Y-107150336D01*
X177821948Y-107054422D01*
X177949422Y-106926948D01*
X178045336Y-106774301D01*
X178104877Y-106604141D01*
X178119999Y-106469930D01*
X178120000Y-106469930D01*
X178120000Y-106025000D01*
X177620000Y-106025000D01*
X177620000Y-105725000D01*
X178120000Y-105725000D01*
X178120000Y-105310681D01*
X178139685Y-105243642D01*
X178192489Y-105197887D01*
X178209067Y-105191704D01*
X178210264Y-105191353D01*
X179130212Y-104810297D01*
X179182833Y-104781565D01*
X179261511Y-104708313D01*
X179288163Y-104683500D01*
X179288164Y-104683498D01*
X179288169Y-104683494D01*
X179361608Y-104559719D01*
X179397201Y-104420267D01*
X179392064Y-104276437D01*
X179375173Y-104218912D01*
X178841529Y-102930585D01*
X178834061Y-102861116D01*
X178865336Y-102798637D01*
X178925425Y-102762985D01*
X178956091Y-102759133D01*
X180201927Y-102759133D01*
X180268966Y-102778818D01*
X180314721Y-102831622D01*
X180316485Y-102835673D01*
X180611310Y-103547442D01*
X180667682Y-103683536D01*
X180696414Y-103736157D01*
X180794478Y-103841487D01*
X180794482Y-103841490D01*
X180794485Y-103841493D01*
X180918260Y-103914932D01*
X180971407Y-103928497D01*
X181057707Y-103950524D01*
X181057709Y-103950524D01*
X181057712Y-103950525D01*
X181057713Y-103950524D01*
X181057714Y-103950525D01*
X181105655Y-103948812D01*
X181201542Y-103945388D01*
X181259067Y-103928497D01*
X182179015Y-103547441D01*
X182231636Y-103518709D01*
X182336972Y-103420638D01*
X182410411Y-103296863D01*
X182428276Y-103226869D01*
X182448198Y-103148818D01*
X182450540Y-103149415D01*
X182472309Y-103096853D01*
X182529699Y-103057002D01*
X182599524Y-103054504D01*
X182659615Y-103090153D01*
X182684507Y-103131142D01*
X182684787Y-103131027D01*
X182685537Y-103132839D01*
X182685693Y-103133095D01*
X182685993Y-103133939D01*
X182982577Y-103849955D01*
X182982589Y-103849980D01*
X183031617Y-103940910D01*
X183031619Y-103940913D01*
X183146334Y-104073654D01*
X183247041Y-104146377D01*
X183288568Y-104176364D01*
X183450655Y-104243502D01*
X183623857Y-104271450D01*
X183647128Y-104269754D01*
X183715418Y-104284514D01*
X183764890Y-104333852D01*
X183779834Y-104402105D01*
X183758765Y-104458824D01*
X183760284Y-104459713D01*
X183679661Y-104597539D01*
X183679660Y-104597543D01*
X183641361Y-104743797D01*
X183643943Y-104894967D01*
X183667961Y-104980689D01*
X183756190Y-105193694D01*
X183756191Y-105193695D01*
X184841750Y-104744043D01*
X185650144Y-104409195D01*
X185650145Y-104409194D01*
X185561914Y-104196184D01*
X185561910Y-104196177D01*
X185518287Y-104118594D01*
X185518282Y-104118588D01*
X185413217Y-104009871D01*
X185404052Y-104004510D01*
X185356125Y-103953670D01*
X185343291Y-103884989D01*
X185369627Y-103820273D01*
X185426771Y-103780069D01*
X185466661Y-103773477D01*
X186133083Y-103773477D01*
X186200122Y-103793162D01*
X186245877Y-103845966D01*
X186255821Y-103915124D01*
X186226796Y-103978680D01*
X186220764Y-103985158D01*
X186187184Y-104018737D01*
X186091211Y-104171476D01*
X186031631Y-104341745D01*
X186031630Y-104341750D01*
X186011435Y-104520996D01*
X186011435Y-104521003D01*
X186026047Y-104650691D01*
X186013992Y-104719513D01*
X185990508Y-104752255D01*
X185981539Y-104761224D01*
X185920216Y-104794709D01*
X185850524Y-104789725D01*
X185794591Y-104747853D01*
X185779297Y-104720995D01*
X185764950Y-104686358D01*
X185764949Y-104686357D01*
X184714145Y-105121615D01*
X184714141Y-105121615D01*
X183870996Y-105470857D01*
X183870995Y-105470858D01*
X183959227Y-105683869D01*
X183959231Y-105683876D01*
X184002854Y-105761459D01*
X184002859Y-105761465D01*
X184107923Y-105870181D01*
X184238430Y-105946522D01*
X184238434Y-105946523D01*
X184384688Y-105984821D01*
X184457727Y-105983574D01*
X184525093Y-106002110D01*
X184571744Y-106054125D01*
X184582867Y-106123103D01*
X184554933Y-106187146D01*
X184547527Y-106195237D01*
X184269916Y-106472849D01*
X184208593Y-106506334D01*
X184182235Y-106509168D01*
X183978577Y-106509168D01*
X183911538Y-106489483D01*
X183865783Y-106436679D01*
X183864016Y-106432621D01*
X183848433Y-106395000D01*
X183688459Y-106008790D01*
X183659727Y-105956169D01*
X183647778Y-105943335D01*
X183561662Y-105850838D01*
X183561657Y-105850834D01*
X183561656Y-105850833D01*
X183437881Y-105777394D01*
X183437880Y-105777393D01*
X183437879Y-105777393D01*
X183298433Y-105741801D01*
X183298426Y-105741800D01*
X183154602Y-105746937D01*
X183154598Y-105746938D01*
X183122836Y-105756264D01*
X183097074Y-105763829D01*
X183097072Y-105763829D01*
X183097068Y-105763831D01*
X182177125Y-106144885D01*
X182124504Y-106173617D01*
X182019174Y-106271681D01*
X182019168Y-106271689D01*
X181945729Y-106395464D01*
X181910137Y-106534910D01*
X181910136Y-106534917D01*
X181915273Y-106678741D01*
X181915274Y-106678745D01*
X181932165Y-106736270D01*
X181932166Y-106736274D01*
X181932167Y-106736275D01*
X182542831Y-108210546D01*
X182571563Y-108263167D01*
X182669627Y-108368497D01*
X182669631Y-108368500D01*
X182669634Y-108368503D01*
X182793409Y-108441942D01*
X182846556Y-108455507D01*
X182932856Y-108477534D01*
X182932858Y-108477534D01*
X182932861Y-108477535D01*
X182932862Y-108477534D01*
X182932863Y-108477535D01*
X182980804Y-108475822D01*
X183076691Y-108472398D01*
X183134216Y-108455507D01*
X184054164Y-108074451D01*
X184106785Y-108045719D01*
X184212121Y-107947648D01*
X184285560Y-107823873D01*
X184290759Y-107803501D01*
X184326409Y-107743415D01*
X184388888Y-107712139D01*
X184410907Y-107710168D01*
X184434845Y-107710168D01*
X184451029Y-107711228D01*
X184482332Y-107715350D01*
X184482333Y-107715350D01*
X184534586Y-107708470D01*
X184639094Y-107694712D01*
X184785173Y-107634204D01*
X184910614Y-107537950D01*
X184929841Y-107512891D01*
X184940522Y-107500711D01*
X187208043Y-105233190D01*
X187220222Y-105222510D01*
X187245282Y-105203282D01*
X187245284Y-105203280D01*
X187251027Y-105197537D01*
X187252283Y-105198793D01*
X187272993Y-105179888D01*
X187319262Y-105150816D01*
X187446816Y-105023262D01*
X187542789Y-104870522D01*
X187602368Y-104700255D01*
X187602895Y-104695577D01*
X187622565Y-104521003D01*
X187622565Y-104520996D01*
X187602369Y-104341750D01*
X187602368Y-104341745D01*
X187577177Y-104269754D01*
X187542789Y-104171478D01*
X187525562Y-104144062D01*
X187446815Y-104018737D01*
X187366618Y-103938540D01*
X187333133Y-103877217D01*
X187338117Y-103807525D01*
X187379989Y-103751592D01*
X187411889Y-103734337D01*
X187416778Y-103732557D01*
X187420141Y-103731389D01*
X187491357Y-103707791D01*
X187491365Y-103707785D01*
X187497905Y-103704737D01*
X187497931Y-103704793D01*
X187504713Y-103701509D01*
X187504686Y-103701455D01*
X187511136Y-103698215D01*
X187511140Y-103698214D01*
X187573860Y-103656961D01*
X187576755Y-103655117D01*
X187640679Y-103615689D01*
X187640685Y-103615682D01*
X187646348Y-103611206D01*
X187646385Y-103611254D01*
X187652227Y-103606495D01*
X187652187Y-103606448D01*
X187657709Y-103601812D01*
X187657719Y-103601807D01*
X187709208Y-103547230D01*
X187711655Y-103544711D01*
X188029499Y-103226867D01*
X188090820Y-103193384D01*
X188127984Y-103191022D01*
X188288235Y-103205042D01*
X188340999Y-103209659D01*
X188341000Y-103209659D01*
X188341001Y-103209659D01*
X188380234Y-103206226D01*
X188576408Y-103189063D01*
X188804663Y-103127903D01*
X189018830Y-103028035D01*
X189212401Y-102892495D01*
X189379495Y-102725401D01*
X189515035Y-102531830D01*
X189614903Y-102317663D01*
X189676063Y-102089408D01*
X189696659Y-101854000D01*
X189676063Y-101618592D01*
X189626992Y-101435455D01*
X189614905Y-101390344D01*
X189614904Y-101390343D01*
X189614903Y-101390337D01*
X189515035Y-101176171D01*
X189508647Y-101167047D01*
X189379494Y-100982597D01*
X189212404Y-100815507D01*
X189144375Y-100767872D01*
X189100751Y-100713294D01*
X189091500Y-100666298D01*
X189091500Y-99736249D01*
X190617067Y-99736249D01*
X190830077Y-99824481D01*
X190915796Y-99848498D01*
X191066966Y-99851079D01*
X191213220Y-99812781D01*
X191213224Y-99812780D01*
X191343731Y-99736439D01*
X191448797Y-99627722D01*
X191492422Y-99550137D01*
X191492428Y-99550124D01*
X191633277Y-99210083D01*
X191633276Y-99210082D01*
X190951916Y-98927853D01*
X190951915Y-98927854D01*
X190617067Y-99736249D01*
X189091500Y-99736249D01*
X189091500Y-99370349D01*
X189111185Y-99303310D01*
X189163989Y-99257555D01*
X189195741Y-99247933D01*
X189289882Y-99232743D01*
X189451969Y-99165604D01*
X189594204Y-99062895D01*
X189609461Y-99045240D01*
X189668184Y-99007389D01*
X189738054Y-99007295D01*
X189796883Y-99044989D01*
X189822092Y-99099992D01*
X189823793Y-99099547D01*
X189864240Y-99254007D01*
X189864241Y-99254011D01*
X189940582Y-99384518D01*
X190049298Y-99489582D01*
X190049304Y-99489587D01*
X190126887Y-99533210D01*
X190126894Y-99533214D01*
X190339904Y-99621445D01*
X190339905Y-99621444D01*
X190709893Y-98728215D01*
X190742005Y-98650690D01*
X191066719Y-98650690D01*
X191066720Y-98650691D01*
X191748081Y-98932920D01*
X191888932Y-98592878D01*
X191912949Y-98507159D01*
X191915532Y-98355988D01*
X191877233Y-98209734D01*
X191877232Y-98209730D01*
X191800891Y-98079223D01*
X191692175Y-97974159D01*
X191692169Y-97974154D01*
X191614586Y-97930531D01*
X191614579Y-97930527D01*
X191458688Y-97865955D01*
X192961236Y-97865955D01*
X192961237Y-97865956D01*
X193556949Y-98112707D01*
X193581226Y-98119617D01*
X193581235Y-98119618D01*
X193693362Y-98117029D01*
X193796984Y-98074107D01*
X193796989Y-98074104D01*
X193878104Y-97996652D01*
X193878104Y-97996651D01*
X193890390Y-97974594D01*
X193890397Y-97974581D01*
X194022338Y-97656044D01*
X194022337Y-97656042D01*
X193190847Y-97311627D01*
X193190846Y-97311628D01*
X192961236Y-97865955D01*
X191458688Y-97865955D01*
X191401568Y-97842295D01*
X191401567Y-97842296D01*
X191066719Y-98650690D01*
X190742005Y-98650690D01*
X191124405Y-97727491D01*
X191124404Y-97727490D01*
X190911399Y-97639261D01*
X190825677Y-97615243D01*
X190674506Y-97612661D01*
X190528253Y-97650960D01*
X190528249Y-97650961D01*
X190390423Y-97731584D01*
X190389234Y-97729552D01*
X190335827Y-97750886D01*
X190267230Y-97737609D01*
X190216701Y-97689354D01*
X190200281Y-97621442D01*
X190200458Y-97618513D01*
X190202160Y-97595157D01*
X190174212Y-97421955D01*
X190107074Y-97259868D01*
X190107072Y-97259866D01*
X190107071Y-97259862D01*
X190103553Y-97253558D01*
X190105582Y-97252425D01*
X190086018Y-97197088D01*
X190086333Y-97195243D01*
X191943335Y-97195243D01*
X191945924Y-97307370D01*
X191988848Y-97410997D01*
X192066302Y-97492113D01*
X192088349Y-97504394D01*
X192088363Y-97504401D01*
X192684073Y-97751152D01*
X192684074Y-97751151D01*
X192913684Y-97196824D01*
X192913683Y-97196823D01*
X192521713Y-97034464D01*
X193305650Y-97034464D01*
X193305651Y-97034465D01*
X194137142Y-97378879D01*
X194269089Y-97060332D01*
X194275999Y-97036055D01*
X194276000Y-97036046D01*
X194273411Y-96923919D01*
X194230487Y-96820292D01*
X194153033Y-96739176D01*
X194130986Y-96726895D01*
X194130972Y-96726888D01*
X193535261Y-96480136D01*
X193535260Y-96480137D01*
X193305650Y-97034464D01*
X192521713Y-97034464D01*
X192082192Y-96852409D01*
X192082191Y-96852410D01*
X191950247Y-97170953D01*
X191950247Y-97170954D01*
X191943336Y-97195234D01*
X191943335Y-97195243D01*
X190086333Y-97195243D01*
X190095274Y-97142916D01*
X190330411Y-96575245D01*
X192196996Y-96575245D01*
X193028487Y-96919661D01*
X193028488Y-96919660D01*
X193258098Y-96365333D01*
X193258097Y-96365332D01*
X192662386Y-96118582D01*
X192638109Y-96111672D01*
X192638100Y-96111671D01*
X192525973Y-96114260D01*
X192422351Y-96157182D01*
X192422346Y-96157185D01*
X192341231Y-96234637D01*
X192341231Y-96234638D01*
X192328950Y-96256685D01*
X192328943Y-96256699D01*
X192196996Y-96575245D01*
X190330411Y-96575245D01*
X190799433Y-95442923D01*
X190807511Y-95426841D01*
X190819825Y-95406214D01*
X190834729Y-95358941D01*
X190838417Y-95348810D01*
X190840536Y-95343696D01*
X190848994Y-95313868D01*
X190849996Y-95310521D01*
X190872582Y-95238892D01*
X190872582Y-95238890D01*
X190873940Y-95231798D01*
X190873999Y-95231809D01*
X190875307Y-95224390D01*
X190875246Y-95224381D01*
X190876397Y-95217247D01*
X190878751Y-95163318D01*
X190879668Y-95142314D01*
X190879873Y-95138800D01*
X190885329Y-95063914D01*
X190885329Y-95063912D01*
X190885014Y-95056694D01*
X190885073Y-95056691D01*
X190884635Y-95049169D01*
X190884574Y-95049174D01*
X190884049Y-95041979D01*
X190884050Y-95041973D01*
X190869958Y-94968336D01*
X190869336Y-94964809D01*
X190866740Y-94948721D01*
X190857380Y-94890713D01*
X190857379Y-94890710D01*
X190855410Y-94883768D01*
X190855467Y-94883751D01*
X190853304Y-94876526D01*
X190853246Y-94876545D01*
X190851076Y-94869666D01*
X190851075Y-94869658D01*
X190820370Y-94801230D01*
X190818984Y-94798017D01*
X190309858Y-93568880D01*
X190302390Y-93499411D01*
X190333665Y-93436932D01*
X190393754Y-93401280D01*
X190411582Y-93399390D01*
X190411449Y-93398149D01*
X190420263Y-93397200D01*
X190420267Y-93397201D01*
X190559719Y-93361608D01*
X190683494Y-93288169D01*
X190781565Y-93182833D01*
X190810298Y-93130213D01*
X190887114Y-92944758D01*
X190930952Y-92890360D01*
X190950564Y-92880568D01*
X190950094Y-92879560D01*
X190963186Y-92873455D01*
X190963212Y-92873510D01*
X190969997Y-92870225D01*
X190969970Y-92870171D01*
X190976420Y-92866931D01*
X190976424Y-92866930D01*
X191039144Y-92825677D01*
X191042039Y-92823833D01*
X191105963Y-92784405D01*
X191105969Y-92784398D01*
X191111632Y-92779922D01*
X191111669Y-92779970D01*
X191117511Y-92775211D01*
X191117471Y-92775164D01*
X191122993Y-92770528D01*
X191123003Y-92770523D01*
X191174492Y-92715946D01*
X191176939Y-92713427D01*
X193416146Y-90474219D01*
X193477467Y-90440736D01*
X193547159Y-90445720D01*
X193576710Y-90461584D01*
X193730265Y-90573148D01*
X193730270Y-90573151D01*
X193889936Y-90644240D01*
X193943173Y-90689490D01*
X193963494Y-90756339D01*
X193963500Y-90757519D01*
X193963500Y-92738745D01*
X193943815Y-92805784D01*
X193891011Y-92851539D01*
X193835074Y-92862666D01*
X193797773Y-92861333D01*
X193797766Y-92861334D01*
X193658320Y-92896926D01*
X193534545Y-92970365D01*
X193534540Y-92970369D01*
X193436476Y-93075697D01*
X193436473Y-93075701D01*
X193407742Y-93128315D01*
X193030060Y-94040125D01*
X193026686Y-94048271D01*
X193024813Y-94054649D01*
X193009793Y-94105798D01*
X193004656Y-94249623D01*
X193004657Y-94249630D01*
X193033388Y-94362194D01*
X193040250Y-94389078D01*
X193113689Y-94512853D01*
X193113691Y-94512855D01*
X193113692Y-94512856D01*
X193219020Y-94610920D01*
X193219023Y-94610922D01*
X193219025Y-94610924D01*
X193237737Y-94621142D01*
X193271638Y-94639654D01*
X193271644Y-94639656D01*
X193271645Y-94639657D01*
X194745921Y-95250321D01*
X194803447Y-95267213D01*
X194933789Y-95271868D01*
X194947274Y-95272350D01*
X194947274Y-95272349D01*
X194947277Y-95272350D01*
X195086729Y-95236757D01*
X195210504Y-95163318D01*
X195308575Y-95057982D01*
X195333009Y-95013235D01*
X195337305Y-95005368D01*
X195337305Y-95005365D01*
X195337308Y-95005362D01*
X195718362Y-94085413D01*
X195735254Y-94027888D01*
X195740391Y-93884058D01*
X195736254Y-93867851D01*
X195719857Y-93803605D01*
X195704798Y-93744606D01*
X195631359Y-93620831D01*
X195606448Y-93597638D01*
X195526027Y-93522763D01*
X195526023Y-93522760D01*
X195473409Y-93494029D01*
X195241047Y-93397781D01*
X195186644Y-93353940D01*
X195164579Y-93287645D01*
X195164500Y-93283220D01*
X195164500Y-90217487D01*
X195165561Y-90201301D01*
X195169682Y-90170000D01*
X195169682Y-90169998D01*
X195149044Y-90013239D01*
X195149044Y-90013238D01*
X195093973Y-89880287D01*
X195085215Y-89819871D01*
X195088460Y-89789003D01*
X195088460Y-89789002D01*
X195085332Y-89759238D01*
X195068674Y-89600744D01*
X195010179Y-89420716D01*
X194915533Y-89256784D01*
X194788871Y-89116112D01*
X194753051Y-89090087D01*
X194635734Y-89004851D01*
X194635729Y-89004848D01*
X194462807Y-88927857D01*
X194462802Y-88927855D01*
X194298718Y-88892979D01*
X194277646Y-88888500D01*
X194088354Y-88888500D01*
X194088353Y-88888500D01*
X194067279Y-88892979D01*
X193997612Y-88887662D01*
X193941879Y-88845524D01*
X193917775Y-88779943D01*
X193917500Y-88771688D01*
X193917500Y-84668783D01*
X193918809Y-84650813D01*
X193919129Y-84648625D01*
X193922289Y-84627055D01*
X193921003Y-84612358D01*
X193917972Y-84577708D01*
X193917500Y-84566900D01*
X193917500Y-84561374D01*
X193917500Y-84561369D01*
X193913901Y-84530587D01*
X193913536Y-84527007D01*
X193906999Y-84452279D01*
X193905539Y-84445207D01*
X193905597Y-84445194D01*
X193903965Y-84437835D01*
X193903906Y-84437850D01*
X193902241Y-84430829D01*
X193902241Y-84430823D01*
X193876569Y-84360290D01*
X193875421Y-84356987D01*
X193851814Y-84285744D01*
X193851810Y-84285737D01*
X193848760Y-84279196D01*
X193848815Y-84279169D01*
X193845533Y-84272391D01*
X193845480Y-84272418D01*
X193842235Y-84265958D01*
X193801025Y-84203301D01*
X193799086Y-84200259D01*
X193759710Y-84136420D01*
X193755234Y-84130760D01*
X193755281Y-84130722D01*
X193750519Y-84124877D01*
X193750474Y-84124916D01*
X193745831Y-84119383D01*
X193691273Y-84067910D01*
X193688686Y-84065397D01*
X193606609Y-83983320D01*
X193573124Y-83921997D01*
X193578108Y-83852305D01*
X193619980Y-83796372D01*
X193685444Y-83771955D01*
X193725702Y-83775684D01*
X193735974Y-83778373D01*
X193887145Y-83775792D01*
X193972864Y-83751775D01*
X194185873Y-83663543D01*
X193803472Y-82740344D01*
X194128187Y-82740344D01*
X194463035Y-83548738D01*
X194463037Y-83548739D01*
X194676032Y-83460514D01*
X194676042Y-83460509D01*
X194753642Y-83416877D01*
X194753643Y-83416876D01*
X194862359Y-83311812D01*
X194938700Y-83181305D01*
X194938701Y-83181301D01*
X194977000Y-83035047D01*
X194974417Y-82883876D01*
X194950400Y-82798157D01*
X194809549Y-82458114D01*
X194128188Y-82740343D01*
X194128187Y-82740344D01*
X193803472Y-82740344D01*
X193737636Y-82581403D01*
X193401372Y-81769589D01*
X193188362Y-81857821D01*
X193188355Y-81857825D01*
X193110772Y-81901448D01*
X193110766Y-81901453D01*
X193002050Y-82006517D01*
X192925709Y-82137024D01*
X192925708Y-82137028D01*
X192885261Y-82291489D01*
X192882983Y-82290892D01*
X192860311Y-82343733D01*
X192802420Y-82382855D01*
X192732569Y-82384468D01*
X192672935Y-82348061D01*
X192670953Y-82345823D01*
X192655672Y-82328141D01*
X192655670Y-82328139D01*
X192513438Y-82225432D01*
X192351352Y-82158293D01*
X192344402Y-82156323D01*
X192345035Y-82154087D01*
X192292063Y-82128784D01*
X192260309Y-82083939D01*
X192082548Y-81654785D01*
X193678535Y-81654785D01*
X194013383Y-82463180D01*
X194013384Y-82463181D01*
X194694744Y-82180952D01*
X194694745Y-82180951D01*
X194553896Y-81840911D01*
X194553890Y-81840898D01*
X194510265Y-81763313D01*
X194405199Y-81654596D01*
X194274692Y-81578255D01*
X194274688Y-81578254D01*
X194128434Y-81539955D01*
X193977264Y-81542537D01*
X193891553Y-81566552D01*
X193891538Y-81566557D01*
X193678536Y-81654784D01*
X193678535Y-81654785D01*
X192082548Y-81654785D01*
X191766434Y-80891617D01*
X191593268Y-80473557D01*
X193459852Y-80473557D01*
X193591798Y-80792100D01*
X193604087Y-80814164D01*
X193604089Y-80814166D01*
X193685202Y-80891617D01*
X193685207Y-80891620D01*
X193788830Y-80934542D01*
X193788828Y-80934542D01*
X193900958Y-80937131D01*
X193925243Y-80930222D01*
X194520954Y-80683469D01*
X194291344Y-80129141D01*
X194291343Y-80129140D01*
X193459852Y-80473557D01*
X191593268Y-80473557D01*
X191556154Y-80383956D01*
X191550486Y-80366849D01*
X191544611Y-80343576D01*
X191544610Y-80343572D01*
X191521734Y-80299629D01*
X191517167Y-80289833D01*
X191515052Y-80284728D01*
X191515046Y-80284714D01*
X191499951Y-80257670D01*
X191498237Y-80254491D01*
X191463603Y-80187957D01*
X191459546Y-80181981D01*
X191459596Y-80181946D01*
X191455271Y-80175769D01*
X191455222Y-80175805D01*
X191450996Y-80169953D01*
X191450994Y-80169950D01*
X191450993Y-80169949D01*
X191400300Y-80114627D01*
X191397938Y-80111973D01*
X191348885Y-80055211D01*
X191348884Y-80055210D01*
X191343563Y-80050334D01*
X191343603Y-80050290D01*
X191337969Y-80045276D01*
X191337930Y-80045322D01*
X191332468Y-80040601D01*
X191332466Y-80040599D01*
X191320481Y-80032464D01*
X191270401Y-79998472D01*
X191267448Y-79996404D01*
X191206651Y-79952502D01*
X191200344Y-79948982D01*
X191200372Y-79948930D01*
X191193733Y-79945350D01*
X191193706Y-79945404D01*
X191187305Y-79942071D01*
X191142060Y-79924854D01*
X191117199Y-79915393D01*
X191113869Y-79914070D01*
X190967787Y-79853561D01*
X193206191Y-79853561D01*
X193213102Y-79877851D01*
X193345048Y-80196393D01*
X193784570Y-80014337D01*
X194568506Y-80014337D01*
X194798117Y-80568663D01*
X194798118Y-80568663D01*
X195393831Y-80321911D01*
X195415889Y-80309626D01*
X195415890Y-80309625D01*
X195493343Y-80228510D01*
X195536267Y-80124883D01*
X195538856Y-80012754D01*
X195531945Y-79988464D01*
X195399998Y-79669921D01*
X194568507Y-80014336D01*
X194568506Y-80014337D01*
X193784570Y-80014337D01*
X194176539Y-79851978D01*
X194176540Y-79851977D01*
X193946929Y-79297650D01*
X193351216Y-79544404D01*
X193329158Y-79556689D01*
X193329157Y-79556690D01*
X193251704Y-79637805D01*
X193208780Y-79741432D01*
X193206191Y-79853561D01*
X190967787Y-79853561D01*
X189884819Y-79404981D01*
X189830416Y-79361140D01*
X189808351Y-79294846D01*
X189825630Y-79227147D01*
X189836889Y-79213199D01*
X189835926Y-79212423D01*
X189841486Y-79205521D01*
X189841493Y-79205515D01*
X189854944Y-79182845D01*
X194224092Y-79182845D01*
X194453702Y-79737173D01*
X194453703Y-79737174D01*
X195285194Y-79392757D01*
X195153249Y-79074215D01*
X195140960Y-79052151D01*
X195140958Y-79052149D01*
X195059845Y-78974698D01*
X195059840Y-78974695D01*
X194956217Y-78931773D01*
X194956219Y-78931773D01*
X194844089Y-78929184D01*
X194819804Y-78936093D01*
X194224093Y-79182844D01*
X194224092Y-79182845D01*
X189854944Y-79182845D01*
X189914932Y-79081740D01*
X189950525Y-78942288D01*
X189950149Y-78931773D01*
X189945388Y-78798461D01*
X189945388Y-78798458D01*
X189928497Y-78740933D01*
X189547441Y-77820985D01*
X189518709Y-77768364D01*
X189499160Y-77747367D01*
X189420644Y-77663033D01*
X189420639Y-77663029D01*
X189420638Y-77663028D01*
X189410489Y-77657006D01*
X189393883Y-77647153D01*
X189346273Y-77596015D01*
X189333158Y-77540512D01*
X189333158Y-76604494D01*
X189352843Y-76537455D01*
X189405647Y-76491700D01*
X189474805Y-76481756D01*
X189530039Y-76504174D01*
X189666266Y-76603148D01*
X189666270Y-76603151D01*
X189839192Y-76680142D01*
X189839197Y-76680144D01*
X190024354Y-76719500D01*
X190024355Y-76719500D01*
X190213644Y-76719500D01*
X190213646Y-76719500D01*
X190398803Y-76680144D01*
X190571730Y-76603151D01*
X190724871Y-76491888D01*
X190748197Y-76465981D01*
X190753109Y-76460527D01*
X190812595Y-76423879D01*
X190845258Y-76419500D01*
X191654171Y-76419500D01*
X191721210Y-76439185D01*
X191766965Y-76491989D01*
X191776909Y-76561147D01*
X191774319Y-76574166D01*
X191741801Y-76701566D01*
X191741800Y-76701573D01*
X191746937Y-76845397D01*
X191746938Y-76845401D01*
X191763829Y-76902926D01*
X191763830Y-76902930D01*
X191763831Y-76902931D01*
X192144885Y-77822874D01*
X192173617Y-77875495D01*
X192271681Y-77980825D01*
X192271685Y-77980828D01*
X192271688Y-77980831D01*
X192395463Y-78054270D01*
X192448610Y-78067835D01*
X192534910Y-78089862D01*
X192534912Y-78089862D01*
X192534915Y-78089863D01*
X192534916Y-78089862D01*
X192534917Y-78089863D01*
X192582858Y-78088150D01*
X192678745Y-78084726D01*
X192736270Y-78067835D01*
X194210546Y-77457169D01*
X194263167Y-77428437D01*
X194368503Y-77330366D01*
X194441942Y-77206591D01*
X194477535Y-77067139D01*
X194472398Y-76923309D01*
X194455507Y-76865784D01*
X194074451Y-75945836D01*
X194045719Y-75893215D01*
X194038409Y-75885363D01*
X193947654Y-75787884D01*
X193947649Y-75787880D01*
X193947648Y-75787879D01*
X193823873Y-75714440D01*
X193823872Y-75714439D01*
X193823871Y-75714439D01*
X193684425Y-75678847D01*
X193684418Y-75678846D01*
X193540594Y-75683983D01*
X193540590Y-75683984D01*
X193518645Y-75690428D01*
X193483066Y-75700875D01*
X193483064Y-75700875D01*
X193483060Y-75700877D01*
X193059234Y-75876431D01*
X192989764Y-75883900D01*
X192927285Y-75852625D01*
X192924100Y-75849551D01*
X192502512Y-75427964D01*
X192491817Y-75415769D01*
X192472596Y-75390719D01*
X192464177Y-75384259D01*
X192347154Y-75294464D01*
X192331249Y-75287876D01*
X192201075Y-75233956D01*
X192201073Y-75233955D01*
X192083674Y-75218500D01*
X192044313Y-75213318D01*
X192013010Y-75217439D01*
X191996826Y-75218500D01*
X190845258Y-75218500D01*
X190778219Y-75198815D01*
X190753109Y-75177473D01*
X190724871Y-75146112D01*
X190724864Y-75146106D01*
X190571734Y-75034851D01*
X190571729Y-75034848D01*
X190398807Y-74957857D01*
X190398802Y-74957855D01*
X190253001Y-74926865D01*
X190213646Y-74918500D01*
X190024354Y-74918500D01*
X189991897Y-74925398D01*
X189839197Y-74957855D01*
X189839192Y-74957857D01*
X189666270Y-75034848D01*
X189666265Y-75034851D01*
X189513129Y-75146111D01*
X189513128Y-75146112D01*
X189395491Y-75276760D01*
X189336004Y-75313408D01*
X189266147Y-75312077D01*
X189208099Y-75273190D01*
X189197803Y-75258883D01*
X189175370Y-75222513D01*
X189170892Y-75216850D01*
X189170939Y-75216812D01*
X189166177Y-75210967D01*
X189166132Y-75211006D01*
X189161489Y-75205473D01*
X189106930Y-75153999D01*
X189104343Y-75151486D01*
X185245213Y-71292355D01*
X185211728Y-71231032D01*
X185216712Y-71161340D01*
X185218306Y-71157288D01*
X185218306Y-71157285D01*
X185218309Y-71157280D01*
X185247944Y-71058298D01*
X185260403Y-70887277D01*
X185260691Y-70883321D01*
X185258823Y-70871742D01*
X185232743Y-70710118D01*
X185165604Y-70548031D01*
X185138914Y-70511070D01*
X185062896Y-70405797D01*
X185062894Y-70405795D01*
X185059136Y-70402547D01*
X185045240Y-70390538D01*
X185007388Y-70331812D01*
X185007296Y-70261942D01*
X185044992Y-70203114D01*
X185099992Y-70177908D01*
X185099547Y-70176207D01*
X185254007Y-70135759D01*
X185254011Y-70135758D01*
X185384518Y-70059417D01*
X185489582Y-69950701D01*
X185489583Y-69950700D01*
X185533215Y-69873100D01*
X185533220Y-69873090D01*
X185621445Y-69660095D01*
X185621444Y-69660093D01*
X184751816Y-69299882D01*
X184751815Y-69299882D01*
X184143916Y-69048082D01*
X184927853Y-69048082D01*
X184927854Y-69048083D01*
X185736249Y-69382931D01*
X185824481Y-69169922D01*
X185848498Y-69084203D01*
X185851080Y-68933033D01*
X185812781Y-68786779D01*
X185812780Y-68786775D01*
X185736439Y-68656268D01*
X185627722Y-68551202D01*
X185550128Y-68507572D01*
X185210084Y-68366722D01*
X185210083Y-68366722D01*
X184927853Y-69048082D01*
X184143916Y-69048082D01*
X183727491Y-68875593D01*
X183727490Y-68875594D01*
X183639263Y-69088596D01*
X183639258Y-69088611D01*
X183615243Y-69174322D01*
X183612661Y-69325492D01*
X183650960Y-69471746D01*
X183650961Y-69471750D01*
X183731584Y-69609577D01*
X183729550Y-69610766D01*
X183750884Y-69664156D01*
X183737617Y-69732754D01*
X183689369Y-69783290D01*
X183621458Y-69799719D01*
X183618429Y-69799535D01*
X183595159Y-69797839D01*
X183421953Y-69825788D01*
X183421952Y-69825789D01*
X183259865Y-69892927D01*
X183253563Y-69896445D01*
X183252430Y-69894416D01*
X183197081Y-69913981D01*
X183142915Y-69904724D01*
X181442941Y-69200572D01*
X181426842Y-69192487D01*
X181406215Y-69180175D01*
X181406208Y-69180172D01*
X181358955Y-69165273D01*
X181348796Y-69161576D01*
X181343708Y-69159468D01*
X181343698Y-69159465D01*
X181343696Y-69159464D01*
X181313873Y-69151005D01*
X181310495Y-69149993D01*
X181238892Y-69127418D01*
X181238888Y-69127417D01*
X181231804Y-69126062D01*
X181231814Y-69126005D01*
X181224383Y-69124694D01*
X181224374Y-69124753D01*
X181217245Y-69123602D01*
X181142347Y-69120332D01*
X181138748Y-69120122D01*
X181063919Y-69114670D01*
X181056705Y-69114986D01*
X181056702Y-69114927D01*
X181049173Y-69115365D01*
X181049178Y-69115425D01*
X181041967Y-69115950D01*
X180968350Y-69130037D01*
X180964802Y-69130663D01*
X180890711Y-69142619D01*
X180883764Y-69144590D01*
X180883748Y-69144535D01*
X180876527Y-69146697D01*
X180876545Y-69146754D01*
X180869658Y-69148925D01*
X180801274Y-69179609D01*
X180797965Y-69181036D01*
X179568881Y-69690139D01*
X179499411Y-69697608D01*
X179436932Y-69666333D01*
X179401280Y-69606244D01*
X179399392Y-69588417D01*
X179398149Y-69588551D01*
X179397200Y-69579728D01*
X179377025Y-69500685D01*
X179361608Y-69440281D01*
X179288169Y-69316506D01*
X179270314Y-69299882D01*
X179182837Y-69218438D01*
X179182833Y-69218435D01*
X179130219Y-69189704D01*
X178210269Y-68808650D01*
X178210268Y-68808649D01*
X178210264Y-68808648D01*
X178152739Y-68791756D01*
X178142853Y-68791402D01*
X178050310Y-68788097D01*
X177984016Y-68766032D01*
X177940176Y-68711628D01*
X177932707Y-68642158D01*
X177954597Y-68598430D01*
X183842295Y-68598430D01*
X184650690Y-68933279D01*
X184650691Y-68933278D01*
X184932919Y-68251918D01*
X184932919Y-68251917D01*
X184592878Y-68111067D01*
X184507159Y-68087050D01*
X184355988Y-68084467D01*
X184209734Y-68122766D01*
X184209730Y-68122767D01*
X184079223Y-68199108D01*
X183974159Y-68307824D01*
X183974154Y-68307830D01*
X183930531Y-68385413D01*
X183930527Y-68385420D01*
X183842295Y-68598430D01*
X177954597Y-68598430D01*
X177963983Y-68579679D01*
X177967028Y-68576523D01*
X178625745Y-67917806D01*
X182852409Y-67917806D01*
X182852410Y-67917807D01*
X183170957Y-68049753D01*
X183195234Y-68056663D01*
X183195243Y-68056664D01*
X183307370Y-68054075D01*
X183410997Y-68011151D01*
X183492113Y-67933698D01*
X183492113Y-67933697D01*
X183504394Y-67911650D01*
X183504401Y-67911637D01*
X183751152Y-67315925D01*
X183751151Y-67315924D01*
X183196824Y-67086314D01*
X183196823Y-67086315D01*
X182852409Y-67917806D01*
X178625745Y-67917806D01*
X179181652Y-67361899D01*
X182111671Y-67361899D01*
X182114260Y-67474026D01*
X182157182Y-67577648D01*
X182157185Y-67577653D01*
X182234638Y-67658768D01*
X182256685Y-67671049D01*
X182256699Y-67671056D01*
X182575245Y-67803002D01*
X182575246Y-67803001D01*
X182919661Y-66971511D01*
X182919660Y-66971510D01*
X182527691Y-66809151D01*
X183311627Y-66809151D01*
X183311628Y-66809152D01*
X183865955Y-67038762D01*
X183865956Y-67038761D01*
X184112707Y-66443050D01*
X184119617Y-66418773D01*
X184119618Y-66418764D01*
X184117029Y-66306637D01*
X184074107Y-66203015D01*
X184074104Y-66203010D01*
X183996651Y-66121895D01*
X183974604Y-66109614D01*
X183974590Y-66109607D01*
X183656044Y-65977661D01*
X183656043Y-65977661D01*
X183311627Y-66809151D01*
X182527691Y-66809151D01*
X182365333Y-66741900D01*
X182365332Y-66741901D01*
X182118583Y-67337609D01*
X182118583Y-67337610D01*
X182111672Y-67361890D01*
X182111671Y-67361899D01*
X179181652Y-67361899D01*
X179651665Y-66891886D01*
X179712986Y-66858403D01*
X179782678Y-66863387D01*
X179786767Y-66864996D01*
X180048271Y-66973314D01*
X180105796Y-66990206D01*
X180163328Y-66992260D01*
X180249623Y-66995343D01*
X180249623Y-66995342D01*
X180249626Y-66995343D01*
X180389078Y-66959750D01*
X180512853Y-66886311D01*
X180610924Y-66780975D01*
X180639657Y-66728355D01*
X180748851Y-66464737D01*
X182480136Y-66464737D01*
X182480137Y-66464738D01*
X183034464Y-66694348D01*
X183034465Y-66694347D01*
X183378879Y-65862856D01*
X183378878Y-65862855D01*
X183060332Y-65730910D01*
X183036055Y-65724000D01*
X183036046Y-65723999D01*
X182923919Y-65726588D01*
X182820292Y-65769512D01*
X182739176Y-65846965D01*
X182739176Y-65846966D01*
X182726895Y-65869013D01*
X182726888Y-65869027D01*
X182480136Y-66464737D01*
X180748851Y-66464737D01*
X181250321Y-65254079D01*
X181267213Y-65196553D01*
X181272044Y-65061298D01*
X181272350Y-65052725D01*
X181272349Y-65052718D01*
X181236757Y-64913272D01*
X181236757Y-64913271D01*
X181163318Y-64789496D01*
X181163314Y-64789492D01*
X181057986Y-64691428D01*
X181057982Y-64691425D01*
X181005368Y-64662694D01*
X180085418Y-64281640D01*
X180085417Y-64281639D01*
X180085413Y-64281638D01*
X180027888Y-64264746D01*
X180027885Y-64264745D01*
X179884060Y-64259608D01*
X179884053Y-64259609D01*
X179744607Y-64295201D01*
X179620832Y-64368640D01*
X179620827Y-64368644D01*
X179522763Y-64473972D01*
X179522760Y-64473976D01*
X179494029Y-64526590D01*
X178920486Y-65911247D01*
X178893606Y-65951475D01*
X176647902Y-68197181D01*
X176586579Y-68230666D01*
X176560221Y-68233500D01*
X174970258Y-68233500D01*
X174903219Y-68213815D01*
X174878109Y-68192473D01*
X174849871Y-68161112D01*
X174849864Y-68161106D01*
X174696734Y-68049851D01*
X174696729Y-68049848D01*
X174523807Y-67972857D01*
X174523802Y-67972855D01*
X174378001Y-67941865D01*
X174338646Y-67933500D01*
X174149354Y-67933500D01*
X174116897Y-67940398D01*
X173964197Y-67972855D01*
X173964192Y-67972857D01*
X173791270Y-68049848D01*
X173791265Y-68049851D01*
X173638129Y-68161111D01*
X173511466Y-68301785D01*
X173416821Y-68465715D01*
X173416818Y-68465722D01*
X173373699Y-68598430D01*
X173358326Y-68645744D01*
X173338540Y-68834000D01*
X173358326Y-69022256D01*
X173358327Y-69022259D01*
X173416818Y-69202277D01*
X173416821Y-69202284D01*
X173423459Y-69213782D01*
X173425887Y-69217986D01*
X173442360Y-69285886D01*
X173419508Y-69351913D01*
X173364587Y-69395103D01*
X173318500Y-69403986D01*
X173005715Y-69403986D01*
X172938676Y-69384301D01*
X172918034Y-69367667D01*
X171997669Y-68447302D01*
X171049574Y-67499206D01*
X171037794Y-67485575D01*
X171023455Y-67466315D01*
X170985496Y-67434464D01*
X170977531Y-67427163D01*
X170973625Y-67423256D01*
X170949288Y-67404013D01*
X170946492Y-67401735D01*
X170889059Y-67353543D01*
X170883025Y-67349574D01*
X170883057Y-67349525D01*
X170876698Y-67345473D01*
X170876667Y-67345524D01*
X170870525Y-67341736D01*
X170870523Y-67341735D01*
X170870522Y-67341734D01*
X170802533Y-67310029D01*
X170799292Y-67308460D01*
X170758191Y-67287819D01*
X170732278Y-67274805D01*
X170732276Y-67274804D01*
X170732275Y-67274804D01*
X170725490Y-67272334D01*
X170725510Y-67272278D01*
X170718394Y-67269804D01*
X170718376Y-67269860D01*
X170711519Y-67267588D01*
X170638055Y-67252418D01*
X170634538Y-67251638D01*
X170561563Y-67234344D01*
X170554392Y-67233506D01*
X170554398Y-67233446D01*
X170546891Y-67232679D01*
X170546886Y-67232739D01*
X170540160Y-67232150D01*
X170539613Y-67231936D01*
X170538114Y-67231783D01*
X170532627Y-67230650D01*
X170532903Y-67229310D01*
X170475093Y-67206692D01*
X170439585Y-67160204D01*
X170438512Y-67160715D01*
X170437159Y-67157870D01*
X170437154Y-67157856D01*
X170427349Y-67139671D01*
X170388118Y-67066911D01*
X170388116Y-67066908D01*
X170273401Y-66934167D01*
X170131170Y-66831459D01*
X170131168Y-66831458D01*
X169969082Y-66764320D01*
X169795876Y-66736371D01*
X169772606Y-66738067D01*
X169704313Y-66723305D01*
X169654843Y-66673965D01*
X169639901Y-66605712D01*
X169660969Y-66548996D01*
X169659452Y-66548109D01*
X169740074Y-66410282D01*
X169740075Y-66410278D01*
X169778374Y-66264024D01*
X169775792Y-66112854D01*
X169763158Y-66067763D01*
X171145787Y-66067763D01*
X171175413Y-66337013D01*
X171175415Y-66337024D01*
X171230600Y-66548109D01*
X171243928Y-66599088D01*
X171349870Y-66848390D01*
X171452962Y-67017312D01*
X171490979Y-67079605D01*
X171490986Y-67079615D01*
X171664253Y-67287819D01*
X171664259Y-67287824D01*
X171824052Y-67430998D01*
X171865998Y-67468582D01*
X172091910Y-67618044D01*
X172337176Y-67733020D01*
X172337183Y-67733022D01*
X172337185Y-67733023D01*
X172596557Y-67811057D01*
X172596564Y-67811058D01*
X172596569Y-67811060D01*
X172864561Y-67850500D01*
X172864566Y-67850500D01*
X173067629Y-67850500D01*
X173067631Y-67850500D01*
X173067636Y-67850499D01*
X173067648Y-67850499D01*
X173105191Y-67847750D01*
X173270156Y-67835677D01*
X173416839Y-67803002D01*
X173534546Y-67776782D01*
X173534548Y-67776781D01*
X173534553Y-67776780D01*
X173787558Y-67680014D01*
X174023777Y-67547441D01*
X174238177Y-67381888D01*
X174426186Y-67186881D01*
X174583799Y-66966579D01*
X174664738Y-66809151D01*
X174707649Y-66725690D01*
X174707651Y-66725684D01*
X174707656Y-66725675D01*
X174795118Y-66469305D01*
X174844319Y-66202933D01*
X174854212Y-65932235D01*
X174824586Y-65662982D01*
X174756072Y-65400912D01*
X174650130Y-65151610D01*
X174509018Y-64920390D01*
X174419747Y-64813119D01*
X174335746Y-64712180D01*
X174335740Y-64712175D01*
X174134002Y-64531418D01*
X173908092Y-64381957D01*
X173879693Y-64368644D01*
X173662824Y-64266980D01*
X173662819Y-64266978D01*
X173662814Y-64266976D01*
X173403442Y-64188942D01*
X173403428Y-64188939D01*
X173287791Y-64171921D01*
X173135439Y-64149500D01*
X172932369Y-64149500D01*
X172932351Y-64149500D01*
X172729844Y-64164323D01*
X172729831Y-64164325D01*
X172465453Y-64223217D01*
X172465446Y-64223220D01*
X172212439Y-64319987D01*
X171976226Y-64452557D01*
X171976224Y-64452558D01*
X171976223Y-64452559D01*
X171956156Y-64468054D01*
X171761822Y-64618112D01*
X171573822Y-64813109D01*
X171573816Y-64813116D01*
X171416202Y-65033419D01*
X171416199Y-65033424D01*
X171292350Y-65274309D01*
X171292343Y-65274327D01*
X171204884Y-65530685D01*
X171204881Y-65530699D01*
X171202000Y-65546296D01*
X171157088Y-65789453D01*
X171155681Y-65797068D01*
X171155680Y-65797075D01*
X171145787Y-66067763D01*
X169763158Y-66067763D01*
X169751775Y-66027135D01*
X169663543Y-65814125D01*
X168612739Y-66249383D01*
X168612735Y-66249383D01*
X167769590Y-66598625D01*
X167769589Y-66598626D01*
X167857821Y-66811637D01*
X167857825Y-66811644D01*
X167901448Y-66889227D01*
X167901453Y-66889233D01*
X168006517Y-66997949D01*
X168137024Y-67074290D01*
X168137028Y-67074291D01*
X168291489Y-67114739D01*
X168290891Y-67117020D01*
X168343713Y-67139671D01*
X168382847Y-67197553D01*
X168384475Y-67267404D01*
X168348080Y-67327046D01*
X168345796Y-67329070D01*
X168328143Y-67344325D01*
X168328139Y-67344329D01*
X168225432Y-67486561D01*
X168158292Y-67648652D01*
X168156322Y-67655599D01*
X168154087Y-67654965D01*
X168128780Y-67707939D01*
X168083937Y-67739690D01*
X166383954Y-68443845D01*
X166366855Y-68449512D01*
X166343573Y-68455389D01*
X166299628Y-68478265D01*
X166289847Y-68482827D01*
X166284716Y-68484953D01*
X166284711Y-68484955D01*
X166257646Y-68500061D01*
X166254472Y-68501772D01*
X166187952Y-68536400D01*
X166181978Y-68540455D01*
X166181945Y-68540407D01*
X166175775Y-68544728D01*
X166175809Y-68544775D01*
X166169950Y-68549006D01*
X166114658Y-68599670D01*
X166111967Y-68602065D01*
X166055211Y-68651114D01*
X166050330Y-68656441D01*
X166050286Y-68656401D01*
X166045274Y-68662033D01*
X166045319Y-68662072D01*
X166040597Y-68667536D01*
X165998489Y-68729573D01*
X165996421Y-68732526D01*
X165952505Y-68793343D01*
X165948985Y-68799651D01*
X165948933Y-68799622D01*
X165945353Y-68806261D01*
X165945406Y-68806289D01*
X165942071Y-68812695D01*
X165915401Y-68882779D01*
X165914070Y-68886129D01*
X165404980Y-70115180D01*
X165361139Y-70169583D01*
X165294845Y-70191648D01*
X165227145Y-70174369D01*
X165213200Y-70163109D01*
X165212423Y-70164074D01*
X165205517Y-70158509D01*
X165205515Y-70158507D01*
X165081740Y-70085068D01*
X165081739Y-70085067D01*
X165081738Y-70085067D01*
X164942292Y-70049475D01*
X164942285Y-70049474D01*
X164798461Y-70054611D01*
X164798457Y-70054612D01*
X164766695Y-70063938D01*
X164740933Y-70071503D01*
X164740931Y-70071503D01*
X164740927Y-70071505D01*
X163820984Y-70452559D01*
X163768363Y-70481291D01*
X163663033Y-70579355D01*
X163663027Y-70579363D01*
X163589588Y-70703138D01*
X163553996Y-70842584D01*
X163553995Y-70842591D01*
X163559132Y-70986415D01*
X163559133Y-70986419D01*
X163576024Y-71043944D01*
X163576025Y-71043948D01*
X163576026Y-71043949D01*
X164186690Y-72518220D01*
X164215422Y-72570841D01*
X164313486Y-72676171D01*
X164313490Y-72676174D01*
X164313493Y-72676177D01*
X164437268Y-72749616D01*
X164490411Y-72763180D01*
X164576715Y-72785208D01*
X164576717Y-72785208D01*
X164576720Y-72785209D01*
X164576721Y-72785208D01*
X164576722Y-72785209D01*
X164624663Y-72783496D01*
X164720550Y-72780072D01*
X164778075Y-72763181D01*
X165698023Y-72382125D01*
X165750644Y-72353393D01*
X165855980Y-72255322D01*
X165929419Y-72131547D01*
X165965012Y-71992095D01*
X165959875Y-71848265D01*
X165959873Y-71848261D01*
X165958634Y-71840611D01*
X165960940Y-71840237D01*
X165960939Y-71782027D01*
X165998712Y-71723248D01*
X166032463Y-71702398D01*
X166096510Y-71675869D01*
X166113613Y-71670202D01*
X166136891Y-71664327D01*
X166180833Y-71641451D01*
X166190610Y-71636892D01*
X166195745Y-71634766D01*
X166222931Y-71619591D01*
X166225918Y-71617981D01*
X166292510Y-71583318D01*
X166292515Y-71583313D01*
X166298491Y-71579258D01*
X166298525Y-71579309D01*
X166304693Y-71574990D01*
X166304657Y-71574940D01*
X166310511Y-71570711D01*
X166310515Y-71570710D01*
X166365822Y-71520030D01*
X166368468Y-71517674D01*
X166425252Y-71468603D01*
X166425255Y-71468597D01*
X166430129Y-71463280D01*
X166430174Y-71463321D01*
X166435187Y-71457688D01*
X166435141Y-71457649D01*
X166439858Y-71452189D01*
X166439865Y-71452184D01*
X166482022Y-71390071D01*
X166484003Y-71387240D01*
X166527961Y-71326369D01*
X166527963Y-71326363D01*
X166531480Y-71320064D01*
X166531533Y-71320093D01*
X166535110Y-71313460D01*
X166535056Y-71313432D01*
X166538386Y-71307031D01*
X166538393Y-71307022D01*
X166565088Y-71236866D01*
X166566382Y-71233609D01*
X166781871Y-70713373D01*
X166825712Y-70658971D01*
X166892006Y-70636906D01*
X166959706Y-70654185D01*
X167007316Y-70705323D01*
X167010992Y-70713372D01*
X167179121Y-71119270D01*
X167235493Y-71255364D01*
X167264225Y-71307985D01*
X167362289Y-71413315D01*
X167362292Y-71413317D01*
X167362296Y-71413321D01*
X167486071Y-71486760D01*
X167539214Y-71500324D01*
X167625518Y-71522352D01*
X167625520Y-71522352D01*
X167625523Y-71522353D01*
X167625524Y-71522352D01*
X167625525Y-71522353D01*
X167690032Y-71520049D01*
X167769353Y-71517216D01*
X167826878Y-71500325D01*
X168746826Y-71119269D01*
X168799447Y-71090537D01*
X168904783Y-70992466D01*
X168978222Y-70868691D01*
X168983421Y-70848319D01*
X169019071Y-70788233D01*
X169081550Y-70756957D01*
X169103569Y-70754986D01*
X169707742Y-70754986D01*
X169774781Y-70774671D01*
X169799891Y-70796013D01*
X169828128Y-70827373D01*
X169828135Y-70827379D01*
X169981265Y-70938634D01*
X169981270Y-70938637D01*
X170154192Y-71015628D01*
X170154197Y-71015630D01*
X170339354Y-71054986D01*
X170339355Y-71054986D01*
X170528644Y-71054986D01*
X170528646Y-71054986D01*
X170713803Y-71015630D01*
X170886730Y-70938637D01*
X171039871Y-70827374D01*
X171166533Y-70686702D01*
X171261179Y-70522770D01*
X171319674Y-70342742D01*
X171335364Y-70193452D01*
X171361949Y-70128839D01*
X171419246Y-70088854D01*
X171489065Y-70086194D01*
X171546366Y-70118734D01*
X172067756Y-70640124D01*
X172079537Y-70653756D01*
X172093874Y-70673014D01*
X172131823Y-70704858D01*
X172139796Y-70712165D01*
X172143703Y-70716072D01*
X172143709Y-70716077D01*
X172168023Y-70735302D01*
X172170804Y-70737566D01*
X172191564Y-70754986D01*
X172228275Y-70785791D01*
X172234304Y-70789756D01*
X172234271Y-70789805D01*
X172240633Y-70793858D01*
X172240665Y-70793807D01*
X172246805Y-70797594D01*
X172246809Y-70797597D01*
X172285463Y-70815621D01*
X172314806Y-70829305D01*
X172318052Y-70830877D01*
X172385048Y-70864524D01*
X172391843Y-70866997D01*
X172391822Y-70867053D01*
X172398941Y-70869528D01*
X172398960Y-70869472D01*
X172405810Y-70871741D01*
X172405813Y-70871743D01*
X172479328Y-70886921D01*
X172482776Y-70887686D01*
X172527982Y-70898401D01*
X172555760Y-70904985D01*
X172555761Y-70904985D01*
X172555765Y-70904986D01*
X172555769Y-70904986D01*
X172562938Y-70905824D01*
X172562930Y-70905883D01*
X172570431Y-70906650D01*
X172570437Y-70906591D01*
X172577626Y-70907220D01*
X172577630Y-70907219D01*
X172577631Y-70907220D01*
X172652617Y-70905038D01*
X172656224Y-70904986D01*
X176972702Y-70904986D01*
X177039741Y-70924671D01*
X177079343Y-70965712D01*
X177095217Y-70992466D01*
X177095219Y-70992468D01*
X177095220Y-70992469D01*
X177200548Y-71090533D01*
X177200551Y-71090535D01*
X177200553Y-71090537D01*
X177219265Y-71100755D01*
X177253166Y-71119267D01*
X177253172Y-71119269D01*
X177253173Y-71119270D01*
X178173122Y-71500324D01*
X178230647Y-71517216D01*
X178288179Y-71519270D01*
X178374474Y-71522353D01*
X178374474Y-71522352D01*
X178374477Y-71522353D01*
X178513929Y-71486760D01*
X178637704Y-71413321D01*
X178735775Y-71307985D01*
X178735778Y-71307978D01*
X178740306Y-71301700D01*
X178742204Y-71303068D01*
X178783339Y-71261914D01*
X178851608Y-71247045D01*
X178890243Y-71256169D01*
X178954280Y-71282694D01*
X178970382Y-71290781D01*
X178981595Y-71297474D01*
X178991007Y-71303092D01*
X179038269Y-71317993D01*
X179048407Y-71321683D01*
X179053527Y-71323804D01*
X179083358Y-71332263D01*
X179086713Y-71333268D01*
X179158329Y-71355849D01*
X179158337Y-71355849D01*
X179165431Y-71357208D01*
X179165419Y-71357268D01*
X179172831Y-71358575D01*
X179172841Y-71358514D01*
X179179970Y-71359663D01*
X179179975Y-71359665D01*
X179254964Y-71362938D01*
X179258463Y-71363142D01*
X179333308Y-71368595D01*
X179333317Y-71368593D01*
X179340525Y-71368279D01*
X179340527Y-71368341D01*
X179348052Y-71367903D01*
X179348048Y-71367842D01*
X179355243Y-71367317D01*
X179355251Y-71367318D01*
X179428944Y-71353215D01*
X179432445Y-71352597D01*
X179506508Y-71340647D01*
X179506511Y-71340645D01*
X179513458Y-71338676D01*
X179513474Y-71338735D01*
X179520695Y-71336573D01*
X179520677Y-71336515D01*
X179527562Y-71334343D01*
X179527565Y-71334343D01*
X179596031Y-71303620D01*
X179599276Y-71302220D01*
X180119501Y-71086735D01*
X180188971Y-71079267D01*
X180251450Y-71110542D01*
X180287102Y-71170631D01*
X180284608Y-71240456D01*
X180281515Y-71248750D01*
X180060626Y-71782027D01*
X180057017Y-71790739D01*
X180042483Y-71840237D01*
X180040125Y-71848266D01*
X180034987Y-71992092D01*
X180034988Y-71992099D01*
X180070580Y-72131545D01*
X180070581Y-72131547D01*
X180144020Y-72255322D01*
X180144022Y-72255324D01*
X180144023Y-72255325D01*
X180249351Y-72353389D01*
X180249354Y-72353391D01*
X180249356Y-72353393D01*
X180268068Y-72363611D01*
X180301969Y-72382123D01*
X180301975Y-72382125D01*
X180301976Y-72382126D01*
X181221925Y-72763180D01*
X181279450Y-72780072D01*
X181336982Y-72782126D01*
X181423277Y-72785209D01*
X181423277Y-72785208D01*
X181423280Y-72785209D01*
X181562732Y-72749616D01*
X181580810Y-72738889D01*
X181648507Y-72721608D01*
X181714802Y-72743670D01*
X181731766Y-72757847D01*
X183484330Y-74510412D01*
X185183957Y-76210039D01*
X185194651Y-76222233D01*
X185213872Y-76247282D01*
X185233539Y-76262373D01*
X185242137Y-76268970D01*
X185242157Y-76268987D01*
X185339311Y-76343535D01*
X185339312Y-76343535D01*
X185339313Y-76343536D01*
X185485392Y-76404044D01*
X185545885Y-76412008D01*
X185642153Y-76424682D01*
X185642154Y-76424682D01*
X185673456Y-76420560D01*
X185689641Y-76419500D01*
X186090742Y-76419500D01*
X186157781Y-76439185D01*
X186182891Y-76460527D01*
X186211128Y-76491887D01*
X186211135Y-76491893D01*
X186364265Y-76603148D01*
X186364270Y-76603151D01*
X186537192Y-76680142D01*
X186537197Y-76680144D01*
X186564859Y-76686024D01*
X186626341Y-76719216D01*
X186660117Y-76780380D01*
X186662298Y-76821197D01*
X186656837Y-76869667D01*
X186629771Y-76934081D01*
X186621298Y-76943465D01*
X183852962Y-79711801D01*
X183840772Y-79722492D01*
X183815717Y-79741718D01*
X183809079Y-79750369D01*
X183743986Y-79835200D01*
X183743985Y-79835200D01*
X183719461Y-79867160D01*
X183658953Y-80013240D01*
X183658952Y-80013242D01*
X183638315Y-80170001D01*
X183638315Y-80170002D01*
X183642436Y-80201304D01*
X183643497Y-80217490D01*
X183643497Y-84520756D01*
X183642436Y-84536941D01*
X183638315Y-84568242D01*
X183638315Y-84568244D01*
X183643497Y-84607604D01*
X183643497Y-84607605D01*
X183658952Y-84725004D01*
X183658953Y-84725006D01*
X183719461Y-84871085D01*
X183815715Y-84996526D01*
X183837592Y-85013313D01*
X183840766Y-85015748D01*
X183852961Y-85026443D01*
X184180552Y-85354034D01*
X184191246Y-85366228D01*
X184210470Y-85391281D01*
X184262706Y-85431363D01*
X184318243Y-85473978D01*
X184330438Y-85484673D01*
X184711181Y-85865416D01*
X184744666Y-85926739D01*
X184747500Y-85953097D01*
X184747500Y-88398225D01*
X184727815Y-88465264D01*
X184720450Y-88475534D01*
X184718186Y-88478372D01*
X184622211Y-88631114D01*
X184562631Y-88801383D01*
X184562630Y-88801388D01*
X184542435Y-88980634D01*
X184542435Y-88980641D01*
X184562630Y-89159887D01*
X184562631Y-89159892D01*
X184622211Y-89330161D01*
X184679111Y-89420716D01*
X184718184Y-89482900D01*
X184845738Y-89610454D01*
X184936080Y-89667220D01*
X184997653Y-89705909D01*
X184998478Y-89706427D01*
X185168745Y-89766006D01*
X185217385Y-89771486D01*
X185281796Y-89798551D01*
X185321352Y-89856146D01*
X185327500Y-89894706D01*
X185327500Y-91110500D01*
X185307815Y-91177539D01*
X185291181Y-91198181D01*
X182854614Y-93634747D01*
X182793291Y-93668232D01*
X182753050Y-93670286D01*
X182596185Y-93652612D01*
X182596177Y-93652612D01*
X182416931Y-93672807D01*
X182416926Y-93672808D01*
X182246657Y-93732388D01*
X182093918Y-93828361D01*
X181966365Y-93955914D01*
X181870392Y-94108653D01*
X181810812Y-94278922D01*
X181810811Y-94278927D01*
X181790616Y-94458173D01*
X181790616Y-94458180D01*
X181810946Y-94638617D01*
X181798891Y-94707438D01*
X181751542Y-94758818D01*
X181687726Y-94776500D01*
X177974487Y-94776500D01*
X177958302Y-94775439D01*
X177927000Y-94771318D01*
X177887639Y-94776500D01*
X177770239Y-94791955D01*
X177770237Y-94791956D01*
X177624160Y-94852463D01*
X177498714Y-94948721D01*
X177479495Y-94973769D01*
X177468800Y-94985964D01*
X177019465Y-95435298D01*
X176958142Y-95468783D01*
X176945668Y-95470837D01*
X176858750Y-95480630D01*
X176688478Y-95540210D01*
X176535737Y-95636184D01*
X176408184Y-95763737D01*
X176312211Y-95916476D01*
X176252631Y-96086745D01*
X176252630Y-96086750D01*
X176232435Y-96265996D01*
X176232435Y-96266003D01*
X176252630Y-96445249D01*
X176252631Y-96445254D01*
X176312211Y-96615523D01*
X176364149Y-96698181D01*
X176408184Y-96768262D01*
X176535738Y-96895816D01*
X176688478Y-96991789D01*
X176775565Y-97022262D01*
X176858745Y-97051368D01*
X176858750Y-97051369D01*
X177037996Y-97071565D01*
X177038000Y-97071565D01*
X177038002Y-97071565D01*
X177081930Y-97066615D01*
X177110945Y-97063346D01*
X177179767Y-97075400D01*
X177231146Y-97122749D01*
X177248771Y-97190359D01*
X177227045Y-97256765D01*
X177212510Y-97274247D01*
X175114465Y-99372292D01*
X175053142Y-99405777D01*
X175040668Y-99407831D01*
X174953750Y-99417624D01*
X174783478Y-99477204D01*
X174630737Y-99573178D01*
X174503184Y-99700731D01*
X174407211Y-99853470D01*
X174347631Y-100023739D01*
X174347630Y-100023744D01*
X174327435Y-100202990D01*
X174327435Y-100202997D01*
X174347630Y-100382243D01*
X174347631Y-100382248D01*
X174407211Y-100552517D01*
X174458383Y-100633956D01*
X174503184Y-100705256D01*
X174630738Y-100832810D01*
X174783478Y-100928783D01*
X174921806Y-100977186D01*
X174953745Y-100988362D01*
X174953750Y-100988363D01*
X175132996Y-101008559D01*
X175133000Y-101008559D01*
X175133004Y-101008559D01*
X175312249Y-100988363D01*
X175312252Y-100988362D01*
X175312255Y-100988362D01*
X175482522Y-100928783D01*
X175635262Y-100832810D01*
X175762816Y-100705256D01*
X175858789Y-100552516D01*
X175918368Y-100382249D01*
X175928161Y-100295323D01*
X175955226Y-100230912D01*
X175963690Y-100221537D01*
X179662411Y-96522819D01*
X179723734Y-96489334D01*
X179750092Y-96486500D01*
X181383903Y-96486500D01*
X181450942Y-96506185D01*
X181496697Y-96558989D01*
X181506641Y-96628147D01*
X181477616Y-96691703D01*
X181471584Y-96698181D01*
X180976902Y-97192861D01*
X180915579Y-97226346D01*
X180860625Y-97225838D01*
X180816099Y-97215285D01*
X180643579Y-97215285D01*
X180531713Y-97241798D01*
X180475709Y-97255071D01*
X180321535Y-97332500D01*
X180242778Y-97396657D01*
X180242760Y-97396673D01*
X179819676Y-97819759D01*
X179819657Y-97819780D01*
X179755502Y-97898533D01*
X179755498Y-97898539D01*
X179678071Y-98052709D01*
X179671787Y-98079223D01*
X179640856Y-98209734D01*
X179638285Y-98220581D01*
X179638285Y-98381755D01*
X179618600Y-98448794D01*
X179565796Y-98494549D01*
X179514285Y-98505755D01*
X179353109Y-98505755D01*
X179227207Y-98535594D01*
X179185239Y-98545541D01*
X179031065Y-98622970D01*
X178952308Y-98687127D01*
X178952290Y-98687143D01*
X178529206Y-99110229D01*
X178529187Y-99110250D01*
X178465032Y-99189003D01*
X178465028Y-99189009D01*
X178387601Y-99343179D01*
X178381162Y-99370349D01*
X178347815Y-99511049D01*
X178347815Y-99683569D01*
X178351883Y-99700732D01*
X178358368Y-99728095D01*
X178354674Y-99797867D01*
X178325391Y-99844372D01*
X177587584Y-100582181D01*
X177526261Y-100615666D01*
X177499903Y-100618500D01*
X177262377Y-100618500D01*
X177246192Y-100617439D01*
X177214890Y-100613318D01*
X177214889Y-100613318D01*
X177058129Y-100633955D01*
X177058127Y-100633956D01*
X176912050Y-100694463D01*
X176786604Y-100790721D01*
X176767385Y-100815769D01*
X176756690Y-100827964D01*
X175175960Y-102408695D01*
X175114637Y-102442180D01*
X175088279Y-102445014D01*
X173998500Y-102445014D01*
X173931461Y-102425329D01*
X173885706Y-102372525D01*
X173874500Y-102321014D01*
X173874500Y-95711634D01*
X173876027Y-95692233D01*
X173876933Y-95686513D01*
X173878219Y-95678396D01*
X173874670Y-95610671D01*
X173874500Y-95604182D01*
X173874500Y-95583817D01*
X173874499Y-95583808D01*
X173872371Y-95563560D01*
X173871862Y-95557103D01*
X173868313Y-95489362D01*
X173864684Y-95475820D01*
X173861138Y-95456692D01*
X173859674Y-95442752D01*
X173838715Y-95378249D01*
X173836876Y-95372036D01*
X173819321Y-95306525D01*
X173819320Y-95306520D01*
X173812956Y-95294030D01*
X173805511Y-95276058D01*
X173801179Y-95262724D01*
X173801174Y-95262715D01*
X173767265Y-95203983D01*
X173764178Y-95198300D01*
X173733383Y-95137859D01*
X173733382Y-95137857D01*
X173724560Y-95126963D01*
X173713538Y-95110926D01*
X173706532Y-95098791D01*
X173706531Y-95098789D01*
X173661146Y-95048384D01*
X173656931Y-95043449D01*
X173644119Y-95027628D01*
X173641792Y-95025301D01*
X173629706Y-95013215D01*
X173625254Y-95008523D01*
X173579872Y-94958121D01*
X173579871Y-94958120D01*
X173568525Y-94949877D01*
X173553734Y-94937243D01*
X172813076Y-94196585D01*
X172813733Y-94195927D01*
X172779135Y-94139760D01*
X172780469Y-94069903D01*
X172811076Y-94019422D01*
X172882119Y-93948380D01*
X172971383Y-93838149D01*
X173057320Y-93669488D01*
X173106313Y-93486645D01*
X173116219Y-93297612D01*
X173098515Y-93185833D01*
X173086608Y-93110653D01*
X173086607Y-93110650D01*
X173077445Y-93086783D01*
X173018771Y-92933930D01*
X172915674Y-92775175D01*
X172781825Y-92641326D01*
X172623070Y-92538229D01*
X172522646Y-92499680D01*
X172446349Y-92470392D01*
X172446346Y-92470391D01*
X172259391Y-92440781D01*
X172259389Y-92440780D01*
X172070358Y-92450686D01*
X172070354Y-92450687D01*
X171887512Y-92499679D01*
X171718845Y-92585620D01*
X171608621Y-92674880D01*
X171608611Y-92674889D01*
X170616263Y-93667236D01*
X170601474Y-93679869D01*
X170590126Y-93688114D01*
X170544751Y-93738508D01*
X170540288Y-93743211D01*
X170525891Y-93757609D01*
X170525875Y-93757627D01*
X170513058Y-93773452D01*
X170508852Y-93778376D01*
X170463469Y-93828781D01*
X170463466Y-93828785D01*
X170456458Y-93840923D01*
X170445444Y-93856948D01*
X170436626Y-93867837D01*
X170436616Y-93867853D01*
X170405819Y-93928294D01*
X170402722Y-93933997D01*
X170368821Y-93992713D01*
X170364487Y-94006053D01*
X170357045Y-94024018D01*
X170350680Y-94036512D01*
X170333126Y-94102018D01*
X170331284Y-94108234D01*
X170310326Y-94172742D01*
X170310325Y-94172745D01*
X170308860Y-94186686D01*
X170305315Y-94205812D01*
X170301686Y-94219352D01*
X170298136Y-94287091D01*
X170297628Y-94293552D01*
X170295500Y-94313811D01*
X170295500Y-94334174D01*
X170295330Y-94340663D01*
X170291781Y-94408387D01*
X170293973Y-94422225D01*
X170295500Y-94441626D01*
X170295500Y-95296373D01*
X170293972Y-95315772D01*
X170291781Y-95329612D01*
X170294004Y-95372036D01*
X170295330Y-95397335D01*
X170295500Y-95403824D01*
X170295500Y-95424192D01*
X170296593Y-95434594D01*
X170297628Y-95444448D01*
X170298136Y-95450909D01*
X170301686Y-95518643D01*
X170301688Y-95518653D01*
X170305315Y-95532189D01*
X170308860Y-95551314D01*
X170310325Y-95565249D01*
X170310326Y-95565256D01*
X170310328Y-95565262D01*
X170331282Y-95629755D01*
X170333125Y-95635976D01*
X170350679Y-95701486D01*
X170350684Y-95701498D01*
X170357043Y-95713978D01*
X170364488Y-95731949D01*
X170368821Y-95745284D01*
X170398694Y-95797025D01*
X170402726Y-95804009D01*
X170405822Y-95809712D01*
X170436616Y-95870147D01*
X170436620Y-95870153D01*
X170445438Y-95881043D01*
X170456454Y-95897070D01*
X170463465Y-95909213D01*
X170463470Y-95909220D01*
X170508855Y-95959627D01*
X170513063Y-95964554D01*
X170525883Y-95980383D01*
X170540275Y-95994775D01*
X170544743Y-95999483D01*
X170590128Y-96049887D01*
X170601468Y-96058126D01*
X170616265Y-96070764D01*
X171021181Y-96475680D01*
X171054666Y-96537003D01*
X171057500Y-96563361D01*
X171057500Y-102321014D01*
X171037815Y-102388053D01*
X170985011Y-102433808D01*
X170933500Y-102445014D01*
X170127412Y-102445014D01*
X170060373Y-102425329D01*
X170050097Y-102417959D01*
X170047263Y-102415699D01*
X170047262Y-102415698D01*
X169978553Y-102372525D01*
X169894523Y-102319725D01*
X169724254Y-102260145D01*
X169724249Y-102260144D01*
X169545004Y-102239949D01*
X169544996Y-102239949D01*
X169365750Y-102260144D01*
X169365745Y-102260145D01*
X169195476Y-102319725D01*
X169042737Y-102415698D01*
X168915184Y-102543251D01*
X168819209Y-102695993D01*
X168796906Y-102759732D01*
X168756184Y-102816507D01*
X168691231Y-102842254D01*
X168632412Y-102833337D01*
X167826883Y-102499678D01*
X167826882Y-102499677D01*
X167826878Y-102499676D01*
X167769353Y-102482784D01*
X167769350Y-102482783D01*
X167625525Y-102477646D01*
X167625518Y-102477647D01*
X167486072Y-102513239D01*
X167362297Y-102586678D01*
X167362292Y-102586682D01*
X167264228Y-102692010D01*
X167264225Y-102692014D01*
X167235494Y-102744628D01*
X167049614Y-103193384D01*
X166902960Y-103547441D01*
X166884299Y-103592492D01*
X166840458Y-103646895D01*
X166774164Y-103668960D01*
X166769738Y-103669039D01*
X165523903Y-103669039D01*
X165456864Y-103649354D01*
X165411109Y-103596550D01*
X165401165Y-103527392D01*
X165409342Y-103497586D01*
X165942983Y-102209261D01*
X165959875Y-102151735D01*
X165965012Y-102007905D01*
X165963963Y-102003797D01*
X165937749Y-101901089D01*
X165929419Y-101868453D01*
X165855980Y-101744678D01*
X165854051Y-101742882D01*
X165750648Y-101646610D01*
X165750644Y-101646607D01*
X165698030Y-101617876D01*
X164778080Y-101236822D01*
X164778079Y-101236821D01*
X164778075Y-101236820D01*
X164720550Y-101219928D01*
X164720547Y-101219927D01*
X164576722Y-101214790D01*
X164576715Y-101214791D01*
X164437268Y-101250383D01*
X164419184Y-101261113D01*
X164351484Y-101278391D01*
X164285190Y-101256324D01*
X164268232Y-101242151D01*
X161314045Y-98287964D01*
X161303349Y-98275767D01*
X161284132Y-98250722D01*
X161284129Y-98250720D01*
X161284128Y-98250718D01*
X161158687Y-98154464D01*
X161157115Y-98153813D01*
X161012608Y-98093956D01*
X161012606Y-98093955D01*
X160895207Y-98078500D01*
X160855846Y-98073318D01*
X160824543Y-98077439D01*
X160808359Y-98078500D01*
X158951402Y-98078500D01*
X158884363Y-98058815D01*
X158874087Y-98051445D01*
X158871253Y-98049185D01*
X158871252Y-98049184D01*
X158787648Y-97996652D01*
X158718513Y-97953211D01*
X158548244Y-97893631D01*
X158548239Y-97893630D01*
X158368994Y-97873435D01*
X158368985Y-97873435D01*
X158305724Y-97880562D01*
X158236902Y-97868507D01*
X158185524Y-97821157D01*
X158167842Y-97757342D01*
X158167842Y-96041295D01*
X158187527Y-95974256D01*
X158240331Y-95928501D01*
X158244376Y-95926739D01*
X158518220Y-95813310D01*
X158570841Y-95784578D01*
X158649189Y-95711634D01*
X158676171Y-95686513D01*
X158676172Y-95686511D01*
X158676177Y-95686507D01*
X158749616Y-95562732D01*
X158785209Y-95423280D01*
X158784599Y-95406214D01*
X158780072Y-95279453D01*
X158780072Y-95279452D01*
X158780072Y-95279450D01*
X158763181Y-95221925D01*
X158382125Y-94301977D01*
X158353393Y-94249356D01*
X158348608Y-94244216D01*
X158255328Y-94144025D01*
X158255323Y-94144021D01*
X158255322Y-94144020D01*
X158131547Y-94070581D01*
X158131546Y-94070580D01*
X158131545Y-94070580D01*
X157992099Y-94034988D01*
X157992092Y-94034987D01*
X157848268Y-94040124D01*
X157840611Y-94041366D01*
X157840237Y-94039064D01*
X157781999Y-94039052D01*
X157723229Y-94001265D01*
X157702398Y-93967534D01*
X157697092Y-93954725D01*
X157687337Y-93931172D01*
X157675872Y-93903493D01*
X157670203Y-93886386D01*
X157669615Y-93884058D01*
X157664328Y-93863109D01*
X157641452Y-93819166D01*
X157636885Y-93809370D01*
X157634770Y-93804265D01*
X157634764Y-93804251D01*
X157628545Y-93793110D01*
X157619659Y-93777189D01*
X157617955Y-93774028D01*
X157583321Y-93707494D01*
X157579264Y-93701518D01*
X157579314Y-93701483D01*
X157574989Y-93695306D01*
X157574940Y-93695342D01*
X157570714Y-93689490D01*
X157570712Y-93689487D01*
X157570711Y-93689486D01*
X157520018Y-93634164D01*
X157517656Y-93631510D01*
X157468603Y-93574748D01*
X157468602Y-93574747D01*
X157463281Y-93569871D01*
X157463321Y-93569827D01*
X157457687Y-93564813D01*
X157457648Y-93564859D01*
X157452186Y-93560138D01*
X157452184Y-93560136D01*
X157448068Y-93557342D01*
X157390119Y-93518009D01*
X157387166Y-93515941D01*
X157326369Y-93472039D01*
X157320062Y-93468519D01*
X157320090Y-93468467D01*
X157313451Y-93464887D01*
X157313424Y-93464941D01*
X157307023Y-93461608D01*
X157271284Y-93448008D01*
X157236917Y-93434930D01*
X157233587Y-93433607D01*
X156713374Y-93218127D01*
X156658971Y-93174286D01*
X156636906Y-93107992D01*
X156654185Y-93040292D01*
X156705323Y-92992682D01*
X156713340Y-92989020D01*
X157255364Y-92764507D01*
X157307985Y-92735775D01*
X157413321Y-92637704D01*
X157486760Y-92513929D01*
X157522353Y-92374477D01*
X157517216Y-92230647D01*
X157500325Y-92173122D01*
X157344890Y-91797870D01*
X169599500Y-91797870D01*
X169599501Y-91797876D01*
X169605908Y-91857483D01*
X169656202Y-91992328D01*
X169656206Y-91992335D01*
X169742452Y-92107544D01*
X169742455Y-92107547D01*
X169857664Y-92193793D01*
X169857671Y-92193797D01*
X169992517Y-92244091D01*
X169992516Y-92244091D01*
X169999444Y-92244835D01*
X170052127Y-92250500D01*
X171447872Y-92250499D01*
X171507483Y-92244091D01*
X171642331Y-92193796D01*
X171757546Y-92107546D01*
X171843796Y-91992331D01*
X171894091Y-91857483D01*
X171900500Y-91797873D01*
X171900499Y-91125000D01*
X174300001Y-91125000D01*
X174300001Y-91794785D01*
X174300002Y-91794808D01*
X174302908Y-91819869D01*
X174302909Y-91819873D01*
X174348211Y-91922474D01*
X174348214Y-91922479D01*
X174427520Y-92001785D01*
X174427525Y-92001788D01*
X174530123Y-92047089D01*
X174555206Y-92049999D01*
X175099999Y-92049999D01*
X175100000Y-92049998D01*
X175100000Y-91125000D01*
X174300001Y-91125000D01*
X171900499Y-91125000D01*
X171900499Y-90825000D01*
X174300000Y-90825000D01*
X175100000Y-90825000D01*
X175100000Y-89900000D01*
X175400000Y-89900000D01*
X175400000Y-90825000D01*
X176199999Y-90825000D01*
X176199999Y-90155214D01*
X176199997Y-90155191D01*
X176197091Y-90130130D01*
X176197090Y-90130126D01*
X176151788Y-90027525D01*
X176151785Y-90027520D01*
X176072479Y-89948214D01*
X176072474Y-89948211D01*
X175969876Y-89902910D01*
X175944794Y-89900000D01*
X175400000Y-89900000D01*
X175100000Y-89900000D01*
X174555214Y-89900000D01*
X174555191Y-89900002D01*
X174530130Y-89902908D01*
X174530126Y-89902909D01*
X174427525Y-89948211D01*
X174427520Y-89948214D01*
X174348214Y-90027520D01*
X174348211Y-90027525D01*
X174302910Y-90130122D01*
X174302910Y-90130124D01*
X174300000Y-90155205D01*
X174300000Y-90825000D01*
X171900499Y-90825000D01*
X171900499Y-90152128D01*
X171894091Y-90092517D01*
X171891068Y-90084413D01*
X171843797Y-89957671D01*
X171843793Y-89957664D01*
X171757547Y-89842455D01*
X171757544Y-89842452D01*
X171642335Y-89756206D01*
X171642328Y-89756202D01*
X171507483Y-89705908D01*
X171461243Y-89700937D01*
X171396693Y-89674199D01*
X171356845Y-89616806D01*
X171350500Y-89577648D01*
X171350500Y-84774097D01*
X171370185Y-84707058D01*
X171422989Y-84661303D01*
X171492147Y-84651359D01*
X171555703Y-84680384D01*
X171562181Y-84686416D01*
X172991799Y-86116034D01*
X173002493Y-86128228D01*
X173021717Y-86153281D01*
X173021718Y-86153282D01*
X173053324Y-86177534D01*
X173053326Y-86177536D01*
X173076232Y-86195112D01*
X173147159Y-86249536D01*
X173147161Y-86249536D01*
X173147163Y-86249538D01*
X173220198Y-86279790D01*
X173293238Y-86310044D01*
X173371619Y-86320363D01*
X173449999Y-86330682D01*
X173450000Y-86330682D01*
X173481302Y-86326560D01*
X173497487Y-86325500D01*
X176991903Y-86325500D01*
X177058942Y-86345185D01*
X177079584Y-86361819D01*
X177102662Y-86384897D01*
X177136147Y-86446220D01*
X177131163Y-86515912D01*
X177102663Y-86560259D01*
X177043183Y-86619739D01*
X176947211Y-86772476D01*
X176887631Y-86942745D01*
X176887630Y-86942750D01*
X176867435Y-87121996D01*
X176867435Y-87122003D01*
X176887630Y-87301249D01*
X176887631Y-87301254D01*
X176947211Y-87471523D01*
X177007515Y-87567496D01*
X177031575Y-87605787D01*
X177043185Y-87624263D01*
X177045445Y-87627097D01*
X177046334Y-87629275D01*
X177046889Y-87630158D01*
X177046734Y-87630255D01*
X177071855Y-87691783D01*
X177072500Y-87704412D01*
X177072500Y-91075703D01*
X177052815Y-91142742D01*
X177036181Y-91163384D01*
X176677157Y-91522407D01*
X176615834Y-91555892D01*
X176575593Y-91557946D01*
X176419983Y-91540414D01*
X176419975Y-91540414D01*
X176337882Y-91549663D01*
X176269060Y-91537608D01*
X176217681Y-91490259D01*
X176199999Y-91426443D01*
X176200000Y-91125000D01*
X175400000Y-91125000D01*
X175400000Y-92049999D01*
X175509006Y-92049999D01*
X175576045Y-92069684D01*
X175621800Y-92122488D01*
X175632226Y-92187882D01*
X175614414Y-92345974D01*
X175614414Y-92345981D01*
X175634609Y-92525228D01*
X175634610Y-92525233D01*
X175694190Y-92695502D01*
X175750050Y-92784402D01*
X175790163Y-92848241D01*
X175917717Y-92975795D01*
X175974285Y-93011339D01*
X176056292Y-93062868D01*
X176070457Y-93071768D01*
X176180602Y-93110309D01*
X176237378Y-93151031D01*
X176256690Y-93186396D01*
X176295232Y-93296544D01*
X176378421Y-93428938D01*
X176391205Y-93449283D01*
X176518759Y-93576837D01*
X176588769Y-93620827D01*
X176671495Y-93672808D01*
X176671499Y-93672810D01*
X176778225Y-93710155D01*
X176841766Y-93732389D01*
X176841771Y-93732390D01*
X177021017Y-93752586D01*
X177021021Y-93752586D01*
X177021025Y-93752586D01*
X177200270Y-93732390D01*
X177200273Y-93732389D01*
X177200276Y-93732389D01*
X177370543Y-93672810D01*
X177523283Y-93576837D01*
X177650837Y-93449283D01*
X177746810Y-93296543D01*
X177806389Y-93126276D01*
X177806390Y-93126270D01*
X177826586Y-92947024D01*
X177826586Y-92947017D01*
X177809053Y-92791404D01*
X177821108Y-92722582D01*
X177844589Y-92689844D01*
X178514045Y-92020388D01*
X178526231Y-92009702D01*
X178551283Y-91990481D01*
X178575451Y-91958985D01*
X178581578Y-91951001D01*
X178608387Y-91916062D01*
X178647537Y-91865041D01*
X178647538Y-91865037D01*
X178647540Y-91865035D01*
X178675363Y-91797864D01*
X178708045Y-91718962D01*
X178728683Y-91562200D01*
X178725445Y-91537608D01*
X178724562Y-91530897D01*
X178723501Y-91514712D01*
X178723501Y-88589663D01*
X178743186Y-88522624D01*
X178781529Y-88484669D01*
X178784519Y-88482789D01*
X178784522Y-88482789D01*
X178937262Y-88386816D01*
X178937263Y-88386814D01*
X178937266Y-88386813D01*
X178942710Y-88382472D01*
X178944499Y-88384716D01*
X178994429Y-88357381D01*
X179064126Y-88362288D01*
X179108602Y-88390837D01*
X180846181Y-90128416D01*
X180879666Y-90189739D01*
X180882500Y-90216097D01*
X180882500Y-90461587D01*
X180862815Y-90528626D01*
X180855450Y-90538896D01*
X180853186Y-90541734D01*
X180757211Y-90694476D01*
X180697631Y-90864745D01*
X180697630Y-90864750D01*
X180677435Y-91043996D01*
X180677435Y-91044003D01*
X180697630Y-91223249D01*
X180697631Y-91223254D01*
X180757211Y-91393523D01*
X180847249Y-91536817D01*
X180853184Y-91546262D01*
X180980738Y-91673816D01*
X181133478Y-91769789D01*
X181276610Y-91819873D01*
X181303745Y-91829368D01*
X181303750Y-91829369D01*
X181482996Y-91849565D01*
X181483000Y-91849565D01*
X181483004Y-91849565D01*
X181662249Y-91829369D01*
X181662252Y-91829368D01*
X181662255Y-91829368D01*
X181832522Y-91769789D01*
X181985262Y-91673816D01*
X182112816Y-91546262D01*
X182208789Y-91393522D01*
X182268368Y-91223255D01*
X182270926Y-91200552D01*
X182288565Y-91044003D01*
X182288565Y-91043996D01*
X182268369Y-90864750D01*
X182268368Y-90864745D01*
X182208788Y-90694476D01*
X182175645Y-90641730D01*
X182112816Y-90541738D01*
X182112814Y-90541736D01*
X182112813Y-90541734D01*
X182110550Y-90538896D01*
X182109659Y-90536715D01*
X182109111Y-90535842D01*
X182109264Y-90535745D01*
X182084144Y-90474209D01*
X182083500Y-90461587D01*
X182083500Y-89963487D01*
X182084561Y-89947301D01*
X182088682Y-89916000D01*
X182088682Y-89915998D01*
X182068044Y-89759239D01*
X182068044Y-89759238D01*
X182007536Y-89613159D01*
X182005460Y-89610454D01*
X181911282Y-89487718D01*
X181905003Y-89482900D01*
X181886228Y-89468493D01*
X181874034Y-89457799D01*
X178522238Y-86106003D01*
X180237433Y-86106003D01*
X180257628Y-86285249D01*
X180257629Y-86285254D01*
X180317209Y-86455523D01*
X180398626Y-86585097D01*
X180413182Y-86608262D01*
X180540736Y-86735816D01*
X180693476Y-86831789D01*
X180863743Y-86891368D01*
X180863748Y-86891369D01*
X181042994Y-86911565D01*
X181042998Y-86911565D01*
X181043002Y-86911565D01*
X181222247Y-86891369D01*
X181222250Y-86891368D01*
X181222253Y-86891368D01*
X181392520Y-86831789D01*
X181545260Y-86735816D01*
X181672814Y-86608262D01*
X181768787Y-86455522D01*
X181828366Y-86285255D01*
X181828367Y-86285249D01*
X181848563Y-86106003D01*
X181848563Y-86105996D01*
X181828367Y-85926750D01*
X181828366Y-85926745D01*
X181768786Y-85756476D01*
X181672813Y-85603737D01*
X181545260Y-85476184D01*
X181392521Y-85380211D01*
X181222252Y-85320631D01*
X181222247Y-85320630D01*
X181043002Y-85300435D01*
X181042994Y-85300435D01*
X180863748Y-85320630D01*
X180863743Y-85320631D01*
X180693474Y-85380211D01*
X180540735Y-85476184D01*
X180413182Y-85603737D01*
X180317209Y-85756476D01*
X180257629Y-85926745D01*
X180257628Y-85926750D01*
X180237433Y-86105996D01*
X180237433Y-86106003D01*
X178522238Y-86106003D01*
X177750199Y-85333964D01*
X177739503Y-85321767D01*
X177720286Y-85296722D01*
X177720283Y-85296720D01*
X177720282Y-85296718D01*
X177594841Y-85200464D01*
X177448762Y-85139956D01*
X177448760Y-85139955D01*
X177400217Y-85133565D01*
X177292001Y-85119318D01*
X177292000Y-85119318D01*
X177260697Y-85123439D01*
X177244513Y-85124500D01*
X173750097Y-85124500D01*
X173683058Y-85104815D01*
X173662416Y-85088181D01*
X171936818Y-83362583D01*
X171903333Y-83301260D01*
X171900499Y-83274902D01*
X171900499Y-83175000D01*
X174300001Y-83175000D01*
X174300001Y-83844785D01*
X174300002Y-83844808D01*
X174302908Y-83869869D01*
X174302909Y-83869873D01*
X174348211Y-83972474D01*
X174348214Y-83972479D01*
X174427520Y-84051785D01*
X174427525Y-84051788D01*
X174530123Y-84097089D01*
X174555206Y-84099999D01*
X175099999Y-84099999D01*
X175100000Y-84099998D01*
X175100000Y-83175000D01*
X175400000Y-83175000D01*
X175400000Y-84099999D01*
X175944786Y-84099999D01*
X175944808Y-84099997D01*
X175969869Y-84097091D01*
X175969873Y-84097090D01*
X176072474Y-84051788D01*
X176072479Y-84051785D01*
X176151785Y-83972479D01*
X176151788Y-83972474D01*
X176197089Y-83869877D01*
X176197089Y-83869875D01*
X176199999Y-83844794D01*
X176200000Y-83844791D01*
X176200000Y-83175000D01*
X175400000Y-83175000D01*
X175100000Y-83175000D01*
X174300001Y-83175000D01*
X171900499Y-83175000D01*
X171900499Y-82875000D01*
X174300000Y-82875000D01*
X175100000Y-82875000D01*
X175100000Y-81950000D01*
X175400000Y-81950000D01*
X175400000Y-82875000D01*
X176199999Y-82875000D01*
X176199999Y-82205214D01*
X176199997Y-82205191D01*
X176197091Y-82180130D01*
X176197090Y-82180126D01*
X176151788Y-82077525D01*
X176151785Y-82077520D01*
X176072479Y-81998214D01*
X176072474Y-81998211D01*
X175969876Y-81952910D01*
X175944794Y-81950000D01*
X175400000Y-81950000D01*
X175100000Y-81950000D01*
X174555214Y-81950000D01*
X174555191Y-81950002D01*
X174530130Y-81952908D01*
X174530126Y-81952909D01*
X174427525Y-81998211D01*
X174427520Y-81998214D01*
X174348214Y-82077520D01*
X174348211Y-82077525D01*
X174302910Y-82180122D01*
X174302910Y-82180124D01*
X174300000Y-82205205D01*
X174300000Y-82875000D01*
X171900499Y-82875000D01*
X171900499Y-82202129D01*
X171900498Y-82202123D01*
X171900497Y-82202116D01*
X171894091Y-82142517D01*
X171892042Y-82137024D01*
X171843797Y-82007671D01*
X171843793Y-82007664D01*
X171757547Y-81892455D01*
X171757544Y-81892452D01*
X171642335Y-81806206D01*
X171642328Y-81806202D01*
X171507482Y-81755908D01*
X171507483Y-81755908D01*
X171447883Y-81749501D01*
X171447881Y-81749500D01*
X171447873Y-81749500D01*
X171447864Y-81749500D01*
X170052129Y-81749500D01*
X170052123Y-81749501D01*
X169992516Y-81755908D01*
X169857671Y-81806202D01*
X169857664Y-81806206D01*
X169742455Y-81892452D01*
X169742452Y-81892455D01*
X169656206Y-82007664D01*
X169656202Y-82007671D01*
X169605908Y-82142517D01*
X169599501Y-82202116D01*
X169599501Y-82202123D01*
X169599500Y-82202135D01*
X169599500Y-83847870D01*
X169599501Y-83847876D01*
X169605908Y-83907483D01*
X169656202Y-84042328D01*
X169656206Y-84042335D01*
X169742452Y-84157544D01*
X169742455Y-84157547D01*
X169857664Y-84243793D01*
X169857671Y-84243797D01*
X169992516Y-84294091D01*
X170038757Y-84299063D01*
X170103307Y-84325801D01*
X170143155Y-84383194D01*
X170149500Y-84422352D01*
X170149500Y-89577648D01*
X170129815Y-89644687D01*
X170077011Y-89690442D01*
X170038755Y-89700938D01*
X169992516Y-89705909D01*
X169857671Y-89756202D01*
X169857664Y-89756206D01*
X169742455Y-89842452D01*
X169742452Y-89842455D01*
X169656206Y-89957664D01*
X169656202Y-89957671D01*
X169605908Y-90092517D01*
X169599501Y-90152116D01*
X169599501Y-90152123D01*
X169599500Y-90152135D01*
X169599500Y-91797870D01*
X157344890Y-91797870D01*
X157119269Y-91253174D01*
X157090537Y-91200553D01*
X157085752Y-91195413D01*
X156992472Y-91095222D01*
X156992467Y-91095218D01*
X156992466Y-91095217D01*
X156906144Y-91044000D01*
X156868688Y-91021776D01*
X156848320Y-91016578D01*
X156788231Y-90980925D01*
X156756956Y-90918446D01*
X156754986Y-90896430D01*
X156754986Y-87621973D01*
X156756047Y-87605787D01*
X156760168Y-87574486D01*
X156739530Y-87417724D01*
X156679022Y-87271645D01*
X156666049Y-87254738D01*
X156582768Y-87146204D01*
X156582766Y-87146202D01*
X156582765Y-87146201D01*
X156557714Y-87126979D01*
X156545520Y-87116285D01*
X156389779Y-86960544D01*
X156356294Y-86899221D01*
X156353460Y-86872863D01*
X156353460Y-86868002D01*
X156353460Y-86868000D01*
X156333674Y-86679744D01*
X156275179Y-86499716D01*
X156180533Y-86335784D01*
X156053871Y-86195112D01*
X156029680Y-86177536D01*
X155900734Y-86083851D01*
X155900729Y-86083848D01*
X155727807Y-86006857D01*
X155727802Y-86006855D01*
X155563254Y-85971880D01*
X155501772Y-85938688D01*
X155467996Y-85877525D01*
X155472648Y-85807810D01*
X155501352Y-85762911D01*
X156640128Y-84624135D01*
X156653757Y-84612358D01*
X156673016Y-84598021D01*
X156694587Y-84572313D01*
X156704846Y-84560087D01*
X156712163Y-84552102D01*
X156716073Y-84548192D01*
X156716073Y-84548191D01*
X156716077Y-84548188D01*
X156735319Y-84523849D01*
X156737555Y-84521104D01*
X156785788Y-84463625D01*
X156785793Y-84463614D01*
X156789760Y-84457586D01*
X156789811Y-84457619D01*
X156793858Y-84451267D01*
X156793806Y-84451235D01*
X156797594Y-84445091D01*
X156797597Y-84445088D01*
X156829307Y-84377084D01*
X156830848Y-84373899D01*
X156864526Y-84306844D01*
X156864529Y-84306828D01*
X156866995Y-84300057D01*
X156867053Y-84300078D01*
X156869529Y-84292957D01*
X156869472Y-84292938D01*
X156871741Y-84286089D01*
X156871741Y-84286087D01*
X156871743Y-84286084D01*
X156886921Y-84212568D01*
X156887686Y-84209119D01*
X156904986Y-84136132D01*
X156904986Y-84136130D01*
X156904987Y-84136126D01*
X156905825Y-84128959D01*
X156905884Y-84128965D01*
X156906650Y-84121465D01*
X156906591Y-84121460D01*
X156907220Y-84114270D01*
X156905038Y-84039280D01*
X156904986Y-84035673D01*
X156904986Y-83027298D01*
X156924671Y-82960259D01*
X156965713Y-82920656D01*
X156992466Y-82904783D01*
X157090537Y-82799447D01*
X157119270Y-82746827D01*
X157500324Y-81826878D01*
X157517216Y-81769353D01*
X157522353Y-81625523D01*
X157486760Y-81486071D01*
X157413321Y-81362296D01*
X157413317Y-81362292D01*
X157307989Y-81264228D01*
X157301700Y-81259694D01*
X157303066Y-81257799D01*
X157261901Y-81216636D01*
X157247047Y-81148364D01*
X157256169Y-81109756D01*
X157282697Y-81045712D01*
X157290782Y-81029615D01*
X157303092Y-81008993D01*
X157317991Y-80961736D01*
X157321693Y-80951568D01*
X157323804Y-80946473D01*
X157332269Y-80916621D01*
X157333282Y-80913242D01*
X157355849Y-80841671D01*
X157357208Y-80834570D01*
X157357267Y-80834581D01*
X157358575Y-80827164D01*
X157358514Y-80827155D01*
X157359665Y-80820024D01*
X157360903Y-80791664D01*
X157362937Y-80745063D01*
X157363141Y-80741553D01*
X157368596Y-80666693D01*
X157368596Y-80666692D01*
X157368281Y-80659477D01*
X157368341Y-80659474D01*
X157367903Y-80651951D01*
X157367843Y-80651956D01*
X157367317Y-80644757D01*
X157367318Y-80644749D01*
X157353221Y-80571089D01*
X157352596Y-80567539D01*
X157340648Y-80493496D01*
X157338676Y-80486542D01*
X157338734Y-80486525D01*
X157336573Y-80479305D01*
X157336515Y-80479324D01*
X157334343Y-80472435D01*
X157333295Y-80470099D01*
X157303617Y-80403960D01*
X157302220Y-80400722D01*
X157086735Y-79880497D01*
X157079267Y-79811028D01*
X157110542Y-79748549D01*
X157170631Y-79712897D01*
X157240456Y-79715391D01*
X157248749Y-79718483D01*
X157790739Y-79942983D01*
X157848265Y-79959875D01*
X157978607Y-79964530D01*
X157992092Y-79965012D01*
X157992092Y-79965011D01*
X157992095Y-79965012D01*
X158131547Y-79929419D01*
X158255322Y-79855980D01*
X158353393Y-79750644D01*
X158382126Y-79698024D01*
X158763180Y-78778075D01*
X158780072Y-78720550D01*
X158783154Y-78634252D01*
X158785209Y-78576722D01*
X158785208Y-78576715D01*
X158749616Y-78437269D01*
X158749616Y-78437268D01*
X158738886Y-78419184D01*
X158721608Y-78351487D01*
X158743673Y-78285192D01*
X158757842Y-78268237D01*
X160665045Y-76361035D01*
X160677230Y-76350349D01*
X160702282Y-76331128D01*
X160748075Y-76271450D01*
X160798536Y-76205687D01*
X160859044Y-76059608D01*
X160876648Y-75925892D01*
X160879682Y-75902847D01*
X160879682Y-75902844D01*
X160875561Y-75871543D01*
X160874500Y-75855358D01*
X160874500Y-69800784D01*
X160894185Y-69733745D01*
X160910819Y-69713103D01*
X161622935Y-69000987D01*
X162393085Y-68230836D01*
X162454406Y-68197353D01*
X162524098Y-68202337D01*
X162544028Y-68211872D01*
X162562119Y-68222606D01*
X162562121Y-68222606D01*
X162562122Y-68222607D01*
X162701566Y-68258198D01*
X162701568Y-68258198D01*
X162701571Y-68258199D01*
X162701572Y-68258198D01*
X162701573Y-68258199D01*
X162749514Y-68256486D01*
X162845401Y-68253062D01*
X162902926Y-68236171D01*
X163822874Y-67855115D01*
X163875495Y-67826383D01*
X163975771Y-67733023D01*
X163980825Y-67728318D01*
X163980826Y-67728316D01*
X163980831Y-67728312D01*
X164054270Y-67604537D01*
X164089863Y-67465085D01*
X164084726Y-67321255D01*
X164067835Y-67263730D01*
X163566362Y-66053069D01*
X165297650Y-66053069D01*
X165544404Y-66648783D01*
X165556689Y-66670841D01*
X165556690Y-66670842D01*
X165637805Y-66748295D01*
X165741433Y-66791219D01*
X165741431Y-66791219D01*
X165853561Y-66793808D01*
X165877843Y-66786899D01*
X166196393Y-66654950D01*
X165851978Y-65823459D01*
X165851977Y-65823458D01*
X165297650Y-66053069D01*
X163566362Y-66053069D01*
X163457169Y-65789454D01*
X163428437Y-65736833D01*
X163416488Y-65723999D01*
X163330372Y-65631502D01*
X163330367Y-65631498D01*
X163330366Y-65631497D01*
X163206591Y-65558058D01*
X163206590Y-65558057D01*
X163206589Y-65558057D01*
X163067143Y-65522465D01*
X163067136Y-65522464D01*
X162923312Y-65527601D01*
X162923308Y-65527602D01*
X162891546Y-65536928D01*
X162865784Y-65544493D01*
X162865782Y-65544493D01*
X162865778Y-65544495D01*
X161945835Y-65925549D01*
X161893214Y-65954281D01*
X161787884Y-66052345D01*
X161787878Y-66052353D01*
X161714439Y-66176128D01*
X161678847Y-66315574D01*
X161678846Y-66315581D01*
X161683983Y-66459405D01*
X161683984Y-66459409D01*
X161700875Y-66516934D01*
X161821915Y-66809152D01*
X161876431Y-66940764D01*
X161883900Y-67010234D01*
X161852625Y-67072713D01*
X161849551Y-67075898D01*
X159882965Y-69042485D01*
X159870775Y-69053176D01*
X159845720Y-69072402D01*
X159845718Y-69072405D01*
X159777023Y-69161930D01*
X159777022Y-69161930D01*
X159749464Y-69197844D01*
X159688956Y-69343924D01*
X159688955Y-69343926D01*
X159668318Y-69500685D01*
X159668318Y-69500686D01*
X159672439Y-69531988D01*
X159673500Y-69548174D01*
X159673500Y-75602747D01*
X159653815Y-75669786D01*
X159637181Y-75690428D01*
X157602908Y-77724700D01*
X157541585Y-77758185D01*
X157471893Y-77753201D01*
X157467774Y-77751580D01*
X157457605Y-77747368D01*
X157402880Y-77724700D01*
X157318678Y-77689822D01*
X157264275Y-77645981D01*
X157242210Y-77579687D01*
X157251569Y-77527812D01*
X157291467Y-77431490D01*
X157335308Y-77377088D01*
X157376006Y-77360674D01*
X157375562Y-77359107D01*
X157382504Y-77357138D01*
X157382505Y-77357137D01*
X157382508Y-77357137D01*
X157544595Y-77289998D01*
X157686830Y-77187289D01*
X157801545Y-77054547D01*
X157850582Y-76963602D01*
X158252405Y-75993512D01*
X158282040Y-75894529D01*
X158294786Y-75719551D01*
X158266838Y-75546349D01*
X158199700Y-75384262D01*
X158190725Y-75371834D01*
X158096990Y-75242028D01*
X157964249Y-75127313D01*
X157873305Y-75078277D01*
X157846268Y-75067078D01*
X157157280Y-74781691D01*
X157058298Y-74752056D01*
X156883321Y-74739308D01*
X156710116Y-74767257D01*
X156548029Y-74834396D01*
X156405797Y-74937103D01*
X156405793Y-74937107D01*
X156390538Y-74954760D01*
X156331809Y-74992611D01*
X156261940Y-74992703D01*
X156203112Y-74955005D01*
X156177908Y-74900007D01*
X156176207Y-74900453D01*
X156135759Y-74745992D01*
X156135758Y-74745988D01*
X156059417Y-74615481D01*
X155950701Y-74510417D01*
X155950695Y-74510412D01*
X155873112Y-74466789D01*
X155873105Y-74466785D01*
X155660094Y-74378553D01*
X155660093Y-74378554D01*
X155310851Y-75221701D01*
X155310851Y-75221703D01*
X154875593Y-76272507D01*
X155088603Y-76360739D01*
X155174322Y-76384756D01*
X155325492Y-76387337D01*
X155471746Y-76349039D01*
X155471750Y-76349038D01*
X155609577Y-76268416D01*
X155610768Y-76270452D01*
X155664135Y-76249117D01*
X155732736Y-76262373D01*
X155783280Y-76310612D01*
X155799720Y-76378520D01*
X155799535Y-76381570D01*
X155797839Y-76404840D01*
X155811886Y-76491893D01*
X155825788Y-76578045D01*
X155843630Y-76621119D01*
X155892928Y-76740137D01*
X155896447Y-76746442D01*
X155894419Y-76747573D01*
X155913981Y-76802927D01*
X155904723Y-76857085D01*
X155200573Y-78557057D01*
X155192488Y-78573157D01*
X155180175Y-78593785D01*
X155165275Y-78641042D01*
X155161577Y-78651201D01*
X155159469Y-78656288D01*
X155159461Y-78656311D01*
X155151015Y-78686089D01*
X155149983Y-78689535D01*
X155127418Y-78761104D01*
X155126060Y-78768203D01*
X155126002Y-78768192D01*
X155124693Y-78775615D01*
X155124753Y-78775625D01*
X155123602Y-78782751D01*
X155120330Y-78857676D01*
X155120120Y-78861272D01*
X155114671Y-78936080D01*
X155114987Y-78943296D01*
X155114928Y-78943298D01*
X155115366Y-78950827D01*
X155115425Y-78950823D01*
X155115950Y-78958032D01*
X155130039Y-79031659D01*
X155130665Y-79035208D01*
X155142618Y-79109282D01*
X155144591Y-79116237D01*
X155144534Y-79116253D01*
X155146694Y-79123466D01*
X155146751Y-79123449D01*
X155148923Y-79130339D01*
X155179608Y-79198723D01*
X155181036Y-79202033D01*
X155690140Y-80431118D01*
X155697609Y-80500588D01*
X155666334Y-80563067D01*
X155606245Y-80598719D01*
X155588420Y-80600639D01*
X155588551Y-80601851D01*
X155579728Y-80602799D01*
X155440282Y-80638391D01*
X155316507Y-80711830D01*
X155316502Y-80711834D01*
X155218438Y-80817162D01*
X155218435Y-80817166D01*
X155189704Y-80869780D01*
X154808650Y-81789730D01*
X154791755Y-81847263D01*
X154786618Y-81991088D01*
X154786619Y-81991095D01*
X154820908Y-82125435D01*
X154822212Y-82130543D01*
X154895651Y-82254318D01*
X154895653Y-82254320D01*
X154895654Y-82254321D01*
X155000982Y-82352385D01*
X155000985Y-82352387D01*
X155000987Y-82352389D01*
X155019699Y-82362607D01*
X155053600Y-82381119D01*
X155053606Y-82381122D01*
X155327438Y-82494546D01*
X155381842Y-82538387D01*
X155403907Y-82604681D01*
X155403986Y-82609107D01*
X155403986Y-83686180D01*
X155384301Y-83753219D01*
X155367667Y-83773861D01*
X154549099Y-84592428D01*
X154487776Y-84625913D01*
X154418084Y-84620929D01*
X154362151Y-84579057D01*
X154354031Y-84566747D01*
X154343316Y-84548188D01*
X154275533Y-84430784D01*
X154148871Y-84290112D01*
X154142859Y-84285744D01*
X153995734Y-84178851D01*
X153995729Y-84178848D01*
X153822807Y-84101857D01*
X153822802Y-84101855D01*
X153663098Y-84067910D01*
X153637646Y-84062500D01*
X153637645Y-84062500D01*
X153543097Y-84062500D01*
X153476058Y-84042815D01*
X153455416Y-84026181D01*
X152264295Y-82835060D01*
X152230810Y-82773737D01*
X152227976Y-82747379D01*
X152227976Y-81228420D01*
X152247661Y-81161381D01*
X152300465Y-81115626D01*
X152321303Y-81108273D01*
X152341681Y-81103073D01*
X152465456Y-81029634D01*
X152563527Y-80924298D01*
X152590101Y-80875632D01*
X152592257Y-80871684D01*
X152592257Y-80871681D01*
X152592260Y-80871678D01*
X152973314Y-79951729D01*
X152990206Y-79894204D01*
X152995343Y-79750374D01*
X152993134Y-79741721D01*
X152959750Y-79610923D01*
X152959750Y-79610922D01*
X152886311Y-79487147D01*
X152886307Y-79487143D01*
X152780979Y-79389079D01*
X152780975Y-79389076D01*
X152728361Y-79360345D01*
X151254084Y-78749681D01*
X151254083Y-78749680D01*
X151254079Y-78749679D01*
X151196553Y-78732787D01*
X151187561Y-78732465D01*
X151052725Y-78727649D01*
X151052718Y-78727650D01*
X150913272Y-78763242D01*
X150789497Y-78836681D01*
X150789492Y-78836685D01*
X150691428Y-78942013D01*
X150691425Y-78942017D01*
X150662694Y-78994631D01*
X150281640Y-79914581D01*
X150264745Y-79972114D01*
X150259608Y-80115939D01*
X148967316Y-80115939D01*
X149254261Y-79182551D01*
X149255793Y-79177904D01*
X149583827Y-78244690D01*
X149585521Y-78240159D01*
X149825811Y-77634665D01*
X152741900Y-77634665D01*
X152741901Y-77634666D01*
X153337613Y-77881417D01*
X153361890Y-77888327D01*
X153361899Y-77888328D01*
X153474026Y-77885739D01*
X153577648Y-77842817D01*
X153577653Y-77842814D01*
X153658768Y-77765362D01*
X153658768Y-77765361D01*
X153671054Y-77743304D01*
X153671061Y-77743291D01*
X153803002Y-77424754D01*
X153803001Y-77424752D01*
X152971511Y-77080337D01*
X152971510Y-77080338D01*
X152741900Y-77634665D01*
X149825811Y-77634665D01*
X149950416Y-77320679D01*
X149952319Y-77316150D01*
X150108568Y-76963953D01*
X151723999Y-76963953D01*
X151726588Y-77076080D01*
X151769512Y-77179707D01*
X151846966Y-77260823D01*
X151869013Y-77273104D01*
X151869027Y-77273111D01*
X152464737Y-77519862D01*
X152464738Y-77519861D01*
X152694348Y-76965534D01*
X152694347Y-76965533D01*
X152302377Y-76803174D01*
X153086314Y-76803174D01*
X153086315Y-76803175D01*
X153917806Y-77147589D01*
X154049753Y-76829042D01*
X154056663Y-76804765D01*
X154056664Y-76804756D01*
X154054075Y-76692629D01*
X154011151Y-76589002D01*
X153933697Y-76507886D01*
X153911650Y-76495605D01*
X153911636Y-76495598D01*
X153315925Y-76248846D01*
X153315924Y-76248847D01*
X153086314Y-76803174D01*
X152302377Y-76803174D01*
X151862856Y-76621119D01*
X151862855Y-76621120D01*
X151730911Y-76939663D01*
X151730911Y-76939664D01*
X151724000Y-76963944D01*
X151723999Y-76963953D01*
X150108568Y-76963953D01*
X150353447Y-76411977D01*
X150355507Y-76407570D01*
X150386813Y-76343955D01*
X151977660Y-76343955D01*
X152809151Y-76688371D01*
X152809152Y-76688370D01*
X153038762Y-76134043D01*
X153038761Y-76134042D01*
X152443050Y-75887292D01*
X152418773Y-75880382D01*
X152418764Y-75880381D01*
X152306637Y-75882970D01*
X152203015Y-75925892D01*
X152203010Y-75925895D01*
X152121895Y-76003347D01*
X152121895Y-76003348D01*
X152109614Y-76025395D01*
X152109607Y-76025409D01*
X151977660Y-76343955D01*
X150386813Y-76343955D01*
X150731266Y-75644011D01*
X154084467Y-75644011D01*
X154122766Y-75790265D01*
X154122767Y-75790269D01*
X154199108Y-75920776D01*
X154307824Y-76025840D01*
X154307830Y-76025845D01*
X154385413Y-76069468D01*
X154385420Y-76069472D01*
X154598430Y-76157703D01*
X154598431Y-76157702D01*
X154933279Y-75349308D01*
X154933278Y-75349307D01*
X154251917Y-75067078D01*
X154251916Y-75067079D01*
X154111067Y-75407121D01*
X154087050Y-75492840D01*
X154084467Y-75644011D01*
X150731266Y-75644011D01*
X150792310Y-75519968D01*
X150794538Y-75515659D01*
X151188274Y-74789915D01*
X154366721Y-74789915D01*
X155048082Y-75072145D01*
X155048083Y-75072144D01*
X155382931Y-74263749D01*
X155382930Y-74263748D01*
X155169925Y-74175519D01*
X155084203Y-74151501D01*
X154933032Y-74148919D01*
X154786779Y-74187218D01*
X154786775Y-74187219D01*
X154656268Y-74263560D01*
X154551202Y-74372277D01*
X154507572Y-74449871D01*
X154366721Y-74789915D01*
X151188274Y-74789915D01*
X151266265Y-74646160D01*
X151268679Y-74641913D01*
X151774594Y-73791868D01*
X151777191Y-73787697D01*
X152316494Y-72958448D01*
X152319218Y-72954436D01*
X152891073Y-72147267D01*
X152893957Y-72143362D01*
X153497473Y-71359537D01*
X153500520Y-71355739D01*
X154134700Y-70596552D01*
X154137891Y-70592884D01*
X154801770Y-69859491D01*
X154805086Y-69855971D01*
X155497586Y-69149563D01*
X155501069Y-69146148D01*
X156221122Y-68467815D01*
X156224704Y-68464572D01*
X156971156Y-67815402D01*
X156974862Y-67812306D01*
X157746539Y-67193319D01*
X157750378Y-67190364D01*
X158546002Y-66602585D01*
X158550015Y-66599742D01*
X159368409Y-66044037D01*
X159372467Y-66041398D01*
X160212308Y-65518670D01*
X160216467Y-65516194D01*
X160850160Y-65155910D01*
X164929184Y-65155910D01*
X164936093Y-65180195D01*
X165182844Y-65775905D01*
X165182845Y-65775906D01*
X165345203Y-65708655D01*
X166129140Y-65708655D01*
X166473557Y-66540146D01*
X166792100Y-66408201D01*
X166814164Y-66395912D01*
X166814166Y-66395910D01*
X166891617Y-66314797D01*
X166891620Y-66314792D01*
X166934542Y-66211170D01*
X166937131Y-66099041D01*
X166930222Y-66074756D01*
X166846057Y-65871565D01*
X167539955Y-65871565D01*
X167542537Y-66022735D01*
X167566555Y-66108457D01*
X167654784Y-66321462D01*
X167654785Y-66321463D01*
X168463180Y-65986615D01*
X168463181Y-65986614D01*
X168180951Y-65305253D01*
X167840907Y-65446104D01*
X167763313Y-65489734D01*
X167654596Y-65594800D01*
X167578255Y-65725307D01*
X167578254Y-65725311D01*
X167539955Y-65871565D01*
X166846057Y-65871565D01*
X166683469Y-65479045D01*
X166683468Y-65479045D01*
X166129141Y-65708654D01*
X166129140Y-65708655D01*
X165345203Y-65708655D01*
X165737173Y-65546296D01*
X165737174Y-65546295D01*
X165392757Y-64714804D01*
X165074215Y-64846750D01*
X165052151Y-64859039D01*
X165052149Y-64859041D01*
X164974698Y-64940154D01*
X164974695Y-64940159D01*
X164931773Y-65043781D01*
X164929184Y-65155910D01*
X160850160Y-65155910D01*
X161076434Y-65027263D01*
X161080726Y-65024935D01*
X161902548Y-64600001D01*
X165669922Y-64600001D01*
X166014336Y-65431491D01*
X166014337Y-65431492D01*
X166568664Y-65201881D01*
X166563929Y-65190449D01*
X168458114Y-65190449D01*
X168740343Y-65871810D01*
X168740344Y-65871811D01*
X169548738Y-65536963D01*
X169548739Y-65536962D01*
X169460508Y-65323952D01*
X169460504Y-65323945D01*
X169416881Y-65246362D01*
X169416876Y-65246356D01*
X169311812Y-65137640D01*
X169181305Y-65061299D01*
X169181301Y-65061298D01*
X169035046Y-65022999D01*
X168883876Y-65025582D01*
X168798157Y-65049599D01*
X168458115Y-65190448D01*
X168458114Y-65190449D01*
X166563929Y-65190449D01*
X166321911Y-64606168D01*
X166309626Y-64584110D01*
X166309625Y-64584109D01*
X166228510Y-64506656D01*
X166124882Y-64463732D01*
X166124884Y-64463732D01*
X166012754Y-64461143D01*
X165988464Y-64468054D01*
X165669922Y-64600000D01*
X165669922Y-64600001D01*
X161902548Y-64600001D01*
X161959408Y-64570601D01*
X161963805Y-64568437D01*
X162859861Y-64149394D01*
X162864296Y-64147426D01*
X163769118Y-63767356D01*
X163769202Y-63767322D01*
X163779040Y-63763276D01*
X163782666Y-63761853D01*
X164690883Y-63422170D01*
X164690977Y-63422136D01*
X164712429Y-63414301D01*
X164716104Y-63413024D01*
X165626146Y-63113327D01*
X165626564Y-63113192D01*
X165659070Y-63102774D01*
X165662703Y-63101672D01*
X166573712Y-62841316D01*
X166574414Y-62841119D01*
X166617354Y-62829228D01*
X166620905Y-62828305D01*
X167532106Y-62606668D01*
X167532565Y-62606559D01*
X167585665Y-62594119D01*
X167589320Y-62593323D01*
X168499361Y-62409952D01*
X168499978Y-62409830D01*
X168562673Y-62397767D01*
X168566255Y-62397135D01*
X169474337Y-62251458D01*
X169474999Y-62251355D01*
X169546638Y-62240522D01*
X169550234Y-62240034D01*
X170455238Y-62131551D01*
X170456008Y-62131463D01*
X170536150Y-62122607D01*
X170539655Y-62122274D01*
X171440574Y-62050468D01*
X171441444Y-62050403D01*
X171529453Y-62044229D01*
X171533046Y-62044032D01*
X172428941Y-62008386D01*
X172429757Y-62008358D01*
X172525035Y-62005497D01*
X172528753Y-62005442D01*
X173418205Y-62005442D01*
X173419443Y-62005447D01*
G37*
G04 #@! TD.AperFunction*
M02*
